<?xml version="1.0" standalone="no"?>
<!DOCTYPE svg PUBLIC "-//W3C//DTD SVG 1.1//EN" "http://www.w3.org/Graphics/SVG/1.1/DTD/svg11.dtd" >
<svg xmlns="http://www.w3.org/2000/svg">
<metadata></metadata>
<defs>
<font id="noteworthybold" horiz-adv-x="1610" >
<font-face units-per-em="2048" ascent="1638" descent="-410" />
<missing-glyph horiz-adv-x="427" />
<glyph horiz-adv-x="0" />
<glyph unicode="&#xd;" horiz-adv-x="427" />
<glyph horiz-adv-x="0" />
<glyph unicode=" "  horiz-adv-x="427" />
<glyph unicode="&#x09;" horiz-adv-x="427" />
<glyph unicode="&#xa0;" horiz-adv-x="427" />
<glyph unicode="!" horiz-adv-x="688" d="M110 128q0 148 182 148q67 0 136 -25q92 -34 92 -85q0 -195 -223 -194q-41 0 -156 48q-31 56 -31 108zM202 655q0 118 47.5 349.5t47.5 349.5q0 46 -16.5 139.5t-16.5 139.5q0 26 5 44q64 54 156 54q54 0 107 -26q62 -33 62 -82q0 -18 -13 -38q-18 -28 -23 -36 q-59 -146 -87 -371q-13 -79 -38 -384q0 -13 -6.5 -50t-6.5 -58q0 -67 28 -177q-15 -20 -51 -56q-28 -8 -62 -8q-51 0 -94 26q-38 72 -39 184z" />
<glyph unicode="&#x22;" horiz-adv-x="686" d="M64 1597q0 151 123 151q23 1 82 -53q-15 -92 -16 -374q0 -77 -10 -100q-18 -33 -87 -33q-56 0 -84 56q-8 300 -8 353zM361 1526q0 49 28 120q31 87 69 87t82 -23q54 -25 54 -56q0 -3 -25.5 -62t-25.5 -112q0 -26 3.5 -82.5t3.5 -84.5q0 -125 -99 -125q-54 0 -85 56 q-5 256 -5 282z" />
<glyph unicode="#" horiz-adv-x="1282" d="M64 568q0 77 49 77q-5 0 143 0l38 466q-51 -18 -102 -18q-28 0 -46 56q-15 44 -15 80q0 67 66 110l131 8q8 115 33 343q87 51 133 51q54 0 88.5 -33.5t34.5 -87.5q0 -23 -38 -145q-3 -38 -16 -116l151 5q13 82 46 341q95 61 121 61q54 0 101 -34.5t47 -87.5 q0 -33 -33 -128q-38 -115 -44 -139h11q72 0 130 -33q72 -38 72 -105q0 -125 -105 -125q-23 0 -71.5 17.5t-77.5 17.5q-23 -159 -66 -476h20q207 3 208 -110q0 -125 -105 -125q-26 0 -74.5 5t-74.5 5q-10 -131 -10 -279q0 -13 6.5 -34.5t6.5 -32.5q0 -49 -40 -83t-88 -34 q-61 0 -98 61q-33 54 -33 115q0 128 26 300h-64q-15 0 -62 -3q-38 -300 -38 -330q0 -154 -133 -154q-36 0 -69.5 38.5t-33.5 77.5q0 102 34 314q-38 -13 -54 -12q-46 0 -77 69q-28 59 -28 107zM484 655l133 8l69 499h-84h-72q-13 -169 -46 -507z" />
<glyph unicode="$" horiz-adv-x="1341" d="M64 545q0 51 54 85q46 28 102 28q54 0 105 -41q84 -67 92 -69q59 -31 213 -33q-10 33 -10 166q-151 54 -210 92q-110 74 -110 187q0 128 117 220q51 41 228 133v302q0 59 54 96t115 37q31 0 64 -23q26 -20 54 -41v-53q0 -33 -28 -64q-15 -18 -21 -190q108 20 136 21 q61 0 125 -31q75 -36 75 -90q0 -64 -90 -94q-67 -26 -143 -26q-15 0 -47.5 4t-47.5 4t-26 -3q-13 -105 -25 -315q110 -31 222 -59q131 -51 131 -158q0 -118 -128 -182q-5 -3 -225 -77v-15q0 -95 7 -164q0 -8 6.5 -37.5t6.5 -41.5q0 -82 -13 -113q-23 -46 -89 -44h-64 q-61 182 -67 387q-10 0 -31 -3h-28q-118 0 -292 52q-212 67 -212 153zM540 973q0 -31 30.5 -49t61.5 -31v200q-59 -44 -64 -49q-28 -28 -28 -71zM829 522q28 3 57.5 5.5t29.5 71.5q0 31 -33 38q-54 10 -54 11v-126z" />
<glyph unicode="%" horiz-adv-x="1845" d="M64 1211q0 202 79 340q97 169 285 169q143 0 243 -125q90 -113 100 -264q92 33 215 115q141 97 167.5 165t39.5 84q26 33 79 33q61 0 112.5 -38.5t51.5 -97.5q0 -36 -30.5 -61.5t-87.5 -81.5q-143 -174 -367 -636t-283 -695q31 -26 31 -57q0 -33 -27 -57t-63 -24 q-49 0 -117 66q-3 77 -3 100q0 133 179 527q125 269 254 538q-56 -18 -167 -51q-84 -346 -343 -346q-348 0 -348 397zM271 1244q0 -259 133 -258q105 0 139 156l5 7q-177 18 -272 136q-5 -23 -5 -41zM399 1459q0 -61 62 -97q51 -33 118 -36q-3 56 -41 126q-41 82 -90 81 q-49 0 -49 -74zM942 384q0 151 79 323q97 202 228 202q41 0 136 -39l13 -30l7 2q138 3 226 -141q71 -123 71 -271q0 -192 -97 -317q-105 -133 -292 -133q-177 0 -276 115q-95 108 -95 289zM1149 392q0 -90 36 -156q44 -84 126 -85q87 0 141 100q43 84 43 179q0 118 -38 172 q-23 36 -84.5 62.5t-84.5 52.5q-54 -46 -96.5 -148.5t-42.5 -176.5z" />
<glyph unicode="&#x26;" horiz-adv-x="1784" d="M64 297q0 110 108 248q36 49 189 208q-159 297 -159 473q0 225 138.5 365t363.5 140q164 0 269 -87q110 -95 110 -256q0 -164 -154 -364q-82 -105 -281 -300q36 -56 212 -227q184 -182 220 -182q23 0 129.5 71.5t106.5 84.5q0 64 -167 64q-56 0 -125 -36q-90 36 -90 100 q0 120 159 120q138 0 292 -38q212 -49 212 -141q0 -169 -322 -366q92 -69 166 -69q20 0 62.5 15.5t65.5 15.5q75 0 75 -49q0 -64 -78.5 -117.5t-144.5 -53.5q-100 0 -187 48.5t-172 94.5q-305 -120 -535 -120q-192 0 -317 79q-146 95 -146 279zM302 253q0 -125 207 -125 q64 0 179.5 24t171.5 50q-192 159 -374 369q-95 -102 -122 -143q-61 -90 -62 -175zM428 1234q0 -87 28 -177q31 -110 84 -153q113 84 213 230q112 164 112 282q0 59 -39.5 96t-101.5 37q-118 0 -207 -98.5t-89 -216.5z" />
<glyph unicode="'" horiz-adv-x="371" d="M64 1267v13q0 108 20 256q28 200 80 215q15 5 18 5q36 0 73 -23t37 -56q0 -3 -25.5 -62t-25.5 -110q0 -36 -9 -105t-9 -105v-64q-8 -18 -49 -18q-79 0 -110 54z" />
<glyph unicode="(" horiz-adv-x="588" d="M64 883q0 233 69 563q90 440 225 441q64 0 102.5 -55t38.5 -122q0 -20 -27 -39.5t-47 -19.5q-5 0 -20.5 -21.5t-23.5 -26.5q-79 -125 -79 -533q0 -640 79 -865q3 -10 52 -115q38 -87 38 -103q0 -56 -43.5 -87t-99.5 -31q-84 0 -151 221q-113 364 -113 793z" />
<glyph unicode=")" horiz-adv-x="606" d="M64 1705q0 64 41 107.5t102 43.5q36 0 69 -10q123 -133 190 -476q51 -267 51 -528q0 -420 -136 -760q-64 -159 -143 -159q-46 0 -96 36t-50 79q0 28 24.5 50t67.5 68q105 151 105 522q0 266 -25 510q-41 356 -123 440q0 3 -46 36q-31 23 -31 41z" />
<glyph unicode="*" horiz-adv-x="714" d="M64 1626q18 67 69 82q23 8 113 5q0 3 -36 53q-31 41 -31 52q0 23 27 47t47 24q33 0 72 -82q26 -54 51 -110q192 125 190 126q26 0 40 -37t14 -68v-10q-38 -23 -116 -72q3 -3 62 -41q38 -26 38 -59q0 -8 -5 -22t-5 -22q-8 -10 -28 -10q-67 0 -108 36q-3 -5 -5 -15 q0 -20 49 -82v-28q-51 -26 -62 -26q-28 0 -64 56q-26 44 -51 85q-33 -31 -69 -62q-44 -38 -77 -38q-20 0 -56 18v36q0 13 100 107q-13 23 -77 32t-82 25z" />
<glyph unicode="+" horiz-adv-x="1525" d="M64 860q0 49 36 88.5t82 39.5t135.5 -10t135.5 -10h141v468q69 36 115 36q44 0 101.5 -33.5t57.5 -71.5q0 -44 -20.5 -127t-20.5 -126v-146h343q54 0 164 25q61 -33 61 -77q0 -164 -169 -163h-399v-302q0 -49 28 -154q-38 -56 -84 -56q-177 0 -177 158v354h-492 q-38 67 -38 107z" />
<glyph unicode="," horiz-adv-x="450" d="M22 -403q-19 27 9 63q51 28 96 69t65 105q13 36 9 78t-47 70q-44 28 -74.5 56.5t-30.5 79.5q0 59 52.5 105t121.5 46q74 0 127.5 -66.5t53.5 -166.5q0 -108 -20 -177t-72 -133q-51 -67 -115 -114t-115 -47q-41 5 -60 32z" />
<glyph unicode="-" horiz-adv-x="852" d="M64 724q0 74 67 75q20 0 59.5 -10.5t60.5 -10.5q54 0 162.5 5t162.5 5q159 1 177 -71q-15 -5 -16 -18q0 -8 6.5 -20.5t6.5 -20.5q0 -28 -87 -28q-18 0 -48.5 6.5t-48.5 6.5q-44 0 -132 -3t-134 -3q-236 0 -236 87z" />
<glyph unicode="." horiz-adv-x="488" d="M46 120q0 51 52.5 91t108.5 40q69 0 144 -41q84 -49 84 -108q0 -44 -76.5 -86t-128.5 -42q-56 0 -120 43.5t-64 102.5z" />
<glyph unicode="/" horiz-adv-x="1274" d="M64 -15q0 33 23 63.5t46 59.5q156 225 310 591q123 310 246 619q38 84 74 167q41 100 56 171q3 26 22 74.5t75.5 80.5t112.5 32q56 1 128 -71q-36 -59 -97 -180l-528 -1164q-123 -271 -145 -313q-120 -218 -223 -217q-38 0 -69 24t-31 63z" />
<glyph unicode="0" horiz-adv-x="1617" d="M64 753q0 287 159 563q177 307 435 376q92 26 210 26q276 0 458 -277q159 -243 159 -535q0 -353 -185 -624q-210 -310 -545 -310q-320 0 -512 235q-179 220 -179 546zM300 745q0 -236 117 -384q131 -161 361 -161q243 0 374 251q105 199 105 468q0 246 -95 405 q-113 197 -343 197q-74 0 -153 -46q-177 -102 -277 -315q-90 -195 -89 -415z" />
<glyph unicode="1" horiz-adv-x="640" d="M128 1208v82q-3 108 54 264q69 187 153 187q49 0 99 -52.5t50 -101.5q0 -28 -31 -171q-77 -361 -77 -564v-501q0 -200 21 -226q44 -64 43 -79q0 -36 -29.5 -63t-64.5 -27q-54 0 -146 44q-31 67 -31 118v1060z" />
<glyph unicode="2" horiz-adv-x="1530" d="M64 77q0 64 64 130q23 26 115 98q261 207 466 458q266 333 266 571q0 95 -67.5 152.5t-162.5 57.5q-105 0 -229 -84.5t-155 -184.5q-18 -87 -33 -174q-31 -113 -108 -113q-38 0 -93 43.5t-55 79.5q0 151 140 323q128 159 277 230q131 61 276 61q179 0 319 -128t140 -307 q0 -269 -272 -576q-92 -105 -484 -455q-38 -33 -66 -64l840 125q13 3 28 3q59 0 94.5 -50.5t35.5 -111.5q0 -36 -25.5 -70.5t-61.5 -34.5q-31 0 -93.5 15.5t-95.5 15.5q-404 0 -807 -123q-79 -23 -102 -23q-61 0 -106 37t-45 99z" />
<glyph unicode="3" horiz-adv-x="1684" d="M64 317q0 44 39.5 78.5t83.5 34.5q74 0 110 -69q49 -102 82 -131q84 -69 281 -69q169 0 313 62q159 72 238 202q56 95 56 154q0 123 -148 207q-125 74 -256 74q-36 0 -189.5 -57.5t-243.5 -57.5q-49 0 -90 20q-51 23 -51 67q0 54 56.5 113t202.5 66q179 10 220 28 q77 31 192 159q105 120 105 230q0 141 -146 141q-82 0 -233 -64t-192 -123v-7q0 -3 13 -36q-28 -59 -108 -123q-87 -67 -146 -67q-44 0 -88.5 32t-44.5 73q0 56 69 146q113 146 332 260t398 114q161 0 269 -84q118 -90 118 -249q0 -108 -70 -233q-64 -113 -156 -189 q443 -100 443 -425q0 -169 -107 -302q-246 -310 -676 -310q-192 0 -351 41q-102 26 -205 108q-120 95 -120 186z" />
<glyph unicode="4" horiz-adv-x="1797" d="M64 589q0 92 159 240q120 97 238 198q189 154 548 478q59 69 117 139q69 74 157 74q59 0 106 -41t47 -97q0 -38 -20 -90l-28 -87q-10 -41 -72 -423q-44 -266 -44 -337q38 10 123 10q223 0 297 -100l3 -95q0 -54 -57 -54q26 0 -112 16q-123 13 -277 23q3 -90 5 -179 q8 -108 44 -174q23 -44 23 -59q0 -31 -38 -90q-44 -23 -85 -23t-74 23q-97 0 -97 233q0 33 3.5 101t3.5 101q0 10 4 28t4 26q-105 -3 -324 -32t-334 -29q-87 0 -197 66q-123 74 -123 154zM343 609q0 -23 36 -23l15 3l650 51l64 663q-179 -120 -432 -333q-333 -279 -333 -361 z" />
<glyph unicode="5" horiz-adv-x="1576" d="M64 215q0 105 133 105q77 0 209 -94.5t226 -94.5q215 0 366 107q172 123 172 328q0 138 -105 220q-97 72 -238 72q-87 0 -195 -26q-125 -28 -176 -74q-77 -67 -118 -67q-46 0 -138 51q3 28 18 83.5t15 85.5v128q-3 84 -3 126q0 333 90 522q44 23 87 23q69 0 108 -46 q10 0 138 15q241 33 379 34q74 0 133 -31q77 -36 77 -102q0 -46 -57 -141h-53q-23 0 -54 10q-41 15 -49 18q-41 10 -115 10q-79 0 -220 -13q-179 -13 -200 -30q-38 -36 -38 -343q0 -64 2 -108q200 87 405 87q233 0 386 -118q169 -128 169 -356q0 -279 -235 -471 q-223 -177 -510 -176q-120 0 -216 18t-232 92q-161 87 -161 156z" />
<glyph unicode="6" horiz-adv-x="1566" d="M64 620q0 282 159 558q148 264 389 435q192 138 287 138q54 0 114 -47.5t60 -100.5q0 -41 -27 -76t-66 -35q-44 0 -71 39q-125 -18 -320 -220q-197 -210 -192 -333v-18q228 195 425 195q261 0 425 -153.5t164 -412.5q0 -284 -206.5 -473.5t-495.5 -189.5q-297 0 -476 199 q-169 192 -169 495zM315 535q20 -184 110 -294q102 -128 276 -128q205 0 343 153q136 147 136 354q0 161 -94.5 253t-256.5 92q-138 0 -273.5 -92t-197.5 -220q-13 -38 -43 -118z" />
<glyph unicode="7" horiz-adv-x="1377" d="M26 1283q0 28 15 69q20 56 23 66q15 82 29.5 160t62.5 160q84 -3 123 -64q54 3 136 31q102 36 133 43q125 26 279 26q131 0 274 -41q192 -56 192 -151q0 -46 -23 -77q-3 -5 -51 -59q-348 -371 -617 -1054q-61 -159 -62 -261q0 -28 44 -164q-23 -67 -80 -67q-79 0 -130 72 q-49 64 -49 146q0 41 23 130q74 294 259 643q8 10 350 599q0 18 -1 36t-29 18q-108 0 -338 -34q-264 -38 -289 -76q-13 -18 -21 -116q-8 -82 -74 -138q-26 -8 -51 -8q-49 0 -88.5 31t-39.5 80z" />
<glyph unicode="8" horiz-adv-x="1559" d="M64 433q0 271 302 455q-220 151 -220 348q0 225 194 369q174 131 410 131q146 0 281.5 -70.5t220.5 -190.5q28 15 36 15q49 0 78 -37t29 -89q0 -131 -159 -253q-82 -64 -273 -159q463 -151 463 -491q0 -187 -129.5 -319t-318.5 -168q-97 -18 -225 -18q-269 0 -456 103 q-233 128 -233 374zM287 433q0 -154 169 -231q125 -56 302 -56q164 0 281 59q149 77 149 225t-192 248q-92 46 -325 110q-13 5 -44 11q-192 -118 -223 -144q-118 -97 -117 -222zM369 1244q0 -79 110 -148q100 -64 181 -64q51 0 228 94q161 87 220 136q-100 161 -135 197 q-82 79 -223 80q-146 0 -256 -72q-125 -84 -125 -223z" />
<glyph unicode="9" horiz-adv-x="1415" d="M64 1070q0 294 161 484q169 202 459 202q271 0 432 -207q149 -192 149 -471q0 -333 -172 -638q-79 -136 -212 -279q-172 -182 -279 -181q-54 0 -131 46q-87 51 -87 102q0 38 29.5 66.5t67.5 28.5q41 0 82 -36q84 3 218 192q95 136 156 271q-187 -110 -346 -110 q-241 0 -384 146t-143 384zM292 1047q0 -138 83 -230.5t219 -92.5q72 0 233 97.5t189 161.5q16 36 16 85q0 184 -80 327q-95 177 -263 177q-174 0 -292 -182q-105 -159 -105 -343z" />
<glyph unicode=":" horiz-adv-x="514" d="M64 133q0 49 46 93.5t95 44.5q72 0 135.5 -44.5t63.5 -116.5q0 -51 -44.5 -94.5t-95.5 -43.5q-61 0 -130.5 51t-69.5 110zM77 929q0 131 148 131q69 0 128 -31q69 -36 69 -100q0 -67 -61 -106.5t-133 -39.5q-151 0 -151 146z" />
<glyph unicode=";" horiz-adv-x="540" d="M73 -403q-19 27 9 63q51 28 96 69t65 105q13 36 9 78t-47 70q-44 28 -74.5 56.5t-30.5 79.5q0 59 52.5 105t121.5 46q74 0 128 -66.5t54 -166.5q0 -108 -20.5 -177t-71.5 -133q-51 -67 -115.5 -114t-115.5 -47q-41 5 -60 32zM97 929q0 131 149 131q69 0 128 -31 q69 -36 69 -100q0 -67 -61.5 -106.5t-133.5 -39.5q-151 0 -151 146z" />
<glyph unicode="&#x3c;" horiz-adv-x="1093" d="M64 865q0 49 54 80l681 399q156 -46 156 -143q0 -51 -545 -323q179 -90 540 -274q33 -61 33 -87q0 -36 -51 -73t-90 -37q-26 0 -366 182t-376 214t-36 62z" />
<glyph unicode="=" horiz-adv-x="1185" d="M64 563q0 -10 13 87q67 15 82 16q23 0 69 -5.5t69 -5.5q54 0 164 8t166 8q28 0 83 -4t81 -4q31 0 91 16.5t91 16.5q28 0 62.5 -41t34.5 -71v-95q-778 -33 -804 -33q-202 0 -202 107zM64 934v95q786 33 796 33q67 0 133 -30q77 -39 77 -98q0 -18 -5 -43q-5 -33 -5 -44 q-67 -15 -85 -15q-15 0 -74 23q-49 20 -363 21q-143 0 -285 -44l-28 -8q-33 -10 -46 -10q-38 0 -76.5 41t-38.5 79z" />
<glyph unicode="&#x3e;" horiz-adv-x="1093" d="M64 1229q0 36 51 73t90 37q26 0 363.5 -180.5t376 -212.5t38.5 -65q0 -46 -54 -77q-189 -113 -376 -225q-320 -187 -351 -187q-46 0 -80.5 41t-34.5 87q0 15 3 25q26 64 547 323q-182 90 -540 274q-33 64 -33 87z" />
<glyph unicode="?" horiz-adv-x="1487" d="M64 1224q0 102 174 245q148 123 271 167q179 67 282 66q177 0 364 -125q204 -141 204 -307q0 -169 -199 -320q-61 -49 -369 -220q-200 -113 -200 -187q0 -20 28.5 -69t25.5 -93v-17q-31 -8 -64 -8q-79 0 -159 61q-87 67 -87 144q0 133 197 256q179 102 361 202 q195 123 195 251q0 97 -79 156q-72 51 -174 51q-95 0 -255 -76.5t-232 -153.5q97 -23 97 -85q0 -49 -55 -89.5t-106 -40.5q-67 0 -143.5 64t-76.5 128zM348 123q0 46 46 80.5t95 34.5q59 0 129.5 -38.5t70.5 -89.5q0 -38 -72 -77q-61 -36 -108 -36q-49 0 -105 38.5t-56 87.5 z" />
<glyph unicode="@" horiz-adv-x="2255" d="M148 596q0 279 95 486.5t237 343.5t304.5 202.5t300.5 66.5q189 0 371 -73t325.5 -194.5t230.5 -279t87 -326.5q0 -195 -51 -329.5t-130.5 -219t-176.5 -122.5t-190 -38q-74 0 -133 24t-98.5 62.5t-60 89.5t-20.5 105q0 61 9 107.5t32 130.5q13 44 47.5 60.5t116.5 16.5 q20 0 34 -7.5t20 -17.5q8 -10 7 -26q-15 -23 -25.5 -50t-25.5 -83q-8 -28 -10.5 -75.5t11.5 -92.5t47.5 -78t100.5 -33q49 0 89.5 60t70 149.5t45 197t15.5 205.5q0 125 -51.5 239t-139.5 199.5t-204.5 137t-244.5 51.5q-77 0 -161.5 -19.5t-169 -64t-160 -117.5 t-134.5 -182t-93.5 -255t-34.5 -335q0 -243 63 -386.5t157.5 -217.5t204.5 -96t205 -22q115 0 211 16.5t173 42.5t135.5 56.5t99.5 58.5q10 8 22 19.5t23.5 18t23 4t21.5 -20.5q18 -36 27 -74.5t5 -74.5t-20.5 -66.5t-49.5 -45.5q-105 -51 -180.5 -82t-138.5 -46.5 t-125.5 -20.5t-139.5 -5q-174 0 -352 60t-321.5 185.5t-234.5 319t-91 461.5zM706.5 449q-7.5 96 5.5 196q15 125 57.5 222.5t100 164t125 101t134.5 34.5q49 0 106.5 -28t108.5 -66.5t91 -79t55 -66.5q13 -23 19.5 -54t7.5 -60.5t0 -56t-1 -44.5q0 -10 -3 -25.5t-10.5 -31 t-23 -25.5t-40.5 -10q-59 0 -104 26.5t-40 77.5q31 259 -115 259q-72 0 -143.5 -64t-99.5 -220q-36 -189 -8 -303t131 -114q41 0 79.5 35.5t67.5 83t49.5 95t26.5 67.5l122 -18q-3 -20 -36 -90.5t-86.5 -146t-124 -135.5t-144.5 -60q-102 0 -166.5 46t-99 120t-42 170z" />
<glyph unicode="A" horiz-adv-x="1546" d="M64 102q0 18 46 144q51 182 166 545q343 940 571 940q223 0 343 -497q54 -223 100 -684q67 -15 85 -25q41 -23 41 -72q0 -123 -110 -125q13 -59 56 -159q-3 -56 -46.5 -92t-102.5 -36q-46 0 -107 28q-33 67 -33 159q0 23 2.5 66.5t2.5 63.5q0 -18 -85 -18 q-143 0 -340 -12q-282 -15 -306 -43.5t-32 -274.5q-32 -48 -83 -48h-2q-54 0 -110 44.5t-56 95.5zM402 499q82 18 243 44q92 11 231 11q82 0 181 -4q-113 893 -202 894q-72 0 -251 -420q-128 -302 -202 -525z" />
<glyph unicode="B" horiz-adv-x="1456" d="M64 223q0 79 77 89v5q0 49 2 151q3 95 3 154v18q-54 33 -54 77q0 49 49 84v784q0 41 44.5 83t85.5 42q56 0 77 -15q26 -28 51 -57l-20 -115q177 238 448 238q215 0 338 -156q112 -140 112 -357q0 -129 -53 -257q-54 -136 -144 -215q251 -80 251 -300q0 -84 -41 -156 q-184 -315 -635 -315q-118 0 -271 33q-28 -79 -95 -79q-123 0 -123 102v18v18q0 23 -7 28q-33 15 -64 33.5t-31 64.5zM371 346q0 -54 3 -93q125 -51 276 -51q138 0 282 77q166 88 166 213q0 100 -248 130q-102 10 -338 10q-84 0 -138 -5q-3 -67 -3 -123v-158zM381 819h139 q269 0 384 80q140 99 140 355q0 315 -227 315q-164 0 -305 -217q-131 -197 -131 -369v-164z" />
<glyph unicode="C" horiz-adv-x="1438" d="M64 722q0 271 84 509q95 271 280 425q146 120 296 121q218 0 331 -190q92 -154 92 -386q0 -105 -54 -264q-64 -195 -143 -195q-90 0 -136 113q26 18 72 59q51 56 51 220q0 159 -33 269q-51 166 -169 166q-82 0 -179 -105q-74 -79 -126 -176q-125 -246 -125 -612 q0 -532 399 -533q172 0 271 98q41 44 121 181q54 100 115 100q41 0 71.5 -32t30.5 -70q0 -49 -25 -118q-64 -169 -241 -266q-161 -87 -353 -87q-315 0 -484 238q-146 207 -146 535z" />
<glyph unicode="D" horiz-adv-x="1423" d="M64 374q0 205 11.5 614.5t11.5 614.5q0 5 -2.5 17.5t-2.5 20.5q0 46 33 74t80 28q63 0 113 -46q40 -37 40 -84q0 -11 -2 -23q131 192 371 192q292 0 448 -220q133 -195 133 -500q0 -402 -184 -724q-220 -384 -592 -384q-133 0 -230 54q-54 -49 -105 -49q-31 0 -72 33 q-51 143 -51 382zM302 381q0 -240 200 -240h2q182 0 331 187q123 159 169 361q40 182 40 384q0 522 -307 522q-125 0 -248 -128q-108 -113 -147.5 -244.5t-39.5 -290.5v-551z" />
<glyph unicode="E" horiz-adv-x="1377" d="M64 571q0 492 26 778q3 38 2 41q0 18 -5 52.5t-5 49.5q0 118 128 139q197 36 394 74q259 49 387 49q74 0 130 -26q77 -36 77 -100q0 -95 -125 -95q-15 0 -47.5 4t-47.5 4q-207 0 -566 -92q-20 -3 -38 -8t-26 -38q-28 -123 -28 -481q0 -54 49 -54q67 0 192 33t192 33 q74 0 171 -46q26 -82 26 -100q0 -64 -38.5 -69t-82.5 -10q-20 13 -56 13q-90 0 -215 -23q-105 -23 -212 -44q-15 -3 -27 -5t-17 -30q-5 -46 -5 -75q0 -197 8 -235q26 -148 140 -149q97 0 284 60.5t298 60.5q174 0 225 -90q0 -44 -18 -77q-22 -43 -60 -43h-2q-10 0 -29 3.5 t-29 3.5q-110 0 -319 -66.5t-319 -66.5q-412 0 -412 625z" />
<glyph unicode="F" horiz-adv-x="1280" d="M64 1526q0 41 49 61q8 5 82 26q-3 23 -3 36q0 87 87 87q49 0 151 -80q404 69 561 69q74 0 133 -25q74 -33 74 -97q0 -92 -123 -93q-15 0 -47 4t-48 4q-102 0 -261 -38q-207 -51 -258 -59q-18 -125 -36 -249q-20 -151 -21 -250q0 -80 39 -80h2l18 3q207 18 287 18 q182 0 261 -113q0 -107 -78 -107h-1q-15 0 -44.5 7.5t-45.5 7.5q-33 0 -94 2h-95q-136 0 -215 -15q-41 -10 -49 -24t-11.5 -64t-3.5 -99q0 -300 20 -325q38 -56 39 -74q0 -36 -42.5 -70.5t-78.5 -34.5q-90 0 -117 54q-54 97 -54 376q0 154 29.5 458.5t29.5 457.5 q0 113 -18 113q-5 0 -16.5 -2.5t-17.5 -2.5q-31 0 -57.5 41t-26.5 77z" />
<glyph unicode="G" horiz-adv-x="1410" d="M64 755q0 353 151 640q182 351 502 351q159 0 276 -74q131 -84 162 -231q26 -120 25 -115q0 -338 -153 -338q-46 0 -84.5 31t-38.5 77q0 26 26.5 74.5t26.5 76.5q0 146 -35 199q-46 74 -182 75q-138 0 -256 -172q-97 -143 -128 -299q-31 -166 -31 -308q0 -241 39 -348 q61 -174 248 -228q56 -15 92 -15q92 0 195 77q90 72 138 161q28 54 33 136l-10 7q-182 0 -282 -43q-31 -15 -61 -33q-41 -18 -64 -18q-64 0 -100 53.5t-36 120.5q0 56 59 92q38 20 241 49q184 23 258 23q210 0 210 -259q0 -223 -194.5 -397t-419.5 -174q-325 0 -482 254 q-125 207 -125 555z" />
<glyph unicode="H" horiz-adv-x="1617" d="M64 722q0 31 33.5 42.5t63.5 21.5q3 33 11 120q7 66 7 108v10q0 451 49 573q41 100 141 100q61 0 115 -39.5t54 -98.5q0 -31 -21 -77q-28 -61 -31 -71q-69 -215 -69 -512v-59q23 3 121 20q302 61 568 62q8 376 20 486q44 369 177 369q79 0 130.5 -60.5t51.5 -139.5 q0 -23 -36 -51t-41 -41q-61 -115 -61 -435v-59l2 -100q8 3 18 2q38 0 73 -43.5t35 -84.5q0 -31 -49 -43q-38 -8 -77 -15q3 -120 5 -244q5 -156 34 -233q20 -64 20 -84q0 -51 -38.5 -93.5t-89.5 -42.5q-97 0 -128 103q-5 20 -23 179q-5 56 -5 136v104q-3 105 -13 172 q-148 -5 -353 -44q-177 -33 -351 -66q10 -33 10 -277q0 -195 59 -256q8 -13 8 -25q0 -67 -103 -67q-95 0 -148 59q-33 36 -64 533q-49 10 -77 58.5t-28 102.5z" />
<glyph unicode="I" horiz-adv-x="519" d="M90 914q0 105 3.5 316t3.5 319q0 59 61.5 112.5t120.5 53.5q46 0 100 -38t54 -82q0 -13 -23 -56q-10 -20 -21 -116q-54 -573 -54 -1006q0 -113 21 -181q18 -59 74 -162q3 -5 3 -15q0 -54 -126 -54h-23q-131 3 -159 210q-35 246 -35 675v24z" />
<glyph unicode="J" horiz-adv-x="1400" d="M26 566q0 67 30 148q38 100 92 100q84 0 128 -79q38 -64 39 -154q0 -28 -2.5 -83t-2.5 -81q0 -72 67.5 -148.5t139.5 -76.5q261 0 261 699q0 123 -20 522q-31 -8 -162 -74q-118 -61 -143 -62q-51 0 -84.5 43.5t-33.5 95.5q0 84 177 143q128 38 253 77q26 97 116 97 q26 0 97 -43q20 3 62.5 13t65.5 10q59 0 115 -36t56 -92q0 -90 -102 -90q-23 0 -65 5t-66 5q-33 0 -33 -25q0 -36 4 -110.5t4 -112.5q0 -1288 -487 -1288q-195 0 -355 205q-151 192 -151 392z" />
<glyph unicode="K" horiz-adv-x="1538" d="M64 1004q0 466 33 647q20 108 118 108q61 0 138 -49t77 -105q0 -38 -23 -51t-41 -23q-18 -20 -41 -356q-15 -261 -20 -399q688 944 865 944q29 0 64 -15q28 -36 54 -74q33 -46 33 -82q0 -33 -24.5 -57.5t-57.5 -24.5q-20 0 -54 15l-7 8q-61 -8 -249.5 -233t-188.5 -294 q0 -148 171 -425q179 -294 315 -295q18 0 68 22t83 22q95 0 95 -82q0 -69 -84 -110q-69 -31 -146 -31q-356 0 -717 666q-215 -248 -215 -338q0 -236 59 -336l7 -71q-56 -64 -112 -64q-84 0 -142 134t-58 949z" />
<glyph unicode="L" horiz-adv-x="1175" d="M64 525q0 151 24.5 448t24.5 448q0 28 -5.5 89.5t-5.5 92.5t6 69q51 61 125 61q72 0 110 -92q31 -72 31 -154q0 -174 -33.5 -517t-33.5 -514q0 -302 172 -302q77 0 220 52.5t220 52.5q72 0 110 -64q31 -51 31 -128q-276 -100 -584 -100q-241 0 -338 169q-74 131 -74 389z " />
<glyph unicode="M" horiz-adv-x="1789" d="M64 440q0 182 20.5 543t20.5 540q0 20 -20.5 43.5t-20.5 43.5q0 143 256 144q59 0 141 -75q8 -79 25 -240q26 -225 121 -597q125 -478 217 -478q20 0 54 79q64 154 126 433q46 223 92 445q20 105 74 302q54 146 225 146q61 0 149 -28q105 -36 105 -85q0 -36 -23 -59 q-38 -44 -41 -46q-15 -26 -31 -133q-64 -522 -64 -1031q0 -287 102 -323v-69q-31 -64 -94 -64q-131 0 -198 228q-48 158 -48 331v7q0 387 20 645q-77 -300 -156 -602q-143 -466 -276 -466q-151 0 -267 274q-108 248 -263 835q-15 -174 -16 -356q0 -376 21 -545 q3 -31 29.5 -99t26.5 -106q0 -84 -141 -85q-166 0 -166 448z" />
<glyph unicode="N" horiz-adv-x="1420" d="M64 369q0 44 2.5 129.5t2.5 128.5q0 105 25.5 312.5t25.5 312.5v312q0 5 -3.5 15.5t-3.5 15.5q0 51 69 84q56 28 112 29q131 0 187 -85q15 -28 28 -118q8 -61 16 -125q31 -182 161 -584q156 -473 233 -473q28 0 28 71q0 20 -6.5 66.5t-6.5 71.5l26 694q8 156 54 307 q67 212 179 213q36 0 100 -46q2 -13 2 -23q0 -28 -23 -72q-28 -56 -33 -69q-74 -233 -74 -381l-8 -735q-3 -113 -51 -231q-64 -148 -159 -148q-141 0 -279 235q-100 174 -202 482q-59 200 -120 399q-54 -435 -54 -584q0 -328 39.5 -376.5t39.5 -71.5q0 -49 -51 -85.5 t-102 -36.5q-72 0 -118 151q-36 118 -36 215z" />
<glyph unicode="O" d="M64 742q0 379 182 669q210 340 568 340q315 0 502 -294q161 -254 161 -589q0 -369 -182 -625q-202 -289 -555 -289q-100 0 -215 38q-256 82 -366 284q-95 174 -95 466zM292 671q0 -49 20 -136q44 -197 131 -284q100 -102 292 -103q261 0 394 254q102 200 102 489 q0 532 -343 637q-36 10 -82 11q-143 0 -286 -128q-228 -207 -228 -740z" />
<glyph unicode="P" horiz-adv-x="1423" d="M64 433q0 44 11.5 130.5t11.5 132.5v174q-1 14 -1 31q0 74 11 196q13 150 13 221v231q0 5 -26 138q67 61 126 61q69 0 110 -49.5t41 -121.5q0 -18 -3 -36q169 223 428 223q243 0 384 -182q125 -164 125 -415v-53q3 -36 3 -54q0 -56 -8 -100q-100 -591 -560 -591 q-236 0 -423 120v-54v-27q0 -150 31 -208q49 -90 49 -103q0 -51 -40 -89.5t-91 -38.5q-115 0 -156 82q-23 49 -31 182q-5 87 -5 200zM323 909q0 -356 358 -356q192 0 282 166q51 92 97 336q8 49 8 46q0 177 -54 302q-74 169 -228 169q-197 0 -338 -241q-125 -210 -125 -422z " />
<glyph unicode="Q" horiz-adv-x="1607" d="M64 765q0 381 174 663q205 330 563 331q315 0 507 -292q167 -256 167 -589q0 -492 -279 -747q161 -220 212 -364q-23 -107 -111 -107h-2q-64 0 -163.5 184t-120.5 184q-10 0 -66.5 -20.5t-63.5 -20.5q-46 -13 -131 -13q-348 0 -525 228q-161 207 -161 563zM292 740 q0 -253 100 -407q120 -179 361 -179q46 0 105 15q-79 49 -157 97q-107 68 -107 125q0 52 49 85q41 28 94 28q79 0 323 -210q179 198 179 587q0 243 -87 419q-113 228 -333 228q-189 0 -345 -194q-138 -174 -169 -374q-13 -97 -13 -220z" />
<glyph unicode="R" horiz-adv-x="1630" d="M64 671q0 95 172 135q10 79 17 218q5 156 13 218q15 82 39 245h-21h-6q-96 0 -96 90q0 79 61 100q44 13 87 25q51 46 80.5 60.5t93.5 14.5q46 0 46 -41q0 -13 64 -13q300 0 510 -120q258 -145 258 -421q0 -214 -133 -353q-90 -95 -317 -212q182 -115 361 -230 q205 -154 205 -338v-5v-13q-38 -56 -95 -57q-44 0 -74 39q-23 92 -339.5 299.5t-418.5 207.5h-46q-36 -3 -49 -3v-100q0 -51 13 -135q13 -102 28 -126q46 -61 46 -77q0 -46 -35.5 -75.5t-82.5 -29.5q-97 0 -151 70q-51 61 -51 506q-54 0 -112 34q-67 41 -67 87zM471 786 q148 -51 184 -51q31 0 90 18q169 51 276 156q126 120 126 281q0 164 -167 249q-133 69 -312 69q-23 0 -110 -8v-10q0 -94 -49 -307q-28 -136 -38 -397z" />
<glyph unicode="S" horiz-adv-x="1295" d="M64 228q0 46 33.5 79t79.5 33q69 0 128 -56q100 -84 107 -92q90 -51 323 -51q207 0 207 95q0 79 -194 220l-272 174q-174 118 -253 222q-105 138 -105 318q0 225 138 402q147 194 367 194h2q189 0 319.5 -103.5t166.5 -290.5q8 -72 31 -212q10 -41 10 -62q0 -92 -31 -156 q-38 -87 -120 -87q-46 0 -88.5 42.5t-42.5 88.5q0 33 15.5 98t15.5 99q0 345 -229 345h-1q-128 0 -215 -108.5t-87 -239.5q0 -184 220 -358q202 -136 407 -272q217 -156 217 -299q0 -156 -181 -241q-143 -69 -320 -69q-161 0 -379 72q-269 92 -269 215z" />
<glyph unicode="T" horiz-adv-x="1338" d="M51 1592q38 56 402 98q273 30 445 30h11q123 0 215 -30q133 -44 133 -134q0 -44 -27 -75.5t-68 -31.5q-23 0 -85.5 21.5t-103.5 21.5h-177q-38 0 -42 -6t-9 -50q-10 -64 -31 -192q-48 -341 -48 -769v-17q0 -297 69 -407v-69q-49 -26 -77 -26q-164 0 -213 159 q-23 77 -23 295q0 253 11 394q3 61 28 294q20 182 20 295l-2 74q-36 -3 -139 -18q-84 -13 -138 -13q-176 0 -176 104q0 45 25 52z" />
<glyph unicode="U" horiz-adv-x="1285" d="M64 750q0 118 15.5 354.5t15.5 354.5q0 20 -15.5 60t-15.5 61q0 64 102 104q79 33 157 34q87 0 87 -54q0 -28 -26 -82t-26 -84q0 -102 -25.5 -310t-25.5 -312v-318q0 -146 57 -258q69 -143 202 -144q256 0 340 471q38 220 39 684q0 169 -52 274q-15 31 -15 48 q0 46 34.5 89.5t80.5 43.5q49 0 104 -35.5t55 -81.5v-709q0 -212 -51 -451q-61 -294 -169 -407q-133 -141 -328 -141q-174 0 -304 105q-143 118 -198 320q-38 143 -38 384z" />
<glyph unicode="V" horiz-adv-x="1400" d="M64 1592q0 51 64 92q56 38 113 39q64 0 115 -47.5t51 -111.5q0 -46 -6.5 -140.5t-6.5 -140.5q0 -210 64 -505q118 -548 192 -548q49 0 95 80q120 202 218 614q94 390 94 645v5q0 59 -37 88.5t-37 34.5q0 28 64 74.5t95 46.5q54 0 94.5 -73t40.5 -132q0 -210 -66 -563 q-49 -248 -182 -610q-177 -471 -305 -471t-199 39q-156 84 -272 660q-64 389 -130 778q-5 28 -23 80q-13 13 -24.5 28t-11.5 38z" />
<glyph unicode="W" horiz-adv-x="1738" d="M90 1518q0 197 169 197q151 0 151 -69q0 -31 -19.5 -65.5t-37.5 -67.5q-33 -67 -33 -279q0 -980 151 -981q54 0 131 382q92 451 92 691q0 36 48.5 73t86.5 37q77 0 140 -53.5t70 -130.5q-51 -74 -51 -274q0 -719 136 -719q131 0 202 409q49 284 49 522q0 100 -11.5 149 t-57.5 146q-41 82 -41 123q0 61 28 112q36 64 92 64q79 0 141 -271q46 -212 46 -348q0 -292 -103 -661q-136 -484 -340 -484q-179 0 -261 228q-46 128 -69 379q-61 -289 -98 -386q-95 -264 -230 -264q-100 0 -182 84q-108 110 -161 692q-38 397 -38 765z" />
<glyph unicode="X" horiz-adv-x="1356" d="M-38 41q0 61 122 197q38 41 239.5 342t201.5 319q0 23 -225.5 330t-225.5 379q0 59 40 94.5t101 35.5q120 0 207 -123q59 -77 132 -261t109 -235q195 282 297 481q87 169 187 169q51 0 84.5 -41t38.5 -95l-479 -729q97 -169 243 -382q207 -302 266 -302q15 0 41 4t39 4 q61 -1 61 -80q0 -54 -47 -87t-104 -33q-200 0 -640 673q-20 -36 -61 -107q-74 -123 -223 -376q-31 -64 -95 -190q-41 -72 -117 -72q-192 0 -192 85z" />
<glyph unicode="Y" horiz-adv-x="1369" d="M64 1595q0 148 133 148q154 0 154 -176q0 -18 -6.5 -55t-6.5 -58q0 -108 100 -338q105 -243 189 -279q33 49 146 295q123 271 192 389q115 192 192 192q56 0 101 -34.5t53 -88.5q-28 -49 -98.5 -129.5t-95 -124t-308.5 -791.5q-241 -637 -320 -637q-69 0 -120 38 q-59 41 -59 108q0 41 46 102.5t102 217.5q41 118 82 235q-154 123 -271 377q-205 433 -205 609z" />
<glyph unicode="Z" horiz-adv-x="1623" d="M64 238q0 189 317 481l594 482q317 264 318 391q0 54 -95 54q-166 0 -372 -55t-352 -137l-134 -82q-102 -61 -130 -61q-115 0 -115 169q0 46 33 71q10 8 74 39q576 269 973 269q136 0 223 -70q49 -38 88.5 -109.5t39.5 -130.5q0 -148 -315 -428l-584 -486 q-315 -274 -315 -402q0 -51 118 -51t349.5 28t349.5 28q84 0 169 -41q100 -49 115 -123q-41 -74 -110 -74q-18 0 -55 13t-58 13h-15q-64 -5 -353 -31q-218 -20 -356 -21q-195 0 -277 36q-125 56 -125 228z" />
<glyph unicode="[" horiz-adv-x="680" d="M64 1659q0 46 54 79q46 28 92 28q10 0 28 -5t26 -5h263q38 0 39 -82q0 -87 -17 -98.5t-106 -11.5q-74 0 -90 -54q-41 -151 -41 -384v-550q0 -443 36 -640q10 -51 49 -51q28 0 83 12.5t86 12.5q23 0 23 -46q0 -82 -41 -156q-266 -33 -261 -33q-8 0 -21 2h-18 q-164 0 -164 413q0 241 5.5 722t5.5 721q0 23 -15.5 64t-15.5 62z" />
<glyph unicode="\" horiz-adv-x="1213" d="M64 1682q0 33 46 58.5t85 25.5q54 0 110 -32t79 -78q10 -46 28 -135q13 -59 74 -203q120 -294 241 -588q148 -340 300 -561q23 -28 46 -59t23 -64q0 -38 -29.5 -62.5t-68.5 -24.5q-105 0 -217 187q-49 82 -138 282l-479 1088q-8 15 -56 84q-44 61 -44 82z" />
<glyph unicode="]" horiz-adv-x="680" d="M64 -136q0 46 23 46q28 0 84.5 -12.5t84.5 -12.5q38 0 49 51q36 197 35 617v589q0 189 -10 251q-26 172 -120 171q-15 0 -44 -2h-41q-38 0 -38 112q0 82 38 82h262q10 0 28 5t25 5q49 0 99 -30.5t50 -76.5q0 -20 -15.5 -61.5t-15.5 -64.5q0 -241 5 -722t5 -721 q0 -412 -164 -413h-20q-13 -3 -18 -2q3 0 -261 33q-41 74 -41 156z" />
<glyph unicode="^" horiz-adv-x="903" d="M64 1900l3 15q54 51 176 133q141 95 190 95q51 0 361 -213q7 -20 7 -30q0 -15 -32 -46t-50 -31q-51 0 -123 46q-87 56 -117 66q-15 3 -46 13q-31 -10 -93 -38q-141 -87 -194 -87q-18 0 -50 30.5t-32 46.5z" />
<glyph unicode="_" horiz-adv-x="1180" d="M-13 -241h1214v-89h-1214v89z" />
<glyph unicode="`" horiz-adv-x="576" d="M64 1999q5 36 38.5 74.5t66.5 38.5q56 0 169 -102q84 -77 146 -157q5 -13 5 -23q0 -46 -44 -46q-69 0 -197 108q-44 36 -89 51q-59 18 -87 36z" />
<glyph unicode="a" horiz-adv-x="1095" d="M64 241q0 120 164 225q148 95 279 95h217v61v10q0 259 -158 259q-202 0 -202 -190q0 -64 -72 -64q-44 0 -91 40t-47 83q0 143 102 235.5t246 92.5q481 0 481 -653q0 -330 -20 -466q-13 -79 -108 -79q-129 0 -129 117q0 12 1 26q-128 -61 -266 -61q-133 0 -254 66 q-143 79 -143 203zM328 243q0 -82 140 -82q87 0 164 49q92 54 92 133q0 51 -76 51q-320 0 -320 -151z" />
<glyph unicode="b" horiz-adv-x="1049" d="M77 300v10l38 1446q35 55 82 55q7 0 15 -1q13 5 26 5q46 0 86 -55t40 -104q0 -110 -21 -294q-26 -212 -28 -292q74 90 192 90q141 0 253.5 -101.5t145.5 -244.5q21 -87 21 -233q0 -230 -80 -392q-102 -207 -309 -207q-67 0 -210 49q3 -18 2 -34q0 -84 -94 -84 q-69 0 -113 51q-20 23 -33 159q-13 113 -13 177zM307 486q0 -322 194 -322h1q187 0 187 435q0 348 -146 348q-123 0 -187 -176q-49 -133 -49 -285z" />
<glyph unicode="c" horiz-adv-x="1026" d="M38 410q0 197 105 440q125 292 292 292q92 0 223 -72q138 -79 161 -159q20 -69 21 -156q0 -79 -34 -179q-41 -128 -102 -128q-44 0 -82 26q-46 28 -46 69q0 3 23 59q13 26 13 140q0 95 -8 123q-15 79 -72 80q-125 0 -194 -218q-51 -161 -51 -325q0 -274 174 -274 q69 0 159 72q82 67 115 135q41 82 100 82q38 0 74 -45t36 -83q0 -79 -121 -187q-108 -100 -193.5 -125.5t-162.5 -25.5q-202 0 -316 128t-114 331z" />
<glyph unicode="d" horiz-adv-x="1034" d="M38 407q0 225 93 458q118 294 307 295q113 0 230 -100q13 120 13 614q0 46 69 46q82 0 142 -41t60 -123q0 -56 -15 -145q-20 -120 -26 -144q-8 -79 -24.5 -468t-16.5 -430q0 -246 54 -369q-44 -72 -100 -72q-59 0 -105 45t-51 104q-120 -110 -246 -110q-187 0 -289 130 q-95 118 -95 310zM266 384q0 -238 138 -238q143 0 208 212q43 144 43 331q0 87 -38 158q-49 87 -128 87q-115 0 -177 -227q-46 -164 -46 -323z" />
<glyph unicode="e" horiz-adv-x="972" d="M38 417q0 184 90 410q110 276 266 276q141 0 303.5 -125.5t162.5 -260.5q0 -169 -151 -269q-133 -90 -317 -90q-36 0 -116 44q10 -243 144 -243q113 0 221.5 64t139.5 64q110 -1 110 -62q0 -128 -174 -199q-136 -56 -284 -57q-394 0 -395 448zM307 663q0 -49 33.5 -79.5 t84.5 -30.5q187 0 187 156q0 64 -37 121.5t-99 57.5q-84 0 -130 -74q-38 -64 -39 -151z" />
<glyph unicode="f" horiz-adv-x="819" d="M13 768q0 79 66 102q36 10 133 11q8 26 8 156q0 264 85 458q115 256 345 256q115 0 190 -51q82 -61 82 -169q0 -44 -42.5 -72t-85.5 -28q-33 0 -72 31q-3 51 -20.5 65t-74.5 14q-110 0 -159 -276q-26 -159 -28 -366h31q23 3 33 2q108 0 154 -84l-23 -98q-47 -25 -160 -25 h-9q-20 0 -33 -3q-8 -84 -8 -184v-233q0 -136 41 -279q-100 -56 -146 -56q-61 0 -97 94q-31 74 -31 149q0 46 10 491q-84 -8 -79 -7q-44 0 -77 28t-33 74z" />
<glyph unicode="g" horiz-adv-x="1041" d="M51 -384q0 113 105 113q49 0 67 -29q33 -51 44.5 -61t83 -24t100.5 -14q230 0 230 289q0 84 -8 143q-109 -94 -260 -94h-3q-64 0 -143.5 35.5t-120.5 84.5q-79 92 -79 274q0 218 99 479q123 320 300 320q108 0 205 -100q72 -95 143 -187q20 -26 64 -46q54 -26 69 -39 q-5 -64 -33 -225q-26 -141 -26 -225q0 -77 8 -230.5t8 -230.5q0 -159 -31 -236q-36 -97 -136 -157t-207 -60q-113 0 -279 61q-200 72 -200 159zM307 353q0 -251 131 -251q123 0 194 200q57 154 57 305q0 38 -36 64q-15 235 -163 235h-1q-84 0 -141 -238q-41 -182 -41 -315z " />
<glyph unicode="h" horiz-adv-x="954" d="M64 136l15 1479q0 8 -2.5 21t-2.5 18q0 92 103 92q49 0 112.5 -45t63.5 -91q0 -56 -24 -166t-24 -167q0 -72 5 -227q56 33 94 33q100 0 218 -49q151 -64 210 -207q44 -108 44 -297v-571q-49 -49 -128 -49q-54 0 -111 67q3 225 3 348q0 568 -166 568q-172 0 -172 -458 q0 -26 3 -74v-74q0 -38 12.5 -116.5t12.5 -116.5q0 -33 -39.5 -60t-72.5 -27q-64 0 -109 52.5t-45 116.5z" />
<glyph unicode="i" horiz-adv-x="417" d="M38 596q0 253 21 425q-3 13 -3 26q0 46 72 46q64 0 128 -25q82 -28 82 -82q0 -46 -20.5 -130.5t-20.5 -131.5v-527q0 -49 28 -153q-38 -59 -84 -59q-161 0 -177 161q-26 300 -26 450zM46 1375q0 56 39.5 92t98.5 36q69 0 123 -45t54 -114q0 -56 -38.5 -92t-94.5 -36 q-67 0 -124.5 46t-57.5 113z" />
<glyph unicode="j" horiz-adv-x="552" d="M-420 -461q0 92 105 92q28 0 59 -12q108 -128 259 -128q215 0 215 391q0 13 -18 1091l41 48q87 23 120 23q59 0 120 -61q-56 -156 -56 -241q0 -164 7.5 -495t7.5 -498q0 -187 -97 -322q-108 -151 -287 -151q-95 0 -276 89q-200 95 -200 174zM177 1257q0 123 128 123 q72 0 128 -46t56 -115q0 -56 -47.5 -93.5t-103.5 -37.5q-28 0 -85 46q-46 38 -71 69q-5 26 -5 54z" />
<glyph unicode="k" horiz-adv-x="1072" d="M51 1649q0 49 59 87q51 36 102 36q38 0 83 -29.5t45 -65.5q0 -10 -15 -71.5t-15 -189.5q0 -41 -8 -684q10 10 277 254q220 205 258 204q131 0 131 -154v-12v-26q-110 -64 -284 -202q-220 -172 -221 -228q0 -5 139 -161q131 -148 163 -184q154 -161 287 -220v-82 q-97 -72 -153 -72q-74 0 -215 154q-100 108 -198 217q-56 67 -179 187l-7 -5v-225q0 -20 16.5 -60t16.5 -63q0 -36 -37 -63t-76 -27q-67 0 -110 43.5t-43 110.5v338q0 31 8.5 93.5t8.5 93.5v688q0 156 -23 251q-10 44 -10 67z" />
<glyph unicode="l" horiz-adv-x="412" d="M51 1710q84 56 133 56q56 0 107.5 -37t51.5 -93q0 -28 -13 -67q-18 -61 -20 -66q-33 -159 -34 -451v-476q8 -323 54 -451q13 -36 13 -56q0 -46 -37 -78t-86 -32q-161 0 -161 422q0 192 4 576t4 576q0 31 -8 90t-8 87z" />
<glyph unicode="m" horiz-adv-x="1466" d="M64 274v558q0 61 31 164q38 123 82 123q51 0 92 -40q37 -36 37 -80q0 -5 -1 -11q74 123 192 123q146 0 238 -195q49 115 87 159q64 74 158 74q95 0 192 -99q169 -172 169 -587v-458q-87 -54 -133 -54q-33 0 -102 36q0 41 2 141q3 90 3 141q0 681 -113 681 q-84 0 -135 -208q-38 -151 -39 -279v-235q0 -18 11.5 -52.5t11.5 -52.5q0 -41 -43.5 -73t-84.5 -32q-44 0 -87 43.5t-43 84.5v476q0 289 -64 289q-10 0 -44 -48q-181 -245 -181 -525q0 -44 10 -122t10 -116q0 -51 -32 -84.5t-83 -33.5q-59 0 -95 41q-13 18 -31 120 q-15 95 -15 131z" />
<glyph unicode="n" horiz-adv-x="1090" d="M64 1001q0 41 47.5 78t85.5 37q56 0 115 -64l-7 -102q95 151 233 151q90 0 189.5 -61.5t145.5 -138.5q105 -195 105 -512v-371q-38 -59 -95 -59q-44 0 -143 51v31q0 56 4 166t4 162q0 547 -163 547h-1q-46 0 -105 -71q-182 -220 -182 -530q0 -44 16.5 -129.5t16.5 -129.5 q0 -36 -33 -59t-72 -23q-154 0 -153 195v535q0 20 5 60t5 60q0 31 -9 90t-9 87z" />
<glyph unicode="o" horiz-adv-x="1062" d="M51 445q0 230 115 436q133 243 346 243q67 0 166 -59q287 -172 287 -561q0 -230 -115 -394q-133 -187 -353 -187q-225 0 -341 154q-105 136 -105 368zM294 451q0 -340 203 -341q131 0 194 141q49 107 49 258q0 392 -190 392q-136 0 -204 -166q-51 -125 -52 -284z" />
<glyph unicode="p" horiz-adv-x="1041" d="M64 225q0 84 10 231q10 164 13 228q1 32 1 74t-1 94q-3 133 -3 172q0 218 144 218q36 0 66.5 -24.5t30.5 -57.5q0 -56 -13 -205q100 141 241 141q189 0 292 -154q89 -133 89 -333q0 -261 -92 -443q-115 -235 -346 -235h-2q-125 0 -215 72v-77v-77q0 -246 56 -387 q26 -56 26 -71q0 -87 -102 -87q-77 0 -116 28q-28 18 -56 128q-23 97 -23 148v617zM282 279q28 -15 99 -107q56 -69 113 -70q213 0 213 530q0 276 -118 277q-51 0 -133 -100q-159 -192 -174 -530z" />
<glyph unicode="q" horiz-adv-x="1024" d="M51 387q0 218 92 440q115 279 300 279q105 0 194 -77q72 -77 146 -153q15 3 21 2q125 0 125 -110q0 -8 -48 -136q-61 -166 -62 -780q0 -361 108 -395v-102q-84 -41 -121 -41q-212 0 -212 625v35q-88 -43 -197 -43h-5q-179 0 -267 143q-74 120 -74 313zM276 361 q0 -261 134 -261q230 0 230 532q0 44 -36 67q13 44 13 66q0 36 -50 88.5t-86 52.5q-113 0 -169 -225q-36 -148 -36 -320z" />
<glyph unicode="r" horiz-adv-x="819" d="M51 963q0 115 138 115q82 0 113 -49q72 79 161 79q61 0 118 -33q38 -20 89.5 -88t51.5 -106q0 -18 -5 -57q-53 -76 -111 -76h-2q-49 0 -87 56q-5 115 -82 115q-46 0 -112 -243q-31 -108 -31 -300q0 -182 18 -220q20 -49 20 -66q0 -44 -39.5 -71t-88.5 -27 q-138 0 -138 128q0 13 6.5 36t6.5 33q0 131 -13 388.5t-13 385.5z" />
<glyph unicode="s" horiz-adv-x="1008" d="M38 172q0 112 159 112h3q23 0 48 -2q8 -77 123 -123q85 -35 165 -35q14 0 27 1q74 5 74 54q0 8 -3.5 23.5t-3.5 24.5t-98 39q-110 33 -122 39q-292 174 -292 419q0 148 84 274q95 138 236 139q105 0 239.5 -82t164.5 -177q20 -67 21 -110q0 -46 -13 -77q-15 -38 -31 -77 q-49 -33 -97 -33q-26 0 -86 32t-60 55q0 10 31 67q18 33 18 56q0 154 -121 154q-72 0 -110 -93q-28 -72 -28 -153q0 -102 146 -184q133 -59 269 -121q146 -66 146 -135q0 -120 -103 -210q-113 -97 -302 -98h-12q-77 0 -164 34q-307 115 -308 187z" />
<glyph unicode="t" horiz-adv-x="760" d="M38 888q0 10 6 23q67 95 148 95h15q10 -3 16 -2q51 0 51 112v13v187q-15 28 -15 48q0 33 39.5 60.5t75.5 27.5q54 0 102.5 -50t48.5 -107q1 -61 -19 -121q-17 -52 -17 -107v-17v-11q200 -21 200 -123q0 -69 -213 -97q-5 -56 -5 -256v-169q0 -51 16.5 -151t16.5 -148 q0 -41 -41 -73t-82 -32q-64 0 -107 110q-33 84 -33 164v542q-118 18 -136 23q-67 20 -67 59z" />
<glyph unicode="u" horiz-adv-x="939" d="M38 466q0 82 6 287q6 132 6 222q0 34 -1 62q77 56 128 56q123 0 123 -120q0 -41 -12 -123t-12 -123v-361q0 -61 34 -128q41 -77 97 -77q110 0 164 141q36 97 36 236v307q0 59 -31 146q64 59 123 59q61 0 111 -38.5t50 -97.5q0 -79 -19 -239t-19 -242q0 -72 7 -214t6 -211 q0 -59 -100 -59q-102 0 -131 100q-97 -64 -189 -64q-74 0 -169 39.5t-133 95.5q-74 108 -75 346z" />
<glyph unicode="v" horiz-adv-x="998" d="M38 996q0 41 37.5 73t78.5 32q49 0 151 -74q-18 -59 -18 -100q0 -138 67.5 -361t147.5 -336v-7q92 0 143 348q36 238 36 435q0 38 39.5 66.5t78.5 28.5q117 -1 117 -121q0 -184 -117 -563q-138 -435 -269 -435q-187 0 -333 366q-90 228 -146 533q-13 74 -13 115z" />
<glyph unicode="w" horiz-adv-x="1418" d="M38 742q0 169 13 274q36 56 95 57q51 0 103.5 -33.5t52.5 -79.5q0 -33 -16.5 -98.5t-16.5 -98.5q0 -563 120 -563q125 0 164 312q13 118 13 412q0 97 112 97q125 0 126 -140q0 -13 -4 -36t-4 -33v-290q0 -322 117 -322h1q100 0 151 235q38 164 38 320q0 133 -12 156 q-3 5 -29 31q-15 20 -15 38q0 46 41 83.5t87 37.5q69 0 110 -123q33 -94 33 -184q0 -230 -84 -477q-110 -322 -291 -322h-1q-172 0 -284 212q-77 -225 -243 -225q-212 0 -310 292q-67 200 -67 468z" />
<glyph unicode="x" horiz-adv-x="1192" d="M38 -13q0 84 382 543q-8 36 -128 205q-108 154 -156 207q46 120 164 120q87 0 161 -133q51 -102 102 -205q312 369 382 369q49 0 84.5 -36t35.5 -82q0 -44 -194.5 -226.5t-194.5 -210.5q0 -31 153.5 -210.5t176.5 -179.5q26 0 97 18v-92q0 -38 -56 -70t-100 -32 q-115 0 -238 141q-87 118 -174 238q-115 -131 -315 -520q-182 38 -182 156z" />
<glyph unicode="y" horiz-adv-x="1047" d="M38 -366q0 36 29.5 60t65.5 24q23 0 110 -69t200 -69q143 0 192 105q36 72 36 231q0 59 -3 97q-84 -56 -189 -57q-192 0 -297 139q-95 125 -95 320q0 20 26 645q77 33 123 33q51 0 151 -61q-61 -154 -62 -615q0 -294 149 -294q110 0 169 184q43 130 43 271v6v312 q0 -3 -8 84q105 51 157 52q54 0 128 -49q-23 -128 -44 -253q-26 -148 -26 -254v-696q0 -189 -108.5 -289t-298.5 -100q-123 0 -271 64q-177 74 -177 179z" />
<glyph unicode="z" horiz-adv-x="983" d="M38 133q0 95 118 251q72 92 243 274q164 169 205 228l-13 2q-128 0 -254.5 -78t-134.5 -78q-49 0 -82 37t-33 86q0 87 264 166q223 64 345 64h3q202 0 202 -135q0 -56 -20 -92q-13 -23 -54 -64q-151 -151 -300 -302q-207 -220 -243 -320q23 -3 44 -3q59 0 176.5 20.5 t176.5 20.5q164 0 220 -133l-43 -54h-70h-18q-90 -1 -248 -27q-174 -30 -258 -29q-84 0 -149 41q-77 46 -77 125z" />
<glyph unicode="{" horiz-adv-x="901" d="M0 786q0 36 56 61q31 13 92 41q105 64 128 213q3 13 13 261q8 259 118 363.5t371 104.5q77 0 77 -56q0 -46 -64 -87q-256 -13 -256 -212q0 -46 5 -137t5 -135q0 -284 -169 -417q169 -136 169 -417q0 -46 -5 -136t-5 -136q0 -200 253 -212q41 -20 41 -64q0 -41 -41 -77 h-97q-269 0 -345 172q-38 82 -49 368q-8 251 -95 348q-36 41 -146 92q-56 26 -56 62z" />
<glyph unicode="|" horiz-adv-x="437" d="M64 1710q84 56 133 56q56 0 107.5 -37t51.5 -93q0 -28 -13 -67q-18 -61 -20 -66q-33 -159 -34 -451v-476q8 -323 54 -451q13 -36 13 -56q0 -46 -37 -78t-86 -32q-161 0 -161 422q0 192 3.5 576t3.5 576q0 31 -7.5 90t-7.5 87z" />
<glyph unicode="}" horiz-adv-x="901" d="M0 -187q0 41 64 74q256 13 256 213q0 46 -6.5 137t-6.5 134q0 264 195 417q-192 154 -192 418q0 46 5 135.5t5 135.5q0 200 -253 213q-54 26 -54 76q0 64 54 64h97q269 0 345 -171q38 -82 49 -369q8 -251 95 -348q41 -49 146 -92q48 -20 48 -46q0 -36 -48 -77 q-166 -51 -210 -197q-18 -64 -21 -156q-3 -82 -2 -162q-10 -259 -119 -363.5t-370 -104.5h-13q-64 26 -64 69z" />
<glyph unicode="~" horiz-adv-x="1154" d="M79 750q0 31 43.5 72t101.5 76.5t116.5 61.5t89.5 26q49 0 87.5 -18t70.5 -41t64 -41t67 -18q23 0 54 18t64 41t63 41t45 18q41 0 65 -22t24 -65q0 -33 -42 -75.5t-99.5 -79.5t-114 -63t-87.5 -26q-46 0 -92 17t-87 37.5t-74.5 37t-50.5 16.5q-23 0 -52.5 -15.5 t-56.5 -34.5t-45 -36l-18 -17q-136 0 -136 90z" />
<glyph unicode="&#xa1;" horiz-adv-x="704" d="M64 -443q10 20 41 67q72 115 136 773q13 133 12 110q0 26 -46 200q23 20 69 58q31 5 62 6q51 0 95 -23q41 -77 41 -172q0 -215 -46 -443q-54 -269 -54 -312q0 -59 23 -144q20 -69 38 -138q-92 -79 -187 -79q-84 0 -184 97zM156 1004q0 215 248 215q44 0 175 -52 q30 -64 30 -120q0 -164 -202 -164q-72 0 -151 28q-100 33 -100 93z" />
<glyph unicode="&#xa2;" horiz-adv-x="1367" d="M64 873q0 141 110 269q92 113 233 184q44 15 125 59l3 90q-13 74 -23 222v28q61 74 141 75q61 0 111 -46t50 -103q0 -41 -18 -105q-20 -74 -23 -105q49 5 67 5q110 0 245 -61q159 -74 159 -169q0 -54 -46 -83.5t-102 -29.5q-79 0 -179 68t-129 68q-33 0 -33 -26v-568 q59 13 202 92q133 72 139 72h92q38 -41 38 -85q0 -113 -182 -192q-138 -46 -279 -94q10 -205 44 -443q-87 -49 -125 -49q-69 0 -118 77q-41 64 -41 138q0 18 5 55t5 55v154q-200 33 -325 136q-146 123 -146 312zM284 845q0 -90 80 -159q71 -61 166 -66v509 q-246 -123 -246 -284z" />
<glyph unicode="&#xa3;" horiz-adv-x="1576" d="M64 837q0 87 151 87q-31 120 -31 177q0 26 6.5 77t6.5 76q0 169 184 315q174 138 351 139q123 0 284 -52q115 -38 264 -161q166 -141 166 -241q0 -64 -76.5 -128t-143.5 -64q-54 0 -102.5 33.5t-48.5 84.5q0 41 36 74.5t77 25.5q-64 102 -191 171.5t-252 69.5 q-154 0 -255 -107.5t-101 -264.5q0 -154 59 -227h399q38 0 66.5 -27t28.5 -66q0 -110 -171 -110q-38 0 -103 8q-79 13 -105 13q72 -108 72 -220q0 -54 -56 -159q-44 -74 -87 -151q72 -3 273 -10q172 -8 274 -8q177 0 205 92q54 38 97 39q38 0 70 -34q3 -23 2 -46 q0 -115 -88.5 -183t-208.5 -68q-133 0 -400.5 8t-400.5 8q-49 0 -90 29.5t-41 75.5q0 28 21 59q74 41 128 156q44 97 87 192q-8 69 -41 117.5t-72 99.5q-128 -15 -133 -15q-110 0 -110 115z" />
<glyph unicode="&#xa4;" horiz-adv-x="1377" d="M46 1260q18 59 54 96t87 37q28 0 90.5 -56.5t139.5 -146.5q51 38 111.5 61.5t126.5 23.5q72 0 136 -24.5t115 -65.5l213 203q59 -20 102.5 -62.5t43.5 -101.5q0 -26 -26 -53t-61.5 -53.5t-75.5 -52.5t-68 -51q54 -105 54 -223q0 -128 -56 -228q97 -92 165 -153.5 t68 -86.5q0 -28 -14.5 -47.5t-33.5 -31t-43.5 -16.5t-41.5 -5q-20 0 -77 42t-167 142q-51 -33 -115 -52.5t-133 -19.5q-151 0 -246 54q-44 -44 -75.5 -81t-54.5 -63.5t-41 -41t-36 -14.5q-26 0 -44 17t-30.5 40t-19 44.5t-6.5 29.5q0 18 39.5 73t126.5 150q-41 82 -41 202 q0 141 67 274q-56 59 -116.5 120.5t-116.5 120.5zM435 750q0 -115 51.5 -186.5t153.5 -71.5q115 0 180.5 88.5t65.5 213.5q0 128 -51.5 211t-143.5 83q-56 0 -102 -27t-80.5 -73t-54 -107.5t-19.5 -130.5z" />
<glyph unicode="&#xa5;" horiz-adv-x="1728" d="M64 1628q0 54 47.5 86t100.5 32q200 0 643 -673q18 36 59 107q95 156 187 310q105 182 148 328q69 54 126 53q77 0 215 -148q-49 -41 -144 -133q-41 -46 -256 -376.5t-215 -350.5v-67h287q95 0 95 -110q0 -38 -28.5 -64t-66.5 -26h-287v-79h287q95 0 95 -113 q0 -38 -28.5 -65t-66.5 -27h-287v-199q0 -54 -64 -106.5t-120 -52.5q-44 0 -99 38.5t-55 81.5q0 13 29 64q10 20 25 174h-243q-95 0 -95 116q0 38 29.5 63.5t65.5 25.5h261l5 79h-258q-95 0 -95 111q0 38 29.5 63.5t65.5 25.5h268l3 54q-100 177 -246 389q-205 300 -279 317 l-41 -23h-53q-44 54 -44 95z" />
<glyph unicode="&#xa6;" horiz-adv-x="437" d="M64 1710q82 56 133 56q56 0 107.5 -37t51.5 -93q0 -18 -5 -41t-11.5 -43.5t-9.5 -27.5l-7 -21q-18 -79 -26 -189.5t-8 -253.5q0 -33 -32 -48.5t-73 -15.5t-75.5 16.5t-34.5 47.5q0 154 2.5 273t2.5 200q0 15 -2.5 39.5t-5 50.5t-5 49t-2.5 38zM72 381v295q0 28 33 43.5 t74 15.5q44 0 77 -15.5t33 -43.5v-100q0 -161 17 -274t37 -177q13 -38 13 -56q0 -46 -37 -78t-86 -32q-161 0 -161 422z" />
<glyph unicode="&#xa7;" horiz-adv-x="1052" d="M87 -54q0 64 32 86t99 22h53q3 -33 40 -73t88.5 -74.5t105 -57.5t91.5 -23q61 0 62 28q0 -3 -33 31h2q-90 69 -179.5 142t-159.5 157.5t-113.5 184t-43.5 222.5q0 128 52.5 214t128.5 132q-164 141 -164 340q0 77 23.5 150t64 130.5t93 93.5t111.5 36q41 0 100 -24.5 t115.5 -62.5t98.5 -84.5t52 -87.5q5 -38 13 -76.5t8 -81.5q0 -95 -41 -226q-41 -33 -85 -33q-13 0 -33 10.5t-43 28.5t-41 39.5t-23 44.5q10 0 21.5 7.5t16.5 20.5q18 36 18 131q0 210 -115 210q-28 0 -52.5 -23t-42.5 -59t-28 -81t-10 -88q0 -95 117 -192q23 -20 84.5 -60 t159.5 -99q74 -44 115 -88.5t41 -77.5q0 -46 -37 -102.5t-92.5 -106.5t-123 -83t-129.5 -33q-69 0 -125 7q49 -118 152.5 -212.5t210.5 -158.5q156 -97 157 -166q0 -49 -36 -91t-91 -73t-123 -47.5t-129 -16.5q-28 0 -59 5t-68 20.5t-80.5 43.5t-100.5 72q-125 102 -125 153 zM353 637q49 -31 97.5 -43.5t99.5 -12.5q26 0 44 15.5t29.5 36t16.5 42t5 34.5t-39.5 38.5t-126.5 76.5q-44 -23 -81 -75.5t-45 -111.5z" />
<glyph unicode="&#xa8;" horiz-adv-x="803" d="M64 1915q0 46 39.5 76.5t88.5 30.5t88.5 -30.5t39.5 -76.5q0 -44 -39.5 -74.5t-88.5 -30.5t-88.5 30.5t-39.5 74.5zM448 1915q0 46 39.5 76.5t88.5 30.5t88.5 -30.5t39.5 -76.5q0 -44 -39.5 -74.5t-88.5 -30.5t-88.5 30.5t-39.5 74.5z" />
<glyph unicode="&#xa9;" horiz-adv-x="2178" d="M90 847q0 392 286 663q279 264 666 264t666 -264q286 -271 286 -663t-283 -659t-669 -267q-387 0 -666 263q-287 271 -286 663zM243 847q0 -330 243 -558q233 -220 556 -220t555 220q244 228 244 558t-244 558q-233 220 -555 221q-323 0 -556 -221q-243 -228 -243 -558z M520 760q0 276 143 505q161 256 407 256q166 0 261 -121q87 -113 87 -294q0 -82 -48 -202q-56 -128 -110 -128q-64 0 -111 79q26 20 75 69q28 33 28 141t-31 189q-46 115 -143 116q-72 0 -154 -75q-64 -56 -107 -130q-105 -177 -105 -438q0 -381 340 -381q125 0 200 48 q61 41 133 149q46 74 92 74q33 0 57.5 -21.5t24.5 -52.5q0 -156 -182 -256q-156 -84 -333 -85q-246 0 -385 152.5t-139 405.5z" />
<glyph unicode="&#xaa;" horiz-adv-x="783" d="M97 899q0 46 32 83t79.5 64t101.5 42t94 15q20 0 39.5 -1t37.5 -4v23q0 136 -71 136q-100 0 -100 -92q0 -56 -62 -57q-28 0 -62.5 29.5t-34.5 63.5q0 92 65.5 151t154.5 59q297 -1 297 -400q0 -20 1.5 -45.5t1.5 -89.5q0 -97 -17 -148.5t-81 -51.5q-49 0 -68 16.5 t-24 55.5q-33 -15 -66.5 -20.5t-66.5 -5.5q-46 0 -91 14t-80.5 39.5t-57.5 56.5t-22 67zM292 901q0 -28 61 -28q49 0 88.5 26.5t39.5 57.5q0 10 -25 11q-164 0 -164 -67z" />
<glyph unicode="&#xab;" horiz-adv-x="936" d="M13 870q0 28 31 46l281 413q20 10 39 10q36 0 57.5 -28.5t21.5 -61.5q0 -31 -18 -53l-243 -318q67 -79 135 -161q118 -154 118 -249q0 -61 -51 -61q-41 0 -67 33q-51 56 -169 220q-136 184 -135 210zM346 870q0 28 30 46l282 413q20 10 38 10q36 0 58 -28t22 -62 q0 -38 -113 -184q-74 -92 -151 -187q74 -90 148 -179q146 -197 146 -302q0 -61 -51 -62q-38 0 -66 31q-46 51 -190 256q-154 220 -153 248z" />
<glyph unicode="&#xac;" horiz-adv-x="1361" d="M49 955q0 41 32 82t73 41q20 0 54.5 -4t73 -8t72 -6.5t48.5 -2.5h545q23 0 60 6.5t89 19.5q31 -20 42 -35.5t11 -36.5v-28q0 -20 -1 -52t-1 -76v-653q0 -46 23 -146q-33 -56 -69 -56q-159 0 -159 154v698h-860q-33 59 -33 103z" />
<glyph unicode="&#xad;" horiz-adv-x="852" d="M64 724q0 74 67 75q20 0 59.5 -10.5t60.5 -10.5q54 0 162.5 5t162.5 5q159 1 177 -71q-15 -5 -16 -18q0 -8 6.5 -20.5t6.5 -20.5q0 -28 -87 -28q-18 0 -48.5 6.5t-48.5 6.5q-44 0 -132 -3t-134 -3q-236 0 -236 87z" />
<glyph unicode="&#xae;" horiz-adv-x="1123" d="M26 1262q0 200 149.5 343t362.5 143q212 0 362 -143t150 -343t-150 -343t-362 -143t-362 143t-150 343zM128 1262q0 -161 120.5 -275t289.5 -114q133 0 240 74l-30 10q-5 36 -118 113t-149 77l-28 -3v-28q0 -77 31 -115q0 -51 -49 -51q-84 0 -79 207h-5q-61 23 -62 51 q0 38 62 54q5 51 13 151q5 28 12 82q-44 0 -43 41q0 18 33 41l49 33q15 0 42 -7.5t40 -7.5q108 0 184 -44q97 -56 97 -161q0 -84 -46 -128l-112 -72q64 -44 130 -84q67 -54 72 -126q125 116 125 282q0 161 -120 275t-289 114t-289.5 -114t-120.5 -275zM451 1254 q49 -18 61 -18q61 0 115 50t54 109q0 108 -166 108h-18q-13 -38 -31 -113q-10 -49 -15 -136z" />
<glyph unicode="&#xaf;" horiz-adv-x="711" d="M64 1897q0 61 41 61h471q41 1 41 -66q0 -61 -36 -62h-476q-41 0 -41 67z" />
<glyph unicode="&#xb0;" horiz-adv-x="929" d="M64 1283q0 120 54 235q59 128 158 182q59 33 95 33q49 0 136 -38l13 -28h7q136 5 221 -103q76 -99 76 -240q0 -184 -100 -300q-105 -123 -289 -123q-172 0 -271.5 103.5t-99.5 278.5zM271 1288q0 -210 144 -210q87 0 148 82q54 77 54 164t-38 128q-26 26 -87.5 50 t-81.5 49q-56 -38 -97.5 -116t-41.5 -147z" />
<glyph unicode="&#xb1;" horiz-adv-x="1525" d="M64 18q0 49 36 88.5t82 39.5q23 0 57.5 -2.5t77.5 -7.5q44 -5 78.5 -7.5t57.5 -2.5h717q59 0 164 25q61 -36 61 -77q0 -164 -169 -163h-1124q-38 64 -38 107zM64 860q0 49 36 88.5t82 39.5t135.5 -10t135.5 -10h141v468q69 36 115 36q44 0 101.5 -33.5t57.5 -71.5 q0 -44 -20.5 -127t-20.5 -126v-146h343q54 0 164 25q61 -33 61 -77q0 -164 -169 -163h-399v-302q0 -49 28 -154q-38 -56 -84 -56q-177 0 -177 158v354h-492q-38 67 -38 107z" />
<glyph unicode="&#xb2;" horiz-adv-x="855" d="M51 968q0 38 19.5 65t77.5 73q67 51 126 111.5t102.5 120.5t69 115t25.5 96q0 23 -18 39.5t-43 16.5q-51 0 -79.5 -19t-44 -47t-21.5 -63t-16.5 -63t-29.5 -47t-55 -19q-13 0 -32 9t-37 24t-29.5 33t-11.5 34q0 61 34.5 120t88 103.5t117.5 73t123 28.5q46 0 92.5 -19.5 t81 -52.5t56 -78t21.5 -94q0 -54 -23 -114t-62.5 -117.5t-92 -111t-109.5 -94.5q67 13 133.5 19t133.5 11q46 0 76.5 -35.5t30.5 -79.5q0 -28 -25.5 -60t-61.5 -32q-13 0 -41 9t-46 9q-187 0 -366 -56q-38 -13 -51 -13q-46 0 -79.5 28t-33.5 77z" />
<glyph unicode="&#xb3;" horiz-adv-x="934" d="M51 1080q0 38 33.5 66.5t66.5 28.5q44 0 73 -36t50 -71q28 -18 97 -18q44 0 86 12.5t75.5 33t54 47.5t20.5 58q0 36 -47.5 61.5t-96.5 25.5q0 -5 -25.5 -13t-58.5 -17t-66.5 -15t-48.5 -6q-77 0 -77 79q0 18 4 37t16.5 34.5t39.5 27t70 14.5q41 3 77 18t63 38t42.5 50 t15.5 55q0 23 -26 23q-13 0 -32 -5t-41 -13t-42.5 -18t-33.5 -18q-8 -26 -28 -47.5t-43 -38t-46 -25.5t-36 -9q-36 0 -73 19t-37 55q0 33 39.5 82t101 92.5t133 74t138.5 30.5q95 0 157.5 -51t62.5 -141q0 -46 -18 -89.5t-48 -84.5q169 -62 169 -218q0 -77 -37.5 -137 t-96 -102t-131.5 -65t-143 -23q-51 0 -112.5 11.5t-115 35.5t-89.5 62.5t-36 89.5z" />
<glyph unicode="&#xb4;" horiz-adv-x="604" d="M64 1812v21q69 84 161 171q125 120 182 121q33 0 66.5 -36t41.5 -72q-18 -44 -46.5 -55t-192.5 -111q-141 -82 -179 -82q-36 0 -33 43z" />
<glyph unicode="&#xb6;" horiz-adv-x="1374" d="M64 1162q0 228 155 371.5t395 143.5h23q-3 8 -2 15q0 44 33 70.5t72 26.5q92 0 110 -128l92 -2v59q0 41 29.5 69t72.5 28q110 0 105 -187q95 -20 95 -97q0 -87 -87 -100q15 -246 15 -346q0 -113 -12 -238q41 -3 66.5 -32t25.5 -67q0 -79 -118 -105q-3 -26 -2 -54 q0 -41 10 -127t10 -127q0 -46 -9 -149.5t-9 -144.5t-26 -108q-31 -79 -64 -79q-46 0 -84 77q-31 64 -31 107v282q0 18 -5 143q-5 87 0 144q-38 0 -102 -3v-31q0 -82 6.5 -241.5t6.5 -236.5q0 -44 -29.5 -72t-73.5 -28q-90 0 -102 87q-26 159 -18 512q-241 15 -394.5 171.5 t-153.5 396.5zM282 1175q0 -184 96 -290.5t267 -108.5l21 532q-1 70 7 213q-28 3 -59 2q-159 0 -245.5 -93.5t-86.5 -254.5zM827 806l118 -2q10 133 10 320q0 218 -10 356h-100z" />
<glyph unicode="&#xb7;" horiz-adv-x="514" d="M64 801q0 56 77 87q56 20 125 21q51 0 106.5 -29.5t55.5 -75.5q0 -54 -67 -85q-54 -23 -115 -23q-54 0 -113 26q-69 31 -69 79z" />
<glyph unicode="&#xb8;" horiz-adv-x="522" d="M64 -125q0 26 46 69q33 28 67 59l133 2q-23 -28 -67 -89q92 -15 121 -26q74 -29 74 -85q0 -79 -108 -138q-51 -28 -179 -69q-67 13 -67 54q0 26 23.5 42.5t192.5 95.5q-13 8 -134 31q-102 18 -102 54z" />
<glyph unicode="&#xb9;" horiz-adv-x="412" d="M54 1480q0 54 15 107.5t38.5 96t51.5 69t53 26.5q18 0 37.5 -11.5t35 -28t25.5 -37t10 -35.5q0 -13 -2.5 -36t-10.5 -54q-20 -84 -26.5 -145.5t-6.5 -105.5v-230q0 -59 4 -82t10 -29.5t10 -9t4 -20.5q0 -36 -27 -60t-60 -24q-123 0 -123 115v471q-23 3 -38 23z" />
<glyph unicode="&#xba;" horiz-adv-x="778" d="M97 1016q0 77 23 150t61.5 132t91 94.5t111.5 35.5q51 0 96 -26.5t76 -57.5q110 -108 110 -292q0 -77 -22 -142t-60.5 -112.5t-92 -74.5t-117.5 -27q-131 0 -204 86t-73 234zM279 1021q0 -177 95 -176q59 0 91 59t32 151q0 207 -90 207q-59 0 -93.5 -69t-34.5 -172z" />
<glyph unicode="&#xbb;" horiz-adv-x="911" d="M90 1283q0 61 74 61q28 0 46 -15q33 -28 174 -225.5t141 -220.5q0 -31 -28 -46l-282 -438q-20 -10 -41 -10q-33 0 -56 28t-23 62q0 38 112 194q77 100 151 200q-77 102 -153 207q-115 164 -115 203zM445 1247q0 61 77 61q26 0 44 -15q31 -26 161 -202q131 -185 131 -208 q0 -31 -29 -46l-256 -412q-20 -10 -41 -10q-33 0 -56 28t-23 61q0 36 238 369q-246 338 -246 374z" />
<glyph unicode="&#xbc;" horiz-adv-x="1502" d="M115 1480q0 54 15 107.5t38.5 96t51.5 69t53 26.5q18 0 37.5 -11.5t35 -28t25.5 -37t10 -35.5q0 -13 -2.5 -36t-10.5 -54q-20 -84 -26.5 -145.5t-6.5 -105.5v-230q0 -59 4 -82t10 -29.5t10 -9t4 -20.5q0 -36 -27 -60t-60 -24q-123 0 -123 115v471q-23 3 -38 23zM172 90 q0 49 16.5 125.5t55 184t98.5 248t147 320.5q110 230 179 365.5t111.5 208.5t64 102.5t39.5 50.5q31 33 80 33q61 0 112 -38.5t51 -97.5q0 -36 -32 -70.5t-85 -72.5q-72 -87 -161.5 -246t-207.5 -391q-115 -228 -184 -402t-98 -292q31 -28 31 -57q0 -33 -27 -57t-62 -24 q-128 0 -128 110zM548 312q0 44 30.5 83.5t88 89.5t142 118t189.5 165q44 54 76 81t78 27t79.5 -31t33.5 -74q0 -20 -6.5 -43.5t-16.5 -43.5l-49 -300q84 0 139 -25.5t55 -82.5q0 -36 -15 -64t-59 -28l-25 8l-108 8q3 -36 10.5 -74.5t22.5 -69.5q0 -10 -3.5 -25.5t-15 -30.5 t-31 -26.5t-49.5 -11.5q-56 0 -89.5 35.5t-33.5 125.5q0 13 1 32t1 37q-82 -5 -152.5 -14t-105.5 -9q-26 0 -58 13t-61.5 34.5t-48.5 47t-19 48.5zM788 356q51 8 84.5 11.5t55.5 5t38.5 2.5t34.5 4q3 44 6.5 84.5t8.5 86.5q-61 -49 -120 -94.5t-108 -99.5z" />
<glyph unicode="&#xbd;" horiz-adv-x="1456" d="M115 1480q0 54 15 107.5t38.5 96t51.5 69t53 26.5q18 0 37.5 -11.5t35 -28t25.5 -37t10 -35.5q0 -13 -2.5 -36t-10.5 -54q-20 -84 -26.5 -145.5t-6.5 -105.5v-230q0 -59 4 -82t10 -29.5t10 -9t4 -20.5q0 -36 -27 -60t-60 -24q-123 0 -123 115v471q-23 3 -38 23zM157 90 q0 49 16.5 125.5t55 184t98.5 248t147 320.5q110 230 179 365.5t111.5 208.5t64 102.5t39.5 50.5q31 33 80 33q61 0 112 -38.5t51 -97.5q0 -36 -32 -70.5t-85 -72.5q-72 -87 -161.5 -246t-207.5 -391q-115 -228 -184 -402t-98 -292q31 -28 31 -57q0 -33 -27 -57t-62 -24 q-128 0 -128 110zM637 77q0 38 19.5 65t77.5 73q67 51 126 111.5t102.5 120.5t69 115t25.5 96q0 23 -18 39.5t-43 16.5q-51 0 -79.5 -19t-44 -47t-21.5 -63t-16.5 -63t-29.5 -47t-55 -19q-13 0 -32 9t-37 24t-29.5 33t-11.5 34q0 61 34.5 120t88 103.5t117.5 73t123 28.5 q46 0 92.5 -19.5t81 -52.5t56 -78t21.5 -94q0 -54 -23 -114t-62.5 -117.5t-92 -111t-109.5 -94.5q67 13 133.5 19t133.5 11q46 0 76.5 -35.5t30.5 -79.5q0 -28 -25.5 -60t-61.5 -32q-13 0 -41 9t-46 9q-187 0 -366 -56q-38 -13 -51 -13q-46 0 -79.5 28t-33.5 77z" />
<glyph unicode="&#xbe;" horiz-adv-x="1866" d="M115 1080q0 38 33.5 66.5t66.5 28.5q44 0 73 -36t50 -71q28 -18 97 -18q44 0 86 12.5t75.5 33t54 47.5t20.5 58q0 36 -47.5 61.5t-96.5 25.5q0 -5 -25.5 -13t-58.5 -17t-66.5 -15t-48.5 -6q-77 0 -77 79q0 18 4 37t16.5 34.5t39.5 27t70 14.5q41 3 77 18t63 38t42.5 50 t15.5 55q0 23 -26 23q-13 0 -32 -5t-41 -13t-42.5 -18t-33.5 -18q-8 -26 -28 -47.5t-43 -38t-46 -25.5t-36 -9q-36 0 -73 19t-37 55q0 33 39.5 82t101 92.5t133 74t138.5 30.5q95 0 157.5 -51t62.5 -141q0 -46 -18 -89.5t-48 -84.5q169 -62 169 -218q0 -77 -37.5 -137 t-96 -102t-131.5 -65t-143 -23q-51 0 -112.5 11.5t-115 35.5t-89.5 62.5t-36 89.5zM546 90q0 49 16.5 125.5t55 184t98.5 248t147 320.5q110 230 179 365.5t111.5 208.5t64 102.5t39.5 50.5q31 33 80 33q61 0 112 -38.5t51 -97.5q0 -36 -32 -70.5t-85 -72.5 q-72 -87 -161.5 -246t-207.5 -391q-115 -228 -184 -402t-98 -292q31 -28 31 -57q0 -33 -27 -57t-62 -24q-128 0 -128 110zM912 312q0 44 30.5 83.5t88 89.5t142 118t189.5 165q44 54 76 81t78 27t79.5 -31t33.5 -74q0 -20 -6.5 -43.5t-16.5 -43.5l-49 -300q84 0 139 -25.5 t55 -82.5q0 -36 -15 -64t-59 -28l-25 8l-108 8q3 -36 10.5 -74.5t22.5 -69.5q0 -10 -3.5 -25.5t-15 -30.5t-31 -26.5t-49.5 -11.5q-56 0 -89.5 35.5t-33.5 125.5q0 13 1 32t1 37q-82 -5 -152.5 -14t-105.5 -9q-26 0 -58 13t-61.5 34.5t-48.5 47t-19 48.5zM1152 356 q51 8 84.5 11.5t55.5 5t38.5 2.5t34.5 4q3 44 6.5 84.5t8.5 86.5q-61 -49 -120 -94.5t-108 -99.5z" />
<glyph unicode="&#xbf;" horiz-adv-x="1487" d="M64 -79q0 169 200 320q61 46 368 217q200 113 200 187q0 20 -28 70t-28 91l2 18q31 8 64 8q77 0 161.5 -64t84.5 -141q0 -131 -197 -256q-179 -100 -361 -202q-195 -123 -195 -248q0 -97 80 -157q72 -54 171 -53q97 0 261 79q156 77 228 151q-100 26 -100 85 q0 49 56.5 89.5t107.5 40.5q67 0 143.5 -62.5t76.5 -129.5q0 -100 -174 -243q-148 -123 -271 -169q-179 -67 -282 -67q-177 0 -363 128q-205 138 -205 308zM735 1080q0 38 71 77q61 33 105 33q51 0 107.5 -38t56.5 -87q0 -46 -47.5 -79.5t-95.5 -33.5q-56 0 -123 34 q-74 41 -74 94z" />
<glyph unicode="&#xc0;" horiz-adv-x="1546" d="M64 105q0 15 46 143q51 184 166 551q346 947 571 947q325 0 443 -1190q67 -18 85 -26q41 -23 41 -72q0 -123 -110 -125q13 -61 56 -161q-3 -56 -46.5 -93.5t-102.5 -37.5q-46 0 -107 31q-33 67 -33 156q0 23 2.5 67.5t2.5 68.5q0 -18 -85 -18q-146 0 -338 -13 q-282 -18 -307 -45t-33 -278q-33 -49 -85 -48q-54 0 -110 44.5t-56 98.5zM402 504q82 18 243 44q146 18 412 10q-113 901 -202 901q-72 0 -251 -427q-128 -302 -202 -528zM660 2017q8 36 41.5 72t66.5 36q56 0 182 -121q92 -87 158 -171l3 -21q3 -44 -33 -43q-38 0 -179 82 q-164 100 -192.5 111.5t-46.5 54.5z" />
<glyph unicode="&#xc1;" horiz-adv-x="1546" d="M64 105q0 18 46 143q49 184 166 551q346 947 571 947q223 0 343 -499q54 -225 100 -691q67 -18 85 -26q41 -23 41 -72q0 -125 -110 -125q13 -61 56 -161q-3 -56 -46.5 -93.5t-102.5 -37.5q-46 0 -107 31q-33 67 -33 156q0 23 2.5 67.5t2.5 68.5q0 -18 -85 -18 q-146 0 -338 -13q-282 -18 -307 -45t-33 -278q-33 -49 -85 -48q-54 0 -110 44.5t-56 98.5zM402 504q82 18 243 44q146 18 412 10q-113 901 -202 901q-72 0 -251 -427q-128 -302 -202 -528zM604 1812l3 21q67 84 158 171q125 120 182 121q33 0 68 -36t40 -72 q-18 -44 -46.5 -55t-191.5 -111q-141 -82 -180 -82q-36 0 -33 43z" />
<glyph unicode="&#xc2;" horiz-adv-x="1546" d="M64 105q0 18 46 143q33 92 83 276.5t83 271.5q343 950 571 950q223 0 343 -502q54 -223 100 -688q126 -29 126 -98q0 -125 -110 -125q15 -64 56 -161q-3 -56 -46.5 -93.5t-102.5 -37.5q-46 0 -107 31q-5 8 -28 158q-18 115 -59 116q-128 0 -359 -16q-292 -20 -314.5 -47 t-30.5 -273q-33 -49 -85 -48q-54 0 -110 44.5t-56 98.5zM402 504q82 18 243 44q146 18 412 8q-115 901 -202 901q-72 0 -251 -425q-128 -302 -202 -528zM525 1782q0 41 153.5 162.5t197.5 121.5q54 0 335 -233q10 -21 10 -41q0 -46 -56 -46q-44 0 -118 56q-87 64 -118 77 q-18 5 -53 18q-36 -13 -105 -51q-136 -100 -182 -100q-64 0 -64 36z" />
<glyph unicode="&#xc3;" horiz-adv-x="1546" d="M64 105q0 18 46 143q51 184 166 548q343 947 571 947q223 0 343 -499q54 -223 100 -688q67 -18 85 -26q41 -23 41 -72q0 -125 -110 -128q13 -59 56 -158q-3 -56 -46.5 -93.5t-102.5 -37.5q-46 0 -107 31q-33 67 -33 156q0 26 2.5 69t2.5 64q0 -15 -85 -15 q-143 0 -343 -13q-279 -18 -303 -46t-32 -277q-33 -49 -85 -48q-54 0 -110 44.5t-56 98.5zM402 504q82 18 243 44q146 18 412 8q-115 901 -202 901q-72 0 -251 -425q-128 -305 -202 -528zM425 1876q0 51 110 103q97 44 156 43q61 0 125.5 -34.5t87.5 -34.5q31 0 83 34.5 t81 34.5q81 0 81 -64q0 -49 -110 -105q-100 -49 -156 -48q-54 0 -126.5 33t-96.5 33q-33 0 -83 -28t-70 -28q-82 0 -82 61z" />
<glyph unicode="&#xc4;" horiz-adv-x="1546" d="M64 105q0 18 46 143q51 184 166 548q343 947 571 947q223 0 343 -499q54 -225 100 -688q67 -18 85 -26q41 -23 41 -72q0 -125 -110 -128q13 -59 56 -158q-3 -56 -46.5 -93.5t-102.5 -37.5q-46 0 -107 31q-33 67 -33 156q0 26 2.5 69t2.5 64q0 -18 -85 -18 q-143 0 -343 -10q-279 -18 -303 -46t-32 -277q-33 -49 -85 -48q-54 0 -110 44.5t-56 98.5zM402 504q82 18 243 44q146 16 412 8q-115 901 -202 901q-72 0 -251 -425q-128 -305 -202 -528zM497 1871q0 64 46 107.5t107 43.5t107.5 -43.5t46.5 -107.5q0 -61 -46 -104.5 t-108 -43.5q-61 0 -107 43.5t-46 104.5zM881 1871q0 64 46 107.5t107 43.5t107.5 -43.5t46.5 -107.5q0 -61 -46 -104.5t-108 -43.5q-61 0 -107 43.5t-46 104.5z" />
<glyph unicode="&#xc5;" horiz-adv-x="1546" d="M64 105q0 18 46 143q51 184 166 551q343 950 571 949q223 0 343 -501q54 -225 100 -691q67 -15 85 -26q41 -23 41 -72q0 -123 -110 -125q13 -61 56 -161q-3 -56 -46.5 -93.5t-102.5 -37.5q-46 0 -107 31q-33 67 -33 158q0 23 2.5 68t2.5 66q0 -18 -85 -18 q-143 0 -343 -13q-279 -18 -303 -46t-32 -277q-33 -49 -85 -48q-54 0 -110 44.5t-56 98.5zM402 504q82 18 243 46q146 16 412 8q-113 901 -202 901q-72 0 -251 -425q-128 -305 -202 -530zM645 1953q0 67 67 110q59 36 130 36q72 0 131 -36q66 -43 66 -110t-62.5 -106.5 t-134.5 -39.5t-130 36q-67 44 -67 110zM765 1953q0 -56 77 -56q74 0 74 56t-74 57q-77 0 -77 -57z" />
<glyph unicode="&#xc6;" horiz-adv-x="2424" d="M64 102q0 18 67 149q74 184 240 545q141 274 310 535q264 402 384 402q33 0 94.5 -15.5t94.5 -15.5q179 0 610 72q51 10 84 10q169 0 302 -153q-74 -72 -133 -72q-15 0 -47 4t-48 4q-143 0 -322 -21q-228 -23 -305 -64q-18 -205 -31 -560q13 3 182 15.5t200 12.5 q92 0 225 -64v-69q0 -46 -89 -113q-54 54 -70 54q-215 0 -458 -69l-2 -139q113 -26 112 -94q0 -51 -35.5 -88.5t-87.5 -39.5q10 -156 118 -156q102 0 290.5 67.5t288.5 67.5q161 0 215 -92v-23q2 -15 2 -20q0 -74 -89 -75q-10 0 -29.5 4t-29.5 4q-115 0 -333 -69t-335 -69 q-305 0 -331 371q-46 5 -76 5q-143 0 -348 -15q-276 -18 -313 -49q-26 -23 -69 -274q-36 -44 -84 -43q-56 0 -105 43.5t-49 96.5zM461 502q74 15 228 41q159 18 419 10v97q-87 5 -87 105q0 95 93 115q0 46 12 256q8 157 8 254l-2 115q-15 23 -44 23q-118 0 -627 -1016z" />
<glyph unicode="&#xc7;" horiz-adv-x="1438" d="M64 712q0 276 82 512q95 271 282 430q141 123 296 123q218 0 331 -192q92 -156 92 -389q0 -105 -54 -267q-64 -195 -143 -194q-87 0 -136 110q23 20 73 66t50 215q0 159 -33 269q-51 172 -169 172q-82 0 -179 -105q-74 -79 -126 -179q-125 -248 -125 -617 q0 -538 399 -538q172 0 271 100q41 41 121 182q54 100 115 99q41 0 71.5 -30.5t30.5 -71.5q0 -166 -146 -299q-128 -118 -302 -154q-38 -5 -110 -13q197 -44 197 -130q0 -102 -117 -172q-51 -31 -208 -84q-100 18 -100 89q0 36 36 69q18 5 57 5q131 0 130 72 q0 33 -98.5 43.5t-98.5 48.5q0 33 23 64q-264 46 -397 277q-115 197 -115 489z" />
<glyph unicode="&#xc8;" horiz-adv-x="1384" d="M64 576q0 497 26 788q5 69 5 75q0 28 -8 75.5t-8 62.5q18 13 55.5 38.5t75.5 30.5q3 3 346 82q207 49 348 49q169 0 302 -157q-74 -72 -133 -71q-15 0 -47.5 3.5t-47.5 3.5q-110 0 -315 -33q-220 -38 -299 -79q-18 -189 -47 -568q69 5 218 35q138 33 218 34q74 0 171 -46 q26 -82 26 -100q0 -56 -121 -98q-44 28 -87 29q-195 0 -437 -82q-5 -38 -5 -164q0 -151 12 -202q28 -118 133 -118q95 0 273 60t273 60q194 0 271 -136q-36 -74 -90 -74q-10 0 -29 4t-29 4q-110 0 -319 -68t-319 -68q-412 0 -412 630zM248 2068q5 36 40 72t68 36 q56 0 182 -120q92 -87 158 -172l3 -20q3 -44 -33 -44q-38 0 -180 82q-164 100 -192 111.5t-46 54.5z" />
<glyph unicode="&#xc9;" horiz-adv-x="1384" d="M64 576q0 502 26 786q15 177 18 187q26 95 135 110q64 5 190 25q212 51 468 75q18 3 74 10q44 8 72 8q64 0 110 -54q0 -177 -84 -177q-15 0 -47.5 4t-47.5 4q-110 0 -315 -33q-220 -38 -299 -80q-18 -187 -47 -565q69 3 218 35q138 31 218 31q74 0 171 -46 q26 -82 26 -100q0 -54 -121 -95q-44 26 -87 26q-195 0 -437 -79q-5 -41 -5 -164q0 -151 12 -202q28 -118 133 -118q95 0 273 60t273 60q194 0 271 -136q-36 -74 -90 -74q-10 0 -29 4t-29 4q-110 0 -319 -68t-319 -68q-412 0 -412 630zM422 1812l3 21q67 84 159 171 q128 120 181 121q33 0 68 -36t40 -72q-18 -44 -46 -55t-192 -111q-141 -82 -177 -82q-38 0 -36 43z" />
<glyph unicode="&#xca;" horiz-adv-x="1384" d="M64 576q0 497 26 786q5 69 5 77q0 18 -10.5 53.5t-10.5 56.5q0 69 136 97q72 10 220 33q138 28 279 59q161 31 282 31q90 0 129.5 -30.5t49.5 -118.5q-20 -23 -41 -46q-28 -26 -56 -25q-15 0 -47.5 2.5t-47.5 2.5q-110 0 -315 -33q-220 -38 -299 -77q-18 -189 -47 -568 q69 3 218 35q138 31 218 31q74 0 171 -46q26 -79 26 -100q0 -54 -121 -95q-44 28 -87 29q-195 0 -437 -82q-5 -41 -5 -164q0 -151 12 -202q28 -118 133 -118q95 0 273 60t273 60q194 0 271 -136q-49 -100 -90 -99q-10 0 -29 3.5t-29 3.5q-110 0 -319 -55t-319 -55 q-412 0 -412 630zM266 1859q0 41 153.5 162.5t200.5 121.5q51 0 332 -233q13 -21 13 -41q0 -46 -59 -46q-44 0 -118 56q-87 64 -117 77q-18 5 -51 18q-38 -13 -108 -51q-136 -100 -182 -100q-64 0 -64 36z" />
<glyph unicode="&#xcb;" horiz-adv-x="1377" d="M64 571q0 492 26 778q3 38 2 41q0 18 -5 52.5t-5 49.5q0 118 128 139q197 36 394 74q259 49 387 49q74 0 130 -26q77 -36 77 -100q0 -95 -125 -95q-15 0 -47.5 4t-47.5 4q-207 0 -566 -92q-20 -3 -38 -8t-26 -38q-28 -123 -28 -481q0 -54 49 -54q67 0 192 33t192 33 q74 0 171 -46q26 -82 26 -100q0 -64 -38.5 -69t-82.5 -10q-20 13 -56 13q-90 0 -215 -23q-105 -23 -212 -44q-15 -3 -27 -5t-17 -30q-5 -46 -5 -75q0 -197 8 -235q26 -148 140 -149q97 0 284 60.5t298 60.5q174 0 225 -90q0 -44 -18 -77q-23 -44 -62 -43q-10 0 -29 3.5 t-29 3.5q-110 0 -319 -66.5t-319 -66.5q-412 0 -412 625zM284 1864q0 46 40 76.5t88 30.5q49 0 88.5 -30.5t39.5 -76.5q0 -44 -39.5 -74.5t-88.5 -30.5t-88.5 30.5t-39.5 74.5zM668 1915q0 46 40 76.5t88 30.5q49 0 88.5 -30.5t39.5 -76.5q0 -44 -39.5 -74.5t-88.5 -30.5 t-88.5 30.5t-39.5 74.5z" />
<glyph unicode="&#xcc;" horiz-adv-x="604" d="M64 2017q5 36 39.5 72t68.5 36q56 0 181 -121q92 -87 159 -171l3 -21q3 -44 -34 -43q-38 0 -179 82q-164 100 -192 111.5t-46 54.5zM133 1180q0 310 5 392q5 56 65.5 108.5t116.5 52.5q51 0 103.5 -35.5t52.5 -84.5q0 -13 -23 -59q-13 -20 -20 -115q-54 -581 -54 -947 q0 -282 95 -418q-100 -69 -146 -69q-131 0 -162 213q-33 259 -33 962z" />
<glyph unicode="&#xcd;" horiz-adv-x="604" d="M64 1812v21q69 84 161 171q125 120 182 121q33 0 66.5 -36t41.5 -72q-18 -44 -46.5 -55t-192.5 -111q-141 -82 -179 -82q-36 0 -33 43zM115 924q0 105 2.5 319t2.5 321q0 59 63 114t122 55q46 0 99.5 -39.5t53.5 -80.5q0 -10 -23 -59q-13 -23 -20 -115q-54 -599 -54 -947 q0 -282 95 -418q-100 -69 -146 -69q-131 0 -162 213q-33 253 -33 706z" />
<glyph unicode="&#xce;" horiz-adv-x="862" d="M64 1756q0 41 153.5 162.5t199.5 121.5q51 0 333 -233q13 -21 13 -41q0 -46 -59 -46q-44 0 -118 57q-87 64 -118 76q-18 5 -51 18q-38 -13 -107 -51q-136 -100 -179 -100q-67 0 -67 36zM233 922q0 108 4 320t4 320q0 59 61.5 114t119.5 55q46 0 100 -38.5t54 -82.5 q0 -10 -23 -59q-13 -23 -21 -115q-54 -596 -53 -947q0 -279 94 -415q-100 -69 -145 -69q-131 0 -159 213q-36 253 -36 704z" />
<glyph unicode="&#xcf;" horiz-adv-x="775" d="M64 1848q0 61 46 105t108 44q61 0 107 -44t46 -105t-46 -106t-107 -45t-107.5 45t-46.5 106zM187 922q0 108 4 320t4 320q0 59 61 114t123 55q44 0 98.5 -40t54.5 -81q0 -10 -25 -59q-10 -23 -21 -115q-54 -596 -53 -947q0 -279 94 -415q-97 -69 -146 -69 q-131 0 -158 213q-36 253 -36 704zM371 1871q0 64 46 107.5t108 43.5q61 0 107 -43.5t46 -107.5q0 -61 -46 -104.5t-107 -43.5t-107.5 43.5t-46.5 104.5z" />
<glyph unicode="&#xd0;" horiz-adv-x="1530" d="M0 835q0 46 4 71.5t24 25.5h151q0 13 1.5 28t1.5 28q5 207 9 359.5t4 255.5q0 5 -3 17.5t-3 20.5q0 46 33.5 74t79.5 28q59 0 106.5 -38t47.5 -92q0 -15 -3 -23q131 192 371 192q138 0 246 -51.5t182 -146t113.5 -228t39.5 -294.5q0 -402 -184 -724q-220 -384 -591 -384 q-136 0 -231 54q-51 -49 -105 -49q-31 0 -71 33q-51 146 -51 382v155t2 198q-15 -5 -26.5 -7.5t-24.5 -2.5q-18 0 -38.5 10t-39.5 28t-32 38.5t-13 41.5zM410 381q0 -241 202 -240q82 0 160 43.5t144.5 117.5t117.5 174t77 213q41 174 41 384q0 522 -307 522 q-125 0 -249 -128q-108 -113 -147 -241t-39 -286q161 8 275 16.5t157 8.5q36 0 74.5 -9t71.5 -27t53.5 -40.5t20.5 -53.5q0 -67 -19 -85t-80 -18q-15 0 -20.5 4t-16 9t-32 10t-67.5 10.5t-124 9t-201 3.5q-26 0 -49 -1t-43 -1v-395z" />
<glyph unicode="&#xd1;" horiz-adv-x="1446" d="M64 371q0 44 2.5 131t2.5 130q0 105 25.5 314t25.5 316v315q0 5 -3.5 15.5t-3.5 15.5q0 49 69 84q56 28 112 28q131 0 187 -84q15 -28 28 -118l16 -128q31 -197 164 -617q156 -499 230 -499q28 0 28 72q0 23 -6.5 69t-6.5 69l-7 732q0 136 69 320q84 223 197 223 q56 0 125 -46q3 -13 3 -23q0 -44 -23 -62q-3 0 -59 -31q-72 -36 -74 -435l-8 -740q-3 -113 -51 -233q-64 -148 -159 -148q-141 0 -279 235q-100 177 -202 489q-61 200 -120 402q-54 -438 -54 -588q0 -330 39.5 -380.5t39.5 -73.5q0 -46 -51 -84t-102 -38q-72 0 -118 153 q-36 118 -36 215zM312 1876q0 51 110 103q97 44 157 43q61 0 125 -34.5t87 -34.5q31 0 83.5 34.5t80.5 34.5q82 0 82 -64q0 -49 -110 -105q-100 -49 -156 -48q-54 0 -127 33t-96 33q-36 0 -84.5 -28t-69.5 -28q-82 0 -82 61z" />
<glyph unicode="&#xd2;" d="M64 750q0 374 177 671q210 348 558 348q353 0 530 -284q148 -238 148 -609t-179 -628q-205 -294 -558 -294q-95 0 -215 38q-461 143 -461 758zM292 678q0 -49 20 -138q44 -197 131 -287q100 -102 292 -102q264 0 394 256q102 203 102 492q0 238 -64 376q-79 174 -279 243 q-31 10 -56 10q-143 0 -287 -130q-253 -230 -253 -720zM566 2068q8 36 41 72t66 36q56 0 185 -120q92 -87 158 -172v-20q3 -44 -33 -44t-177 82q-166 100 -194 111.5t-46 54.5z" />
<glyph unicode="&#xd3;" d="M64 748q0 399 182 686q215 333 589 332q310 0 489 -302q153 -258 153 -588q0 -371 -179 -628q-205 -294 -558 -294q-95 0 -215 38q-461 143 -461 756zM292 678q0 -51 20 -138q44 -197 131 -287q100 -102 292 -102q264 0 394 256q102 200 102 492q0 238 -64 376 q-79 174 -279 241q-31 13 -56 12q-143 0 -287 -130q-253 -230 -253 -720zM589 1838v21q67 84 159 171q128 120 181 120q36 0 69.5 -35.5t38.5 -71.5q-18 -44 -45 -55.5t-193 -111.5q-141 -82 -177 -81q-36 0 -33 43z" />
<glyph unicode="&#xd4;" d="M64 742q0 379 182 669q210 340 568 340q315 0 502 -294q161 -254 161 -589q0 -369 -182 -625q-202 -289 -555 -289q-100 0 -215 38q-256 82 -366 284q-95 174 -95 466zM292 671q0 -49 20 -136q44 -197 131 -284q100 -102 292 -103q261 0 394 254q102 200 102 489 q0 532 -343 637q-36 10 -82 11q-143 0 -286 -128q-228 -207 -228 -740zM453 1807q0 41 153.5 163t199.5 122q51 0 333 -233q13 -21 13 -41q0 -46 -59 -46q-44 0 -118 56q-87 64 -117 77q-18 5 -52 18q-38 -13 -107 -52q-136 -100 -182 -99q-64 0 -64 35z" />
<glyph unicode="&#xd5;" d="M64 748q0 371 174 668q205 351 553 350q351 0 533 -281q153 -238 153 -609t-179 -630q-205 -292 -558 -292q-95 0 -215 38q-461 143 -461 756zM292 676q0 -49 20 -136q44 -200 131 -287q100 -105 292 -105q264 0 394 256q102 203 102 492q0 238 -64 376q-79 174 -279 241 q-31 13 -56 13q-143 0 -287 -131q-253 -230 -253 -719zM407 1902q0 51 110 102q97 44 156 44q61 0 125.5 -34.5t87.5 -34.5q33 0 84 34.5t82 34.5q82 0 82 -64q0 -49 -110 -105q-100 -49 -159 -49q-54 0 -125.5 33.5t-96.5 33.5q-33 0 -83.5 -28t-70.5 -28q-82 0 -82 61z " />
<glyph unicode="&#xd6;" d="M64 748q0 305 125 573q148 310 405 404q-51 10 -87 52.5t-36 93.5q0 64 46 107.5t108 43.5q61 0 107 -43.5t46 -107.5q0 -69 -56 -112q46 5 92 5q51 0 100 -8q-59 46 -59 115q0 64 46 107.5t108 43.5q61 0 107 -43.5t46 -107.5q0 -56 -39.5 -98t-95.5 -50 q220 -87 343 -353q107 -231 107 -497q0 -369 -179 -627q-205 -292 -558 -292q-97 0 -215 38q-256 82 -366 287q-95 174 -95 469zM292 676q0 -49 20 -136q44 -200 131 -287q100 -105 292 -105q264 0 394 256q102 203 102 492q0 238 -64 376q-79 172 -279 241q-31 10 -56 10 q-143 0 -287 -128q-253 -230 -253 -719z" />
<glyph unicode="&#xd7;" horiz-adv-x="1525" d="M202 1196q23 74 63 116t129 42q28 0 51 -27t56.5 -75.5t83.5 -112.5t134 -135q105 105 168 170t97.5 106t50 61.5t25.5 38.5q26 8 48 8q49 0 78.5 -46.5t29.5 -87.5q0 -51 -89.5 -149.5t-253.5 -252.5q51 -64 111 -121.5t122 -110.5q20 -18 51 -40t77 -50q5 -26 5 -38 q0 -33 -18 -57.5t-43.5 -40t-51 -23t-41.5 -7.5q-28 0 -53.5 14t-53.5 39q-72 61 -139.5 128t-129.5 144q-90 -74 -177 -164t-171 -185q-82 20 -111.5 55t-29.5 86q0 31 36 72t88.5 89.5t110 100t101.5 97.5q-90 87 -178.5 175t-175.5 181z" />
<glyph unicode="&#xd8;" d="M64 742q0 381 182 674q210 343 568 343q100 0 192 -31q26 218 218 218q59 0 128 -72q-51 -92 -141 -279q266 -262 266 -725q0 -371 -179 -629q-205 -292 -558 -292q-118 0 -264 54q-100 -156 -194 -157q-41 0 -70.5 24.5t-29.5 62.5q0 26 100 182q-218 195 -218 627z M292 671q0 -189 97 -354q320 622 543 1178q-59 26 -100 26q-143 0 -287 -131q-253 -230 -253 -719zM568 172q77 -28 167 -29q264 0 394 259q102 200 102 489q0 315 -123 473q-261 -602 -261 -601q-151 -343 -279 -591z" />
<glyph unicode="&#xd9;" horiz-adv-x="1269" d="M64 758q0 118 15.5 356t15.5 358q0 20 -15.5 60t-15.5 63q0 46 57.5 85.5t106.5 39.5q79 0 135.5 -44.5t56.5 -124.5q0 -8 -3 -38q-44 5 -53 -21q-5 -10 -9 -54.5t-30 -280.5q-18 -166 -18 -274v-320q0 -148 54 -261q72 -146 205 -146q259 0 340 479q38 220 39 686 q0 169 -52 276q-15 31 -15 49q0 46 34.5 89.5t80.5 43.5q49 0 104 -34.5t55 -83.5v-711q0 -215 -51 -456q-61 -300 -169 -410q-136 -143 -328 -143q-172 0 -304 105q-143 118 -198 325q-38 143 -38 387zM328 1992q5 36 39.5 71.5t67.5 35.5q54 0 182 -120q92 -87 159 -172 l2 -20q3 -44 -36 -44q-36 0 -176 82q-166 100 -193 111.5t-45 55.5z" />
<glyph unicode="&#xda;" horiz-adv-x="1269" d="M64 758q0 118 15.5 356t15.5 358q0 20 -15.5 60t-15.5 63q0 46 57.5 85.5t106.5 39.5q79 0 135.5 -44.5t56.5 -124.5q0 -8 -3 -38q-44 5 -53 -21q-5 -10 -9 -54.5t-30 -280.5q-18 -166 -18 -274v-320q0 -148 54 -261q72 -146 205 -146q259 0 340 479q38 220 39 686 q0 169 -52 276q-15 31 -15 49q0 46 34.5 89.5t80.5 43.5q49 0 104 -34.5t55 -83.5v-711q0 -215 -51 -456q-61 -300 -169 -410q-136 -143 -328 -143q-172 0 -304 105q-143 118 -198 325q-38 143 -38 387zM425 1812v21q67 84 161 171q125 120 182 121q33 0 66.5 -36t41.5 -72 q-18 -44 -46.5 -55t-192.5 -111q-141 -82 -179 -82q-36 0 -33 43z" />
<glyph unicode="&#xdb;" horiz-adv-x="1269" d="M64 758q0 120 15.5 358t15.5 359q0 20 -15.5 59.5t-15.5 60.5q0 49 57.5 88.5t106.5 39.5q177 0 176 -103q0 -13 -10 -97q-28 -28 -33 -35.5t-5 -35.5l-3 -18q-3 -77 -25 -274q-20 -174 -21 -277v-317q0 -148 54 -264q72 -143 205 -143q259 0 340 478q38 220 39 689 q0 177 -52 274q-33 64 -33 92q0 41 43.5 65.5t89.5 24.5q49 0 104 -36t55 -82v-714q0 -215 -51 -456q-61 -294 -169 -410q-133 -143 -328 -143q-174 0 -304 108q-146 120 -198 322q-38 143 -38 387zM241 1859q0 41 152 162.5t198 121.5q54 0 336 -233q10 -21 10 -41 q0 -46 -59 -46q-41 0 -115 56q-90 64 -118 77q-18 5 -54 18q-36 -13 -107 -51q-136 -100 -179 -100q-64 0 -64 36z" />
<glyph unicode="&#xdc;" horiz-adv-x="1269" d="M64 755q0 120 15.5 357t15.5 357q0 20 -15.5 60t-15.5 63q0 46 57.5 86t106.5 40q79 0 135.5 -45t56.5 -124q0 -8 -3 -39q-44 5 -53 -20q-5 -10 -9 -55t-30 -278q-18 -166 -18 -276v-318q0 -148 54 -261q72 -146 205 -146q259 0 340 479q38 218 39 683q0 169 -52 277 q-15 31 -15 49q0 46 34.5 89.5t80.5 43.5q49 0 104 -34.5t55 -83.5v-712q0 -212 -51 -455q-61 -297 -169 -408q-136 -143 -328 -143q-172 0 -304 105q-143 118 -198 325q-38 143 -38 384zM266 1871q0 64 46 107.5t108 43.5q61 0 107 -43.5t46 -107.5q0 -61 -46 -104.5 t-107 -43.5t-107.5 43.5t-46.5 104.5zM650 1871q0 64 46 107.5t108 43.5q61 0 107 -43.5t46 -107.5q0 -61 -46 -104.5t-107 -43.5t-107.5 43.5t-46.5 104.5z" />
<glyph unicode="&#xdd;" horiz-adv-x="1369" d="M64 1595q0 148 133 148q154 0 154 -176q0 -18 -6.5 -55t-6.5 -58q0 -108 100 -338q105 -243 189 -279q33 49 146 295q123 271 192 389q115 192 192 192q56 0 101 -34.5t53 -88.5q-28 -49 -98.5 -129.5t-95 -124t-308.5 -791.5q-241 -637 -320 -637q-69 0 -120 38 q-59 41 -59 108q0 41 46 102.5t102 217.5q41 118 82 235q-154 123 -271 377q-205 433 -205 609zM430 1927v31q38 46 79.5 88.5t84.5 85.5q133 125 202 126q23 0 47.5 -11.5t45 -31t36 -42.5t20.5 -46l-5 -26q-13 -28 -29.5 -47t-37.5 -27q-13 -5 -56.5 -29.5t-117.5 -70.5 q-143 -82 -189 -82q-36 0 -59 20.5t-21 61.5z" />
<glyph unicode="&#xde;" horiz-adv-x="1313" d="M69 614q0 223 7.5 465t13.5 483q5 56 55 106t116 50q15 0 39.5 -11.5t46.5 -28.5t38.5 -37.5t16.5 -35.5q0 -23 -9 -56t-19 -75.5t-20.5 -93.5t-13.5 -108q41 56 92.5 97.5t104 65.5t103.5 35.5t92 11.5q138 0 233 -43.5t152.5 -117.5t83 -172.5t25.5 -211.5 q0 -131 -28 -266.5t-93.5 -248t-169 -184.5t-251.5 -72q-115 0 -207.5 33.5t-159.5 84.5q18 -156 80 -238q-23 -38 -69 -52t-64 -14q-74 0 -112.5 52t-58 140.5t-22 202.5t-2.5 239zM307 581q26 -38 64.5 -75.5t83 -66.5t93.5 -48.5t100 -19.5q108 0 179.5 50t113.5 128 t60 174t18 186q0 69 -13 137t-43.5 123t-83 89.5t-131.5 34.5q-61 0 -123 -29.5t-119.5 -77t-105 -106.5t-80.5 -117q-8 -108 -10.5 -196.5t-2.5 -185.5z" />
<glyph unicode="&#xdf;" horiz-adv-x="1310" d="M64 538q0 497 84 770q141 461 520 461q154 0 259 -87q113 -95 112 -248q0 -105 -65 -230.5t-150 -192.5l-51 13q195 -77 310 -271q107 -184 107 -402q0 -271 -190.5 -461t-459.5 -190q-49 0 -86 27t-37 71q0 56 90 84q172 54 200 67q131 64 199 197q56 105 57 230 q0 156 -98 302q-108 161 -256 174q-5 0 -15 -2h-13q-44 0 -75.5 27t-31.5 70q0 36 23 77q108 46 207 164q108 128 108 235q0 146 -144 146q-381 0 -381 -1008q0 -243 23 -400q8 -54 7 -77q0 -41 -39.5 -75.5t-80.5 -34.5q-59 0 -100 64q-33 51 -33 500z" />
<glyph unicode="&#xe0;" horiz-adv-x="1095" d="M64 241q0 120 164 225q148 95 279 95h217v61q3 269 -158 269q-202 0 -202 -190q0 -64 -72 -64q-44 0 -91 40t-47 83q0 143 102 235.5t246 92.5q481 0 481 -653q0 -330 -20 -466q-13 -79 -108 -79q-143 0 -128 143q-128 -61 -266 -61q-133 0 -254 66q-143 79 -143 203z M276 1359q5 36 38.5 74.5t66.5 38.5q56 0 169 -102q84 -77 146 -157q3 -13 3 -23q0 -46 -41 -46q-69 0 -197 108q-44 36 -90 51q-59 18 -87 36zM328 243q0 -82 140 -82q87 0 164 49q92 54 92 133q0 51 -76 51q-320 0 -320 -151z" />
<glyph unicode="&#xe1;" horiz-adv-x="1095" d="M64 241q0 120 164 225q148 95 279 95h217v61q3 269 -158 269q-202 0 -202 -190q0 -64 -72 -64q-44 0 -91 40t-47 83q0 143 102 235.5t246 92.5q481 0 481 -653q0 -330 -20 -466q-13 -79 -108 -79q-143 0 -128 143q-128 -61 -266 -61q-133 0 -254 66q-143 79 -143 203z M328 243q0 -82 140 -82q87 0 164 49q92 54 92 133q0 51 -76 51q-320 0 -320 -151zM361 1190q0 10 3 23q61 79 145 157q115 102 172 102q31 0 64 -38.5t38 -74.5l-7 -20q-28 -18 -87 -36q-46 -15 -90 -51q-128 -108 -197 -108q-41 0 -41 46z" />
<glyph unicode="&#xe2;" horiz-adv-x="1095" d="M64 241q0 120 164 225q148 95 279 95h217v61q3 269 -158 269q-202 0 -202 -190q0 -64 -72 -64q-44 0 -91 40t-47 83q0 143 102 235.5t246 92.5q481 0 481 -653q0 -330 -20 -466q-13 -79 -108 -79q-143 0 -128 143q-128 -61 -266 -61q-133 0 -254 66q-143 79 -143 203z M197 1157q0 36 138.5 145t179.5 109q46 0 302 -208q7 -20 7 -38q0 -38 -51 -39q-38 0 -105 49q-79 59 -101 66.5t-52 18.5q-33 -10 -98 -47q-120 -87 -161 -87q-59 0 -59 31zM328 243q0 -82 140 -82q87 0 164 49q92 54 92 133q0 51 -76 51q-320 0 -320 -151z" />
<glyph unicode="&#xe3;" horiz-adv-x="1095" d="M64 241q0 120 164 225q148 95 279 95h217v61q3 269 -158 269q-202 0 -202 -190q0 -64 -72 -64q-44 0 -91 40t-47 83q0 143 102 235.5t246 92.5q481 0 481 -653q0 -330 -20 -466q-13 -79 -108 -79q-143 0 -128 143q-128 -61 -266 -61q-133 0 -254 66q-143 79 -143 203z M200 1244q0 49 97 100q87 46 143 46t114 -34.5t78 -34.5q28 0 75.5 34.5t73.5 34.5q74 0 74 -61q0 -51 -93.5 -104t-149.5 -53q-49 0 -113 33.5t-87 33.5q-31 0 -74.5 -28t-63.5 -28q-74 0 -74 61zM328 243q0 -82 140 -82q87 0 164 49q92 54 92 133q0 51 -76 51 q-320 0 -320 -151z" />
<glyph unicode="&#xe4;" horiz-adv-x="1095" d="M64 241q0 120 164 225q148 95 279 95h217v61q3 269 -158 269q-202 0 -202 -190q0 -64 -72 -64q-44 0 -91 40t-47 83q0 143 102 235.5t246 92.5q481 0 481 -653q0 -330 -20 -466q-13 -79 -108 -79q-143 0 -128 143q-128 -61 -266 -61q-133 0 -254 66q-143 79 -143 203z M236 1249q0 44 35.5 71t79.5 27t79.5 -27t35.5 -71q0 -41 -36 -67.5t-79 -26.5q-44 0 -79.5 26.5t-35.5 67.5zM328 243q0 -82 140 -82q87 0 164 49q92 54 92 133q0 51 -76 51q-320 0 -320 -151zM581 1249q0 44 36 71t79 27q44 0 80 -27t36 -71q0 -41 -36 -67.5t-80 -26.5 t-79.5 26.5t-35.5 67.5z" />
<glyph unicode="&#xe5;" horiz-adv-x="1095" d="M64 241q0 120 164 225q148 95 279 95h217v61q3 269 -158 269q-202 0 -202 -190q0 -64 -72 -64q-44 0 -91 40t-47 83q0 143 102 235.5t246 92.5q481 0 481 -653q0 -330 -20 -466q-13 -79 -108 -79q-143 0 -128 143q-128 -61 -266 -61q-133 0 -254 66q-143 79 -143 203z M317 1303q0 67 67 110q59 36 131 36t130 -36q67 -43 67 -110t-63 -106.5t-134 -39.5q-72 0 -131 36q-67 44 -67 110zM328 243q0 -82 140 -82q87 0 164 49q92 54 92 133q0 51 -76 51q-320 0 -320 -151zM440 1303q0 -56 75 -56q74 0 74 56t-74 56t-75 -56z" />
<glyph unicode="&#xe6;" horiz-adv-x="1722" d="M64 246q0 120 164 225q148 95 279 95h217v59q3 266 -158 266q-87 0 -149 -105q-54 -92 -53 -184q0 -64 -72 -64q-44 0 -91 41t-47 84q0 146 97 282q108 143 251 143q92 0 195.5 -39.5t167.5 -103.5q95 159 223 158q141 0 303.5 -125.5t162.5 -260.5q0 -172 -151 -295 q-141 -115 -318 -115q-31 0 -68 15.5t-72 30.5q8 -195 192 -194q102 0 200.5 115t137.5 115q44 0 77 -34.5t33 -78.5q0 -128 -172 -222q-148 -84 -287 -85q-184 0 -302 110q-184 -102 -363 -102q-133 0 -254 67q-143 79 -143 202zM328 248q0 -82 140 -82q84 0 164 49 q92 54 92 133q0 49 -76 49q-320 0 -320 -149zM975 607q0 -46 46.5 -75.5t97.5 -29.5q79 0 133 62.5t54 144.5q0 64 -37.5 121.5t-98.5 57.5q-69 0 -136 -107q-59 -97 -59 -174z" />
<glyph unicode="&#xe7;" horiz-adv-x="1080" d="M64 397q0 197 105 448q125 297 292 297q92 0 226.5 -77t156 -155t21.5 -162q0 -79 -33 -182q-41 -131 -102 -131q-44 0 -82 26q-46 28 -46 71q0 8 23 59q13 26 12 151q0 197 -79 198q-125 0 -197 -223q-49 -164 -49 -328q0 -282 174 -281q69 0 156.5 71.5t117.5 140.5 q38 82 100 82q38 0 74 -45t36 -86q0 -79 -118 -189q-110 -100 -197 -128q-33 -10 -105 -31q172 -36 172 -118q0 -187 -305 -294q-95 31 -94 95q0 31 30 61q87 31 103 39q56 33 51 84q-13 23 -49 23q-15 0 -43 -5t-44 -5q-36 0 -36 31q0 38 62 99q-36 10 -108 39 q-113 56 -171 179q-54 110 -54 246z" />
<glyph unicode="&#xe8;" horiz-adv-x="1026" d="M64 417q0 184 90 410q110 276 266 276q141 0 303.5 -125.5t162.5 -260.5q0 -172 -151 -295q-141 -115 -318 -115q-36 0 -115 44q8 -192 143 -192q113 0 222 64t139 64q110 -1 110 -62q0 -128 -174 -199q-136 -56 -284 -57q-394 0 -394 448zM271 1359q8 36 40 74.5 t65 38.5q56 0 172 -102q82 -77 146 -157q2 -13 2 -23q0 -46 -41 -46q-69 0 -197 108q-44 36 -89 51q-59 18 -87 36zM333 612q0 -49 33 -79.5t85 -30.5q79 0 132.5 62.5t53.5 144.5q0 64 -37 121.5t-98 57.5q-82 0 -131 -100q-38 -82 -38 -176z" />
<glyph unicode="&#xe9;" horiz-adv-x="1026" d="M64 417q0 184 90 410q110 276 266 276q141 0 303.5 -125.5t162.5 -260.5q0 -172 -151 -295q-141 -115 -318 -115q-36 0 -115 44q8 -192 143 -192q113 0 222 64t139 64q110 -1 110 -62q0 -128 -174 -199q-136 -56 -284 -57q-394 0 -394 448zM274 1190q0 10 5 23 q61 79 146 157q113 102 169 102q33 0 66.5 -38.5t38.5 -74.5l-8 -20q-28 -18 -87 -36q-46 -15 -89 -51q-128 -108 -198 -108q-44 0 -43 46zM333 612q0 -49 33 -79.5t85 -30.5q79 0 132.5 62.5t53.5 144.5q0 64 -37 121.5t-98 57.5q-82 0 -131 -100q-38 -82 -38 -176z" />
<glyph unicode="&#xea;" horiz-adv-x="1026" d="M64 417q0 184 90 410q110 276 266 276q141 0 303.5 -125.5t162.5 -260.5q0 -172 -151 -295q-141 -115 -318 -115q-36 0 -115 44q8 -192 143 -192q113 0 222 64t139 64q110 -1 110 -62q0 -128 -174 -199q-136 -56 -284 -57q-394 0 -394 448zM138 1157q0 36 138.5 145 t179.5 109q46 0 299 -208q10 -20 10 -38q0 -38 -51 -39q-38 0 -105 49q-79 59 -107 69q-15 5 -46 16q-33 -10 -98 -47q-123 -87 -161 -87q-59 0 -59 31zM333 612q0 -49 33 -79.5t85 -30.5q79 0 132.5 62.5t53.5 144.5q0 64 -37 121.5t-98 57.5q-82 0 -131 -100 q-38 -82 -38 -176z" />
<glyph unicode="&#xeb;" horiz-adv-x="1026" d="M64 417q0 184 90 410q110 276 266 276q141 0 303.5 -125.5t162.5 -260.5q0 -172 -151 -295q-141 -115 -318 -115q-36 0 -115 44q8 -192 143 -192q113 0 222 64t139 64q110 -1 110 -62q0 -128 -174 -199q-136 -56 -284 -57q-394 0 -394 448zM177 1249q0 44 35.5 71 t79.5 27t79.5 -27t35.5 -71q0 -41 -36 -67.5t-79 -26.5q-44 0 -79.5 26.5t-35.5 67.5zM333 612q0 -49 33 -79.5t85 -30.5q79 0 132.5 62.5t53.5 144.5q0 64 -37 121.5t-98 57.5q-82 0 -131 -100q-38 -82 -38 -176zM522 1249q0 44 36 71t79 27q44 0 80 -27t36 -71 q0 -41 -36 -67.5t-80 -26.5t-79.5 26.5t-35.5 67.5z" />
<glyph unicode="&#xec;" horiz-adv-x="576" d="M64 1359q5 36 38.5 74.5t66.5 38.5q56 0 169 -102q84 -77 146 -157q5 -13 5 -23q0 -46 -44 -46q-69 0 -197 108q-44 36 -89 51q-59 18 -87 36zM110 596q0 253 21 425q-3 13 -3 26q0 46 72 46q64 0 128 -25q82 -28 82 -82q0 -46 -20.5 -130.5t-20.5 -131.5v-527 q0 -49 28 -153q-38 -59 -85 -59q-161 0 -176 161q-26 300 -26 450z" />
<glyph unicode="&#xed;" horiz-adv-x="576" d="M64 1190q0 10 3 23q64 79 145 157q115 102 172 102q33 0 65 -38.5t40 -74.5l-10 -20q-28 -18 -80.5 -34.5t-96.5 -52.5q-128 -108 -197 -108q-41 0 -41 46zM108 596q0 253 20 425q-3 13 -3 26q0 46 72 46q64 0 128 -25q82 -28 82 -82q0 -46 -20.5 -130.5t-20.5 -131.5 v-527q0 -49 28 -153q-38 -59 -84 -59q-161 0 -177 161q-26 300 -25 450z" />
<glyph unicode="&#xee;" horiz-adv-x="683" d="M64 1157q0 38 114 146t152 108q28 0 126 -90q61 -59 123 -118q10 -20 10 -38q0 -38 -51 -39q-31 0 -110 46q-102 59 -116 64q-18 -8 -97 -64q-64 -46 -92 -46q-59 0 -59 31zM169 596q0 253 20 425q-5 13 -5 26q0 46 72 46q67 0 128 -25q84 -28 84 -82q0 -46 -20 -130.5 t-20 -131.5v-527q0 -49 28 -153q-38 -59 -85 -59q-164 0 -176 161q-26 300 -26 450z" />
<glyph unicode="&#xef;" horiz-adv-x="680" d="M64 1249q0 44 36 71t79 27q44 0 79.5 -27t35.5 -71q0 -41 -35.5 -67.5t-79.5 -26.5t-79.5 26.5t-35.5 67.5zM156 596q0 253 21 425q-5 13 -5 26q0 46 71 46q67 0 128 -25q85 -28 85 -82q0 -46 -20.5 -130.5t-20.5 -131.5v-527q0 -49 28 -153q-38 -59 -85 -59 q-164 0 -176 161q-26 300 -26 450zM358 1249q0 44 36 71t80 27t79.5 -27t35.5 -71q0 -41 -36 -67.5t-79 -26.5q-44 0 -80 26.5t-36 67.5z" />
<glyph unicode="&#xf0;" horiz-adv-x="970" d="M56 389q0 108 32 215.5t90 194.5t133.5 140.5t164.5 53.5q38 0 90 -13q-20 56 -46 111.5t-54 101.5q-38 -28 -62.5 -64t-45 -69t-39.5 -55t-45 -22q-20 0 -43.5 15.5t-45 36t-35.5 39.5t-14 27q0 26 25.5 57.5t62.5 65t75.5 65.5t64.5 55q-49 61 -113 112.5t-131 51.5 q-13 31 -18 51.5t-5 35.5q0 41 14 65t33.5 38.5t38.5 18t32 3.5q46 0 91 -23t86 -57.5t78 -75.5t65 -79q82 67 130.5 92.5t76.5 25.5q46 0 84.5 -36t38.5 -80q0 -28 -15 -40.5t-44.5 -25.5t-70.5 -32t-92 -58q61 -105 107 -222.5t77 -235.5t46 -228t15 -202 q0 -105 -30.5 -198.5t-87 -164t-135.5 -111.5t-174 -41q-200 0 -302.5 122t-102.5 339zM269 397q0 -138 50 -220t142 -82q54 0 96 28t71.5 75.5t46 111t16.5 135.5q0 154 -47.5 250t-131.5 96q-54 0 -97.5 -32t-76.5 -87t-51 -126.5t-18 -148.5z" />
<glyph unicode="&#xf1;" horiz-adv-x="1090" d="M64 1016q0 44 50 80t93 36q51 0 64 -11q20 -26 41 -51l-7 -105q92 151 315 151q49 0 115 -33q243 -118 243 -689v-376q-38 -59 -95 -59q-44 0 -143 51v31q0 59 4 170.5t4 164.5q0 556 -164 556q-46 0 -105 -74q-182 -223 -182 -538q0 -44 16.5 -132t16.5 -132 q0 -36 -33 -59t-72 -23q-154 0 -153 198v542q0 20 5 61.5t5 61.5q0 31 -9 91t-9 88zM141 1283q0 49 97 99q87 46 143 46t114 -35.5t78 -35.5q28 0 75.5 35.5t73.5 35.5q74 0 74 -64q0 -49 -93.5 -102.5t-149.5 -53.5q-49 0 -113 33.5t-87 33.5q-31 0 -74 -28t-64 -28 q-74 0 -74 64z" />
<glyph unicode="&#xf2;" horiz-adv-x="1090" d="M64 445q0 230 115 436q133 243 346 243q67 0 166 -59q287 -172 287 -561q0 -230 -115 -394q-133 -187 -354 -187q-225 0 -340 154q-105 136 -105 368zM294 1385q8 36 40 74.5t65 38.5q56 0 172 -103q82 -77 146 -156q2 -13 2 -23q0 -46 -41 -46q-69 0 -197 107 q-44 36 -92 52q-56 18 -84 35zM307 451q0 -340 202 -341q131 0 195 141q49 107 49 258q0 392 -190 392q-136 0 -205 -166q-51 -125 -51 -284z" />
<glyph unicode="&#xf3;" horiz-adv-x="1090" d="M64 445q0 230 115 436q133 243 346 243q67 0 166 -59q287 -172 287 -561q0 -230 -115 -394q-133 -187 -354 -187q-225 0 -340 154q-105 136 -105 368zM297 1190q0 10 5 23q61 79 143 157q115 102 172 102q33 0 66.5 -38.5t38.5 -74.5l-8 -20q-28 -18 -87 -36 q-46 -15 -89 -51q-128 -108 -198 -108q-44 0 -43 46zM307 451q0 -340 202 -341q131 0 195 141q49 107 49 258q0 392 -190 392q-136 0 -205 -166q-51 -125 -51 -284z" />
<glyph unicode="&#xf4;" horiz-adv-x="1090" d="M64 445q0 230 115 436q133 243 346 243q67 0 166 -59q287 -172 287 -561q0 -230 -115 -394q-133 -187 -354 -187q-225 0 -340 154q-105 136 -105 368zM192 1157q0 36 137 145t180 109q46 0 300 -208q10 -20 10 -38q0 -38 -54 -39q-38 0 -105 49q-79 59 -104 69 q-15 5 -49 16q-33 -10 -95 -47q-123 -87 -161 -87q-59 0 -59 31zM307 451q0 -340 202 -341q131 0 195 141q49 107 49 258q0 392 -190 392q-136 0 -205 -166q-51 -125 -51 -284z" />
<glyph unicode="&#xf5;" horiz-adv-x="1090" d="M64 435q0 233 105 425q128 230 340 231q228 0 356 -190q113 -166 113 -404q0 -230 -115 -395q-133 -187 -354 -186q-225 0 -340 153q-105 136 -105 366zM207 1231q0 49 98 100q90 46 143 46q56 0 114 -34.5t78 -34.5q28 0 75.5 34.5t72.5 34.5q75 0 75 -61 q0 -51 -93.5 -103.5t-147.5 -52.5q-51 0 -115 33t-87 33q-31 0 -74.5 -28t-63.5 -28q-74 0 -75 61zM307 443q0 -340 202 -341q131 0 195 141q49 108 49 259q0 392 -190 391q-136 0 -205 -166q-51 -125 -51 -284z" />
<glyph unicode="&#xf6;" horiz-adv-x="1090" d="M64 445q0 230 115 436q133 243 346 243q67 0 166 -59q287 -172 287 -561q0 -230 -115 -394q-133 -187 -354 -187q-225 0 -340 154q-105 136 -105 368zM225 1249q0 44 36 71t79 27q41 0 78.5 -27t37.5 -71q0 -41 -37.5 -67.5t-78.5 -26.5q-44 0 -79.5 26.5t-35.5 67.5z M307 451q0 -340 202 -341q131 0 195 141q49 107 49 258q0 392 -190 392q-136 0 -205 -166q-51 -125 -51 -284zM571 1249q0 44 36 71t79 27q41 0 78 -27t37 -71q0 -41 -37 -67.5t-78 -26.5q-44 0 -79.5 26.5t-35.5 67.5z" />
<glyph unicode="&#xf7;" horiz-adv-x="1525" d="M64 860q0 49 36 88.5t82 39.5q18 0 56 -4t79 -7.5t78.5 -6t57.5 -2.5h717q59 0 164 25q61 -36 61 -77q0 -164 -169 -163h-1124q-38 64 -38 107zM561 387q0 23 12.5 48.5t33 44.5t46 32t48.5 13q36 0 72 -11.5t64 -33.5t46 -51t18 -65q0 -51 -44.5 -95t-96.5 -44 q-28 0 -62.5 14t-65 37.5t-51 51.5t-20.5 59zM561 1326q0 67 60 105t142 38q28 0 57.5 -11.5t52.5 -30.5t37 -43.5t14 -52.5q0 -67 -56 -106.5t-126 -39.5q-33 0 -65 11.5t-57.5 31t-42 45t-16.5 53.5z" />
<glyph unicode="&#xf8;" horiz-adv-x="1093" d="M64 443q0 233 113 440q136 248 348 249q56 0 148 -52q61 146 192 146q51 0 118 -64q-51 -72 -138 -220q133 -166 133 -438q0 -233 -115 -399q-131 -187 -354 -187q-92 0 -169 26q-79 -128 -171 -128q-90 0 -90 79q26 64 93 172q-108 136 -108 376zM307 451q0 -67 8 -121 q197 374 289 569q-20 5 -41 5q-136 0 -205 -167q-51 -128 -51 -286zM438 120q33 -15 71 -15q133 0 198 143q46 107 46 261q0 105 -23 195q-182 -379 -292 -584z" />
<glyph unicode="&#xf9;" horiz-adv-x="993" d="M64 466q0 84 8 299q5 189 2 297q77 56 128 57q123 0 123 -121q0 -46 -11.5 -135.5t-11.5 -135.5v-361q0 -61 33 -128q41 -77 98 -77q110 0 163 141q36 97 36 236v307q0 59 -30 146q64 59 122 59q61 0 111.5 -38.5t50.5 -97.5q0 -79 -19.5 -239t-19.5 -242q0 -72 6.5 -214 t6.5 -211q0 -59 -100 -59q-102 0 -130 100q-97 -64 -190 -64q-74 0 -168.5 39.5t-133.5 95.5q-74 108 -74 346zM248 1359q5 36 38.5 74.5t66.5 38.5q56 0 172 -102q82 -77 143 -157q5 -13 5 -23q0 -46 -43 -46q-67 0 -197 108q-44 36 -90 51q-59 20 -87 36z" />
<glyph unicode="&#xfa;" horiz-adv-x="993" d="M64 466q0 82 5 287q8 182 5 284q77 56 128 56q123 0 123 -120q0 -41 -11.5 -123t-11.5 -123v-361q0 -61 33 -128q41 -77 98 -77q110 0 163 141q36 97 36 236v384q0 59 -30 146q64 59 122 58q61 0 111.5 -38t50.5 -97q0 -92 -19.5 -278t-19.5 -280q0 -72 6.5 -214 t6.5 -211q0 -59 -100 -59q-102 0 -130 100q-97 -64 -190 -64q-74 0 -168.5 39.5t-133.5 95.5q-74 108 -74 346zM276 1190q0 10 3 23q64 79 146 157q115 102 171 102q33 0 65 -38.5t40 -74.5l-10 -20q-26 -18 -84 -36q-49 -15 -92 -51q-128 -108 -198 -108q-41 0 -41 46z" />
<glyph unicode="&#xfb;" horiz-adv-x="993" d="M64 466q0 82 5 287q8 182 5 284q77 56 128 56q123 0 123 -120q0 -41 -11.5 -123t-11.5 -123v-361q0 -61 33 -128q41 -77 98 -77q110 0 163 141q36 97 36 236v307q0 59 -30 146q64 59 122 59q61 0 111.5 -38.5t50.5 -97.5q0 -79 -19.5 -239t-19.5 -242q0 -72 6.5 -214 t6.5 -211q0 -59 -100 -59q-102 0 -130 100q-97 -64 -190 -64q-74 0 -168.5 39.5t-133.5 95.5q-74 108 -74 346zM148 1183q0 36 138.5 144.5t179.5 108.5q49 0 302 -207q10 -21 10 -39q0 -38 -54 -38q-38 0 -104 38q-84 49 -102.5 55.5t-51.5 16.5l-128 -66q-87 -44 -131 -44 q-59 0 -59 31z" />
<glyph unicode="&#xfc;" horiz-adv-x="993" d="M64 466q0 82 5 287q8 182 5 284q77 56 128 56q123 0 123 -120q0 -41 -11.5 -123t-11.5 -123v-361q0 -61 33 -128q41 -77 98 -77q110 0 163 141q36 97 36 236v307q0 59 -30 146q64 59 122 59q61 0 111.5 -38.5t50.5 -97.5q0 -79 -19.5 -239t-19.5 -242q0 -72 6.5 -214 t6.5 -211q0 -59 -100 -59q-102 0 -130 100q-97 -64 -190 -64q-74 0 -168.5 39.5t-133.5 95.5q-74 108 -74 346zM177 1249q0 44 37 71t78 27q44 0 79.5 -27t35.5 -71q0 -41 -36 -67.5t-79 -26.5q-41 0 -78 26.5t-37 67.5zM522 1249q0 44 37 71t78 27q44 0 80 -27t36 -71 q0 -41 -36 -67.5t-80 -26.5q-41 0 -78 26.5t-37 67.5z" />
<glyph unicode="&#xfd;" horiz-adv-x="1047" d="M38 -366q0 36 29.5 60t65.5 24q23 0 110 -69t200 -69q143 0 192 105q36 72 36 231q0 59 -3 97q-84 -56 -189 -57q-192 0 -297 139q-95 125 -95 320q0 20 26 645q77 33 123 33q51 0 151 -61q-61 -154 -62 -615q0 -294 149 -294q110 0 169 184q44 133 43 277v312 q0 -3 -8 84q105 51 157 52q54 0 128 -49q-23 -128 -44 -253q-26 -148 -26 -254v-696q0 -189 -108.5 -289t-298.5 -100q-123 0 -271 64q-177 74 -177 179zM243 1280v31q38 46 79.5 88.5t84.5 85.5q133 125 202 126q23 0 47.5 -11.5t45 -31t36 -42.5t20.5 -46l-5 -26 q-13 -28 -29.5 -47t-37.5 -27q-13 -5 -56.5 -29.5t-117.5 -70.5q-143 -82 -189 -82q-36 0 -59 20.5t-21 61.5z" />
<glyph unicode="&#xfe;" horiz-adv-x="1041" d="M56 -192q0 95 1.5 169t5.5 153.5t9 176.5t10 236q13 302 19.5 604t13.5 609q18 26 41 42.5t56 16.5q41 0 70.5 -15.5t47.5 -38.5t26 -51t8 -54q0 -51 -8 -139.5t-17 -178t-16.5 -165t-7.5 -103.5q74 90 192 90q69 0 134.5 -28.5t119 -75.5t92 -110t53.5 -132 q10 -44 16.5 -106.5t6.5 -164.5q0 -136 -32 -248.5t-89.5 -193.5t-137 -125.5t-176.5 -44.5q-128 0 -215 72q0 -44 -1.5 -87.5t-1.5 -87.5q0 -95 12 -188t47 -178q13 -28 19.5 -46t6.5 -25q0 -49 -27 -68t-83 -19q-31 0 -55 2.5t-43.5 18t-35 46t-30.5 89.5q-23 92 -27 179 t-4 169zM282 279q26 -15 99 -107q54 -70 113 -70q97 0 149.5 109t52.5 332q0 33 -2.5 101t-16.5 135.5t-46 117.5t-88 50q-74 0 -123 -61.5t-78.5 -157.5t-43.5 -215t-16 -234z" />
<glyph unicode="&#xff;" horiz-adv-x="1098" d="M64 -364q0 36 29.5 60.5t65.5 24.5q23 0 110 -69t199 -69q143 0 192 105q36 72 36 233q0 59 -2 94q-84 -54 -190 -53q-192 0 -297 138q-95 125 -94 322q0 20 25 648q77 33 123 33q51 0 151 -61q-61 -156 -61 -617q0 -297 148 -297q110 0 169 184q44 136 44 279v313 q0 -3 -8 87q105 51 156 51q54 0 128 -49q-23 -128 -43 -253q-26 -151 -26 -256v-702q0 -189 -109 -290t-298 -101q-123 0 -271 64q-177 77 -177 181zM238 1283q0 46 39.5 76.5t88.5 30.5t88.5 -30.5t39.5 -76.5q0 -44 -39.5 -74.5t-88.5 -30.5t-88.5 30.5t-39.5 74.5z M622 1283q0 46 39.5 76.5t88.5 30.5t88.5 -30.5t39.5 -76.5q0 -44 -39.5 -74.5t-88.5 -30.5t-88.5 30.5t-39.5 74.5z" />
<glyph unicode="&#x100;" horiz-adv-x="1546" d="M64 102q0 18 46 144q51 182 166 545q343 940 571 940q223 0 343 -497q54 -223 100 -684q67 -15 85 -25q41 -23 41 -72q0 -123 -110 -125q13 -59 56 -159q-3 -56 -46.5 -92t-102.5 -36q-46 0 -107 28q-33 67 -33 159q0 23 2.5 66.5t2.5 63.5q0 -18 -85 -18 q-143 0 -340 -12q-282 -15 -306 -43.5t-32 -274.5q-33 -49 -85 -48q-54 0 -110 44.5t-56 95.5zM393.5 1872.5q0.5 11.5 0.5 24.5q0 20 2.5 45.5t15.5 38.5q41 5 107.5 11.5t143 13t161 11.5t161.5 5q67 0 85 -24t18 -76q0 -41 -14.5 -65t-42.5 -24t-65 1t-78 3.5t-83.5 4 t-77.5 1.5q-74 0 -124 -4t-83.5 -10t-54 -10t-33.5 -4t-23 9t-13 27q-3 10 -2.5 21.5zM402 499q82 18 243 44q146 17 412 7q-113 893 -202 894q-72 0 -251 -420q-128 -302 -202 -525z" />
<glyph unicode="&#x101;" horiz-adv-x="1095" d="M64 241q0 120 164 225q148 95 279 95h217v61q3 269 -158 269q-202 0 -202 -190q0 -64 -72 -64q-44 0 -91 40t-47 83q0 143 102 235.5t246 92.5q481 0 481 -653q0 -330 -20 -466q-13 -79 -108 -79q-143 0 -128 143q-128 -61 -266 -61q-133 0 -254 66q-143 79 -143 203z M176.5 1232.5q0.5 11.5 0.5 24.5q0 20 2.5 45.5t15.5 38.5q41 5 107.5 11.5t143 13t161 11.5t161.5 5q67 0 85 -24t18 -76q0 -41 -14.5 -65t-42.5 -24t-65 1t-78 3.5t-83.5 4t-77.5 1.5q-74 0 -124 -4t-83.5 -10t-54 -10t-33.5 -4t-23 9t-13 27q-3 10 -2.5 21.5zM328 243 q0 -82 140 -82q87 0 164 49q92 54 92 133q0 51 -76 51q-320 0 -320 -151z" />
<glyph unicode="&#x102;" horiz-adv-x="1546" d="M64 102q0 18 46 144q51 182 166 545q343 940 571 940q223 0 343 -497q54 -223 100 -684q67 -15 85 -25q41 -23 41 -72q0 -123 -110 -125q13 -59 56 -159q-3 -56 -46.5 -92t-102.5 -36q-46 0 -107 28q-33 67 -33 159q0 23 2.5 66.5t2.5 63.5q0 -18 -85 -18 q-143 0 -340 -12q-282 -15 -306 -43.5t-32 -274.5q-33 -49 -85 -48q-54 0 -110 44.5t-56 95.5zM384 2055q0 100 130 100q72 0 96.5 -26.5t34.5 -57.5l5 -13q20 -10 82 -10q67 0 97 13l28 43h-2q23 51 110 51q131 0 131 -100q0 -113 -141 -181q-90 -41 -215 -41 q-59 0 -113 10t-100 31q-143 69 -143 181zM402 499q82 18 243 44q146 17 412 7q-113 893 -202 894q-72 0 -251 -420q-128 -302 -202 -525z" />
<glyph unicode="&#x103;" horiz-adv-x="1095" d="M64 241q0 120 164 225q148 95 279 95h217v61q3 269 -158 269q-202 0 -202 -190q0 -64 -72 -64q-44 0 -91 40t-47 83q0 143 102 235.5t246 92.5q481 0 481 -653q0 -330 -20 -466q-13 -79 -108 -79q-143 0 -128 143q-128 -61 -266 -61q-133 0 -254 66q-143 79 -143 203z M167 1415q0 100 130 100q72 0 96.5 -26.5t34.5 -57.5l5 -13q20 -10 82 -10q67 0 97 13l28 43h-2q23 51 110 51q131 0 131 -100q0 -113 -141 -181q-90 -41 -215 -41q-59 0 -113 10t-100 31q-143 69 -143 181zM328 243q0 -82 140 -82q87 0 164 49q92 54 92 133q0 51 -76 51 q-320 0 -320 -151z" />
<glyph unicode="&#x104;" horiz-adv-x="1546" d="M64 102q0 18 46 144q51 182 166 545q343 940 571 940q223 0 343 -497q54 -223 100 -684q67 -15 85 -25q41 -23 41 -72q0 -123 -110 -125q13 -59 56 -159q-3 -56 -46.5 -92t-102.5 -36q-46 0 -107 28q-33 67 -33 159q0 23 2.5 66.5t2.5 63.5q0 -18 -85 -18 q-143 0 -340 -12q-282 -15 -306 -43.5t-32 -274.5q-33 -49 -85 -48q-54 0 -110 44.5t-56 95.5zM402 499q82 18 243 44q146 17 412 7q-113 893 -202 894q-72 0 -251 -420q-128 -302 -202 -525zM927 -345q0 141 159 276q38 33 84 33q102 0 103 -84q0 -36 -59 -118 q-41 -61 -41 -94q0 -23 12.5 -47.5t28.5 -24.5l15 10q20 13 35.5 22t43.5 9q108 0 108 -90q0 -67 -102 -105h2q-31 -15 -63 -21.5t-62 -6.5q-54 0 -101.5 18t-84.5 50t-57.5 77t-20.5 96z" />
<glyph unicode="&#x105;" horiz-adv-x="1095" d="M64 241q0 120 164 225q148 95 279 95h217v61q3 269 -158 269q-202 0 -202 -190q0 -64 -72 -64q-44 0 -91 40t-47 83q0 143 102 235.5t246 92.5q481 0 481 -653q0 -330 -20 -466q-13 -79 -108 -79q-143 0 -128 143q-128 -61 -266 -61q-133 0 -254 66q-143 79 -143 203z M328 243q0 -82 140 -82q87 0 164 49q92 54 92 133q0 51 -76 51q-320 0 -320 -151zM494 -417q0 141 159 276q38 33 84 33q102 0 103 -84q0 -36 -59 -118q-41 -61 -41 -94q0 -23 12.5 -47.5t28.5 -24.5l15 10q20 13 35.5 22t43.5 9q108 0 108 -90q0 -67 -102 -105h2 q-31 -15 -63 -21.5t-62 -6.5q-54 0 -101.5 18t-84.5 50t-57.5 77t-20.5 96z" />
<glyph unicode="&#x106;" horiz-adv-x="1438" d="M64 722q0 271 84 509q95 271 280 425q146 120 296 121q218 0 331 -190q92 -154 92 -386q0 -105 -54 -264q-64 -195 -143 -195q-90 0 -136 113q26 18 72 59q51 56 51 220q0 159 -33 269q-51 166 -169 166q-82 0 -179 -105q-74 -79 -126 -176q-125 -246 -125 -612 q0 -532 399 -533q172 0 271 98q41 44 121 181q54 100 115 100q41 0 71.5 -32t30.5 -70q0 -49 -25 -118q-64 -169 -241 -266q-161 -87 -353 -87q-315 0 -484 238q-146 207 -146 535zM432 1961v31q38 46 79.5 88.5t84.5 85.5q133 125 202 126q23 0 47.5 -11.5t45 -31t36 -42.5 t20.5 -46l-5 -26q-13 -28 -29.5 -47t-37.5 -27q-13 -5 -56.5 -29.5t-117.5 -70.5q-143 -82 -189 -82q-36 0 -59 20.5t-21 61.5z" />
<glyph unicode="&#x107;" horiz-adv-x="1026" d="M38 410q0 197 105 440q125 292 292 292q92 0 223 -72q138 -79 161 -159q20 -69 21 -156q0 -79 -34 -179q-41 -128 -102 -128q-44 0 -82 26q-46 28 -46 69q0 3 23 59q13 26 13 140q0 95 -8 123q-15 79 -72 80q-125 0 -194 -218q-51 -161 -51 -325q0 -274 174 -274 q69 0 159 72q82 67 115 135q41 82 100 82q38 0 74 -45t36 -83q0 -79 -121 -187q-108 -100 -193.5 -125.5t-162.5 -25.5q-202 0 -316 128t-114 331zM235 1328v31q38 46 79.5 88.5t84.5 85.5q133 125 202 126q23 0 47.5 -11.5t45 -31t36 -42.5t20.5 -46l-5 -26 q-13 -28 -29.5 -47t-37.5 -27q-13 -5 -56.5 -29.5t-117.5 -70.5q-143 -82 -189 -82q-36 0 -59 20.5t-21 61.5z" />
<glyph unicode="&#x108;" horiz-adv-x="1438" d="M64 722q0 271 84 509q95 271 280 425q146 120 296 121q218 0 331 -190q92 -154 92 -386q0 -105 -54 -264q-64 -195 -143 -195q-90 0 -136 113q26 18 72 59q51 56 51 220q0 159 -33 269q-51 166 -169 166q-82 0 -179 -105q-74 -79 -126 -176q-125 -246 -125 -612 q0 -532 399 -533q172 0 271 98q41 44 121 181q54 100 115 100q41 0 71.5 -32t30.5 -70q0 -49 -25 -118q-64 -169 -241 -266q-161 -87 -353 -87q-315 0 -484 238q-146 207 -146 535zM317 1953q0 28 42.5 73t118.5 106q154 123 213 123q33 0 120 -56.5t228 -176.5 q21 -33 21 -61q0 -82 -103 -82q-28 0 -62.5 14t-75.5 47v-3q-82 64 -97 67l-26 10l-5 3q-5 0 -3 -3l-66 -36q-138 -100 -195 -99q-110 0 -110 74zM688 2014q3 0 5 -2l3 2l-5 3zM693 2012h3h-3z" />
<glyph unicode="&#x109;" horiz-adv-x="1026" d="M38 410q0 197 105 440q125 292 292 292q92 0 223 -72q138 -79 161 -159q20 -69 21 -156q0 -79 -34 -179q-41 -128 -102 -128q-44 0 -82 26q-46 28 -46 69q0 3 23 59q13 26 13 140q0 95 -8 123q-15 79 -72 80q-125 0 -194 -218q-51 -161 -51 -325q0 -274 174 -274 q69 0 159 72q82 67 115 135q41 82 100 82q38 0 74 -45t36 -83q0 -79 -121 -187q-108 -100 -193.5 -125.5t-162.5 -25.5q-202 0 -316 128t-114 331zM120 1321q0 28 42.5 73t118.5 106q154 123 213 123q33 0 120 -56.5t228 -176.5q21 -33 21 -61q0 -82 -103 -82 q-28 0 -62.5 14t-75.5 47v-3q-82 64 -97 67l-26 10l-5 3q-5 0 -3 -3l-66 -36q-138 -100 -195 -99q-110 0 -110 74zM491 1382q3 0 5 -2l3 2l-5 3zM496 1380h3h-3z" />
<glyph unicode="&#x10a;" horiz-adv-x="1438" d="M64 722q0 271 84 509q95 271 280 425q146 120 296 121q218 0 331 -190q92 -154 92 -386q0 -105 -54 -264q-64 -195 -143 -195q-90 0 -136 113q26 18 72 59q51 56 51 220q0 159 -33 269q-51 166 -169 166q-82 0 -179 -105q-74 -79 -126 -176q-125 -246 -125 -612 q0 -532 399 -533q172 0 271 98q41 44 121 181q54 100 115 100q41 0 71.5 -32t30.5 -70q0 -49 -25 -118q-64 -169 -241 -266q-161 -87 -353 -87q-315 0 -484 238q-146 207 -146 535zM496 2017q0 69 74 113q56 28 116 28q33 0 67.5 -9t61.5 -27t45 -45t18 -60q0 -31 -18 -56.5 t-45 -43.5t-61.5 -28t-67.5 -10q-61 0 -116 31q-74 44 -74 107z" />
<glyph unicode="&#x10b;" horiz-adv-x="1026" d="M38 410q0 197 105 440q125 292 292 292q92 0 223 -72q138 -79 161 -159q20 -69 21 -156q0 -79 -34 -179q-41 -128 -102 -128q-44 0 -82 26q-46 28 -46 69q0 3 23 59q13 26 13 140q0 95 -8 123q-15 79 -72 80q-125 0 -194 -218q-51 -161 -51 -325q0 -274 174 -274 q69 0 159 72q82 67 115 135q41 82 100 82q38 0 74 -45t36 -83q0 -79 -121 -187q-108 -100 -193.5 -125.5t-162.5 -25.5q-202 0 -316 128t-114 331zM299 1385q0 69 74 113q56 28 116 28q33 0 67.5 -9t61.5 -27t45 -45t18 -60q0 -31 -18 -56.5t-45 -43.5t-61.5 -28t-67.5 -10 q-61 0 -116 31q-74 44 -74 107z" />
<glyph unicode="&#x10c;" horiz-adv-x="1438" d="M64 722q0 271 84 509q95 271 280 425q146 120 296 121q218 0 331 -190q92 -154 92 -386q0 -105 -54 -264q-64 -195 -143 -195q-90 0 -136 113q26 18 72 59q51 56 51 220q0 159 -33 269q-51 166 -169 166q-82 0 -179 -105q-74 -79 -126 -176q-125 -246 -125 -612 q0 -532 399 -533q172 0 271 98q41 44 121 181q54 100 115 100q41 0 71.5 -32t30.5 -70q0 -49 -25 -118q-64 -169 -241 -266q-161 -87 -353 -87q-315 0 -484 238q-146 207 -146 535zM317 2173q0 82 103 82q28 0 62.5 -14t75.5 -48v3q38 -28 61 -44.5t36 -22.5h-8l29 -10h2 l8 -2q13 5 30.5 15t38.5 23q138 100 194 100q111 0 111 -74q0 -56 -162 -182q-156 -120 -212 -120q-31 0 -119.5 56t-231.5 177q-18 28 -18 61z" />
<glyph unicode="&#x10d;" horiz-adv-x="1026" d="M38 410q0 197 105 440q125 292 292 292q92 0 223 -72q138 -79 161 -159q20 -69 21 -156q0 -79 -34 -179q-41 -128 -102 -128q-44 0 -82 26q-46 28 -46 69q0 3 23 59q13 26 13 140q0 95 -8 123q-15 79 -72 80q-125 0 -194 -218q-51 -161 -51 -325q0 -274 174 -274 q69 0 159 72q82 67 115 135q41 82 100 82q38 0 74 -45t36 -83q0 -79 -121 -187q-108 -100 -193.5 -125.5t-162.5 -25.5q-202 0 -316 128t-114 331zM120 1541q0 82 103 82q28 0 62.5 -14t75.5 -48v3q38 -28 61 -44.5t36 -22.5h-8l29 -10h2l8 -2q13 5 30.5 15t38.5 23 q138 100 194 100q111 0 111 -74q0 -56 -162 -182q-156 -120 -212 -120q-31 0 -119.5 56t-231.5 177q-18 28 -18 61z" />
<glyph unicode="&#x10e;" horiz-adv-x="1423" d="M64 374q0 205 11.5 614.5t11.5 614.5q0 5 -2.5 17.5t-2.5 20.5q0 46 33 74t80 28q64 0 113.5 -46t37.5 -107q131 192 371 192q292 0 448 -220q133 -195 133 -500q0 -402 -184 -724q-220 -384 -592 -384q-133 0 -230 54q-54 -49 -105 -49q-31 0 -72 33q-51 143 -51 382z M302 381q0 -241 202 -240q182 0 331 187q123 159 169 361q40 182 40 384q0 522 -307 522q-125 0 -248 -128q-108 -113 -147.5 -244.5t-39.5 -290.5v-551zM310 2179q0 82 103 82q28 0 62.5 -14t75.5 -48v3q38 -28 61 -44.5t36 -22.5h-8l29 -10h2l8 -2q13 5 30.5 15t38.5 23 q138 100 194 100q111 0 111 -74q0 -56 -162 -182q-156 -120 -212 -120q-31 0 -119.5 56t-231.5 177q-18 28 -18 61z" />
<glyph unicode="&#x10f;" horiz-adv-x="1510" d="M38 407q0 225 93 458q118 294 307 295q113 0 230 -100q13 120 13 614q0 46 69 46q82 0 142 -41t60 -123q0 -56 -15 -145q-20 -120 -26 -144q-8 -79 -24.5 -468t-16.5 -430q0 -246 54 -369q-44 -72 -100 -72q-59 0 -105 45t-51 104q-120 -110 -246 -110q-187 0 -289 130 q-95 118 -95 310zM266 384q0 -238 138 -238q143 0 208 212q43 144 43 331q0 87 -38 158q-49 87 -128 87q-115 0 -177 -227q-46 -164 -46 -323zM1043 1030q-19 27 9 63q51 28 96 69t65 105q13 36 9 78.5t-47 70.5q-44 28 -74.5 56t-30.5 79q0 59 52.5 105t121.5 46 q74 0 128 -66.5t54 -166.5q0 -108 -20.5 -176.5t-71.5 -132.5q-51 -67 -115.5 -114.5t-115.5 -47.5q-41 5 -60 32z" />
<glyph unicode="&#x110;" horiz-adv-x="1530" d="M0 835q0 46 4 71.5t24 25.5h151q0 13 1.5 28t1.5 28q5 207 9 359.5t4 255.5q0 5 -3 17.5t-3 20.5q0 46 33.5 74t79.5 28q59 0 106.5 -38t47.5 -92q0 -15 -3 -23q131 192 371 192q138 0 246 -51.5t182 -146t113.5 -228t39.5 -294.5q0 -402 -184 -724q-220 -384 -591 -384 q-136 0 -231 54q-51 -49 -105 -49q-31 0 -71 33q-51 146 -51 382v155t2 198q-15 -5 -26.5 -7.5t-24.5 -2.5q-18 0 -38.5 10t-39.5 28t-32 38.5t-13 41.5zM410 381q0 -241 202 -240q82 0 160 43.5t144.5 117.5t117.5 174t77 213q41 174 41 384q0 522 -307 522 q-125 0 -249 -128q-108 -113 -147 -241t-39 -286q161 8 275 16.5t157 8.5q36 0 74.5 -9t71.5 -27t53.5 -40.5t20.5 -53.5q0 -67 -19 -85t-80 -18q-15 0 -20.5 4t-16 9t-32 10t-67.5 10.5t-124 9t-201 3.5q-26 0 -49 -1t-43 -1v-395z" />
<glyph unicode="&#x111;" horiz-adv-x="1100" d="M38 407q0 223 93 458q118 294 307 295q110 0 230 -100q3 31 5.5 91t4.5 147h-33q-82 0 -137 -9t-92 -20.5t-60 -20.5t-41 -9q-15 0 -33 10.5t-33.5 27t-27 37t-11.5 40.5q0 46 4 70.5t19 24.5q125 0 239 5t209 10v210q0 46 69 46q82 0 142 -41t60 -123q0 -18 -1 -35.5 t-4 -38.5q69 -5 129.5 -38.5t60.5 -89.5q0 -67 -17 -83.5t-70 -16.5q-8 0 -17 5.5t-23 10.5t-36 11.5t-58 8.5q-5 -20 -12.5 -136.5t-17.5 -354.5q-15 -323 -16 -407q0 -133 13 -229t41 -163q-41 -72 -100 -72t-105 45t-51 104q-118 -110 -246 -110q-179 0 -281.5 120 t-102.5 320zM266 384q0 -238 138 -238q59 0 105.5 39.5t79.5 111.5t49.5 172t16.5 220q0 49 -12.5 93.5t-34.5 77.5t-52.5 53.5t-66.5 20.5q-49 0 -90 -49.5t-70 -128t-46 -177t-17 -195.5z" />
<glyph unicode="&#x112;" horiz-adv-x="1377" d="M64 571q0 492 26 778q3 38 2 41q0 18 -5 52.5t-5 49.5q0 118 128 139q197 36 394 74q259 49 387 49q74 0 130 -26q77 -36 77 -100q0 -95 -125 -95q-15 0 -47.5 4t-47.5 4q-207 0 -566 -92q-20 -3 -38 -8t-26 -38q-28 -123 -28 -481q0 -54 49 -54q67 0 192 33t192 33 q74 0 171 -46q26 -82 26 -100q0 -64 -38.5 -69t-82.5 -10q-20 13 -56 13q-90 0 -215 -23q-105 -23 -212 -44q-15 -3 -27 -5t-17 -30q-5 -46 -5 -75q0 -197 8 -235q26 -148 140 -149q97 0 284 60.5t298 60.5q174 0 225 -90q0 -44 -18 -77q-23 -44 -62 -43q-10 0 -29 3.5 t-29 3.5q-110 0 -319 -66.5t-319 -66.5q-412 0 -412 625zM312.5 1895.5q0.5 11.5 0.5 24.5q0 20 2.5 45.5t15.5 38.5q41 5 107.5 11.5t143 13t161 11.5t161.5 5q67 0 85 -24t18 -76q0 -41 -14.5 -65t-42.5 -24t-65 1t-78 3.5t-83.5 4t-77.5 1.5q-74 0 -124 -4t-83.5 -10 t-54 -10t-33.5 -4t-23 9t-13 27q-3 10 -2.5 21.5z" />
<glyph unicode="&#x113;" horiz-adv-x="972" d="M38 417q0 184 90 410q110 276 266 276q141 0 303.5 -125.5t162.5 -260.5q0 -169 -151 -269q-133 -90 -317 -90q-36 0 -116 44q10 -243 144 -243q113 0 221.5 64t139.5 64q110 -1 110 -62q0 -128 -174 -199q-136 -56 -284 -57q-394 0 -395 448zM117.5 1248.5 q0.5 11.5 0.5 24.5q0 20 2.5 45.5t15.5 38.5q41 5 107.5 11.5t143 13t161 11.5t161.5 5q67 0 85 -24t18 -76q0 -41 -14.5 -65t-42.5 -24t-65 1t-78 3.5t-83.5 4t-77.5 1.5q-74 0 -124 -4t-83.5 -10t-54 -10t-33.5 -4t-23 9t-13 27q-3 10 -2.5 21.5zM307 663 q0 -49 33.5 -79.5t84.5 -30.5q187 0 187 156q0 64 -37 121.5t-99 57.5q-84 0 -130 -74q-38 -64 -39 -151z" />
<glyph unicode="&#x114;" horiz-adv-x="1377" d="M64 571q0 492 26 778q3 38 2 41q0 18 -5 52.5t-5 49.5q0 118 128 139q197 36 394 74q259 49 387 49q74 0 130 -26q77 -36 77 -100q0 -95 -125 -95q-15 0 -47.5 4t-47.5 4q-207 0 -566 -92q-20 -3 -38 -8t-26 -38q-28 -123 -28 -481q0 -54 49 -54q67 0 192 33t192 33 q74 0 171 -46q26 -82 26 -100q0 -64 -38.5 -69t-82.5 -10q-20 13 -56 13q-90 0 -215 -23q-105 -23 -212 -44q-15 -3 -27 -5t-17 -30q-5 -46 -5 -75q0 -197 8 -235q26 -148 140 -149q97 0 284 60.5t298 60.5q174 0 225 -90q0 -44 -18 -77q-23 -44 -62 -43q-10 0 -29 3.5 t-29 3.5q-110 0 -319 -66.5t-319 -66.5q-412 0 -412 625zM302 2078q0 100 130 100q72 0 96.5 -26.5t34.5 -57.5l5 -13q20 -10 82 -10q67 0 97 13l28 43h-2q23 51 110 51q131 0 131 -100q0 -113 -141 -181q-90 -41 -215 -41q-59 0 -113 10t-100 31q-143 69 -143 181z" />
<glyph unicode="&#x115;" horiz-adv-x="972" d="M38 417q0 184 90 410q110 276 266 276q141 0 303.5 -125.5t162.5 -260.5q0 -169 -151 -269q-133 -90 -317 -90q-36 0 -116 44q10 -243 144 -243q113 0 221.5 64t139.5 64q110 -1 110 -62q0 -128 -174 -199q-136 -56 -284 -57q-394 0 -395 448zM108 1431q0 100 130 100 q72 0 96.5 -26.5t34.5 -57.5l5 -13q20 -10 82 -10q67 0 97 13l28 43h-2q23 51 110 51q131 0 131 -100q0 -113 -141 -181q-90 -41 -215 -41q-59 0 -113 10t-100 31q-143 69 -143 181zM307 663q0 -49 33.5 -79.5t84.5 -30.5q187 0 187 156q0 64 -37 121.5t-99 57.5 q-84 0 -130 -74q-38 -64 -39 -151z" />
<glyph unicode="&#x116;" horiz-adv-x="1377" d="M64 571q0 492 26 778q3 38 2 41q0 18 -5 52.5t-5 49.5q0 118 128 139q197 36 394 74q259 49 387 49q74 0 130 -26q77 -36 77 -100q0 -95 -125 -95q-15 0 -47.5 4t-47.5 4q-207 0 -566 -92q-20 -3 -38 -8t-26 -38q-28 -123 -28 -481q0 -54 49 -54q67 0 192 33t192 33 q74 0 171 -46q26 -82 26 -100q0 -64 -38.5 -69t-82.5 -10q-20 13 -56 13q-90 0 -215 -23q-105 -23 -212 -44q-15 -3 -27 -5t-17 -30q-5 -46 -5 -75q0 -197 8 -235q26 -148 140 -149q97 0 284 60.5t298 60.5q174 0 225 -90q0 -44 -18 -77q-23 -44 -62 -43q-10 0 -29 3.5 t-29 3.5q-110 0 -319 -66.5t-319 -66.5q-412 0 -412 625zM466 1994q0 69 74 113q56 28 116 28q33 0 67.5 -9t61.5 -27t45 -45t18 -60q0 -31 -18 -56.5t-45 -43.5t-61.5 -28t-67.5 -10q-61 0 -116 31q-74 44 -74 107z" />
<glyph unicode="&#x117;" horiz-adv-x="972" d="M38 417q0 184 90 410q110 276 266 276q141 0 303.5 -125.5t162.5 -260.5q0 -169 -151 -269q-133 -90 -317 -90q-36 0 -116 44q10 -243 144 -243q113 0 221.5 64t139.5 64q110 -1 110 -62q0 -128 -174 -199q-136 -56 -284 -57q-394 0 -395 448zM271 1346q0 69 74 113 q56 28 116 28q33 0 67.5 -9t61.5 -27t45 -45t18 -60q0 -31 -18 -56.5t-45 -43.5t-61.5 -28t-67.5 -10q-61 0 -116 31q-74 44 -74 107zM307 663q0 -49 33.5 -79.5t84.5 -30.5q187 0 187 156q0 64 -37 121.5t-99 57.5q-84 0 -130 -74q-38 -64 -39 -151z" />
<glyph unicode="&#x118;" horiz-adv-x="1377" d="M64 571q0 492 26 778q3 38 2 41q0 18 -5 52.5t-5 49.5q0 118 128 139q197 36 394 74q259 49 387 49q74 0 130 -26q77 -36 77 -100q0 -95 -125 -95q-15 0 -47.5 4t-47.5 4q-207 0 -566 -92q-20 -3 -38 -8t-26 -38q-28 -123 -28 -481q0 -54 49 -54q67 0 192 33t192 33 q74 0 171 -46q26 -82 26 -100q0 -64 -38.5 -69t-82.5 -10q-20 13 -56 13q-90 0 -215 -23q-105 -23 -212 -44q-15 -3 -27 -5t-17 -30q-5 -46 -5 -75q0 -197 8 -235q26 -148 140 -149q97 0 284 60.5t298 60.5q174 0 225 -90q0 -44 -18 -77q-23 -44 -62 -43q-10 0 -29 3.5 t-29 3.5q-110 0 -319 -66.5t-319 -66.5q-412 0 -412 625zM412 -361q0 141 159 276q38 33 84 33q102 0 103 -84q0 -36 -59 -118q-41 -61 -41 -94q0 -23 12.5 -47.5t28.5 -24.5l15 10q20 13 35.5 22t43.5 9q108 0 108 -90q0 -67 -102 -105h2q-31 -15 -63 -21.5t-62 -6.5 q-54 0 -101.5 18t-84.5 50t-57.5 77t-20.5 96z" />
<glyph unicode="&#x119;" horiz-adv-x="972" d="M38 417q0 184 90 410q110 276 266 276q141 0 303.5 -125.5t162.5 -260.5q0 -169 -151 -269q-133 -90 -317 -90q-36 0 -116 44q10 -243 144 -243q113 0 221.5 64t139.5 64q110 -1 110 -62q0 -128 -174 -199q-136 -56 -284 -57q-394 0 -395 448zM218 -338q0 141 159 276 q38 33 84 33q102 0 103 -84q0 -36 -59 -118q-41 -61 -41 -94q0 -23 12.5 -47.5t28.5 -24.5l15 10q20 13 35.5 22t43.5 9q108 0 108 -90q0 -67 -102 -105h2q-31 -15 -63 -21.5t-62 -6.5q-54 0 -101.5 18t-84.5 50t-57.5 77t-20.5 96zM307 663q0 -49 33.5 -79.5t84.5 -30.5 q187 0 187 156q0 64 -37 121.5t-99 57.5q-84 0 -130 -74q-38 -64 -39 -151z" />
<glyph unicode="&#x11a;" horiz-adv-x="1377" d="M64 571q0 492 26 778q3 38 2 41q0 18 -5 52.5t-5 49.5q0 118 128 139q197 36 394 74q259 49 387 49q74 0 130 -26q77 -36 77 -100q0 -95 -125 -95q-15 0 -47.5 4t-47.5 4q-207 0 -566 -92q-20 -3 -38 -8t-26 -38q-28 -123 -28 -481q0 -54 49 -54q67 0 192 33t192 33 q74 0 171 -46q26 -82 26 -100q0 -64 -38.5 -69t-82.5 -10q-20 13 -56 13q-90 0 -215 -23q-105 -23 -212 -44q-15 -3 -27 -5t-17 -30q-5 -46 -5 -75q0 -197 8 -235q26 -148 140 -149q97 0 284 60.5t298 60.5q174 0 225 -90q0 -44 -18 -77q-23 -44 -62 -43q-10 0 -29 3.5 t-29 3.5q-110 0 -319 -66.5t-319 -66.5q-412 0 -412 625zM287 2150q0 82 103 82q28 0 62.5 -14t75.5 -48v3q38 -28 61 -44.5t36 -22.5h-8l29 -10h2l8 -2q13 5 30.5 15t38.5 23q138 100 194 100q111 0 111 -74q0 -56 -162 -182q-156 -120 -212 -120q-31 0 -119.5 56 t-231.5 177q-18 28 -18 61z" />
<glyph unicode="&#x11b;" horiz-adv-x="972" d="M38 417q0 184 90 410q110 276 266 276q141 0 303.5 -125.5t162.5 -260.5q0 -169 -151 -269q-133 -90 -317 -90q-36 0 -116 44q10 -243 144 -243q113 0 221.5 64t139.5 64q110 -1 110 -62q0 -128 -174 -199q-136 -56 -284 -57q-394 0 -395 448zM92 1503q0 82 103 82 q28 0 62.5 -14t75.5 -48v3q38 -28 61 -44.5t36 -22.5h-8l29 -10h2l8 -2q13 5 30.5 15t38.5 23q138 100 194 100q111 0 111 -74q0 -56 -162 -182q-156 -120 -212 -120q-31 0 -119.5 56t-231.5 177q-18 28 -18 61zM307 663q0 -49 33.5 -79.5t84.5 -30.5q187 0 187 156 q0 64 -37 121.5t-99 57.5q-84 0 -130 -74q-38 -64 -39 -151z" />
<glyph unicode="&#x11c;" horiz-adv-x="1410" d="M64 755q0 353 151 640q182 351 502 351q159 0 276 -74q131 -84 162 -231q26 -120 25 -115q0 -338 -153 -338q-46 0 -84.5 31t-38.5 77q0 26 26.5 74.5t26.5 76.5q0 146 -35 199q-46 74 -182 75q-138 0 -256 -172q-97 -143 -128 -299q-31 -166 -31 -308q0 -241 39 -348 q61 -174 248 -228q56 -15 92 -15q92 0 195 77q90 72 138 161q28 54 33 136l-10 7q-182 0 -282 -43q-31 -15 -61 -33q-41 -18 -64 -18q-64 0 -100 53.5t-36 120.5q0 56 59 92q38 20 241 49q184 23 258 23q210 0 210 -259q0 -223 -194.5 -397t-419.5 -174q-325 0 -482 254 q-125 207 -125 555zM302 1923q0 28 42.5 73t118.5 106q154 123 213 123q33 0 120 -56.5t228 -176.5q21 -33 21 -61q0 -82 -103 -82q-28 0 -62.5 14t-75.5 47v-3q-82 64 -97 67l-26 10l-5 3q-5 0 -3 -3l-66 -36q-138 -100 -195 -99q-110 0 -110 74zM673 1984q3 0 5 -2l3 2 l-5 3zM678 1982h3h-3z" />
<glyph unicode="&#x11d;" horiz-adv-x="1041" d="M51 -384q0 113 105 113q49 0 67 -29q33 -51 44.5 -61t83 -24t100.5 -14q230 0 230 289q0 84 -8 143q-110 -95 -263 -94q-64 0 -143.5 35.5t-120.5 84.5q-79 92 -79 274q0 218 99 479q123 320 300 320q108 0 205 -100q72 -95 143 -187q20 -26 64 -46q54 -26 69 -39 q-5 -64 -33 -225q-26 -141 -26 -225q0 -77 8 -230.5t8 -230.5q0 -159 -31 -236q-36 -97 -136 -157t-207 -60q-113 0 -279 61q-200 72 -200 159zM128 1311q0 28 42.5 73t118.5 106q154 123 213 123q33 0 120 -56.5t228 -176.5q21 -33 21 -61q0 -82 -103 -82q-28 0 -62.5 14 t-75.5 47v-3q-82 64 -97 67l-26 10l-5 3q-5 0 -3 -3l-66 -36q-138 -100 -195 -99q-110 0 -110 74zM307 353q0 -251 131 -251q123 0 194 200q57 154 57 305q0 38 -36 64q-15 236 -164 235q-84 0 -141 -238q-41 -182 -41 -315zM499 1372q3 0 5 -2l3 2l-5 3zM504 1370h3h-3z " />
<glyph unicode="&#x11e;" horiz-adv-x="1410" d="M64 755q0 353 151 640q182 351 502 351q159 0 276 -74q131 -84 162 -231q26 -120 25 -115q0 -338 -153 -338q-46 0 -84.5 31t-38.5 77q0 26 26.5 74.5t26.5 76.5q0 146 -35 199q-46 74 -182 75q-138 0 -256 -172q-97 -143 -128 -299q-31 -166 -31 -308q0 -241 39 -348 q61 -174 248 -228q56 -15 92 -15q92 0 195 77q90 72 138 161q28 54 33 136l-10 7q-182 0 -282 -43q-31 -15 -61 -33q-41 -18 -64 -18q-64 0 -100 53.5t-36 120.5q0 56 59 92q38 20 241 49q184 23 258 23q210 0 210 -259q0 -223 -194.5 -397t-419.5 -174q-325 0 -482 254 q-125 207 -125 555zM318 2071q0 100 130 100q72 0 96.5 -26.5t34.5 -57.5l5 -13q20 -10 82 -10q67 0 97 13l28 43h-2q23 51 110 51q131 0 131 -100q0 -113 -141 -181q-90 -41 -215 -41q-59 0 -113 10t-100 31q-143 69 -143 181z" />
<glyph unicode="&#x11f;" horiz-adv-x="1041" d="M51 -384q0 113 105 113q49 0 67 -29q33 -51 44.5 -61t83 -24t100.5 -14q230 0 230 289q0 84 -8 143q-110 -95 -263 -94q-64 0 -143.5 35.5t-120.5 84.5q-79 92 -79 274q0 218 99 479q123 320 300 320q108 0 205 -100q72 -95 143 -187q20 -26 64 -46q54 -26 69 -39 q-5 -64 -33 -225q-26 -141 -26 -225q0 -77 8 -230.5t8 -230.5q0 -159 -31 -236q-36 -97 -136 -157t-207 -60q-113 0 -279 61q-200 72 -200 159zM143 1459q0 100 130 100q72 0 96.5 -26.5t34.5 -57.5l5 -13q20 -10 82 -10q67 0 97 13l28 43h-2q23 51 110 51q131 0 131 -100 q0 -113 -141 -181q-90 -41 -215 -41q-59 0 -113 10t-100 31q-143 69 -143 181zM307 353q0 -251 131 -251q123 0 194 200q57 154 57 305q0 38 -36 64q-15 236 -164 235q-84 0 -141 -238q-41 -182 -41 -315z" />
<glyph unicode="&#x120;" horiz-adv-x="1410" d="M64 755q0 353 151 640q182 351 502 351q159 0 276 -74q131 -84 162 -231q26 -120 25 -115q0 -338 -153 -338q-46 0 -84.5 31t-38.5 77q0 26 26.5 74.5t26.5 76.5q0 146 -35 199q-46 74 -182 75q-138 0 -256 -172q-97 -143 -128 -299q-31 -166 -31 -308q0 -241 39 -348 q61 -174 248 -228q56 -15 92 -15q92 0 195 77q90 72 138 161q28 54 33 136l-10 7q-182 0 -282 -43q-31 -15 -61 -33q-41 -18 -64 -18q-64 0 -100 53.5t-36 120.5q0 56 59 92q38 20 241 49q184 23 258 23q210 0 210 -259q0 -223 -194.5 -397t-419.5 -174q-325 0 -482 254 q-125 207 -125 555zM481 1986q0 69 74 113q56 28 116 28q33 0 67.5 -9t61.5 -27t45 -45t18 -60q0 -31 -18 -56.5t-45 -43.5t-61.5 -28t-67.5 -10q-61 0 -116 31q-74 44 -74 107z" />
<glyph unicode="&#x121;" horiz-adv-x="1041" d="M51 -384q0 113 105 113q49 0 67 -29q33 -51 44.5 -61t83 -24t100.5 -14q230 0 230 289q0 84 -8 143q-110 -95 -263 -94q-64 0 -143.5 35.5t-120.5 84.5q-79 92 -79 274q0 218 99 479q123 320 300 320q108 0 205 -100q72 -95 143 -187q20 -26 64 -46q54 -26 69 -39 q-5 -64 -33 -225q-26 -141 -26 -225q0 -77 8 -230.5t8 -230.5q0 -159 -31 -236q-36 -97 -136 -157t-207 -60q-113 0 -279 61q-200 72 -200 159zM307 353q0 -251 131 -251q123 0 194 200q57 154 57 305q0 38 -36 64q-15 236 -164 235q-84 0 -141 -238q-41 -182 -41 -315z M307 1375q0 69 74 113q56 28 116 28q33 0 67.5 -9t61.5 -27t45 -45t18 -60q0 -31 -18 -56.5t-45 -43.5t-61.5 -28t-67.5 -10q-61 0 -116 31q-74 44 -74 107z" />
<glyph unicode="&#x122;" horiz-adv-x="1410" d="M64 755q0 353 151 640q182 351 502 351q159 0 276 -74q131 -84 162 -231q26 -120 25 -115q0 -338 -153 -338q-46 0 -84.5 31t-38.5 77q0 26 26.5 74.5t26.5 76.5q0 146 -35 199q-46 74 -182 75q-138 0 -256 -172q-97 -143 -128 -299q-31 -166 -31 -308q0 -241 39 -348 q61 -174 248 -228q56 -15 92 -15q92 0 195 77q90 72 138 161q28 54 33 136l-10 7q-182 0 -282 -43q-31 -15 -61 -33q-41 -18 -64 -18q-64 0 -100 53.5t-36 120.5q0 56 59 92q38 20 241 49q184 23 258 23q210 0 210 -259q0 -223 -194.5 -397t-419.5 -174q-325 0 -482 254 q-125 207 -125 555zM402 -594l2 64q87 79 138.5 184.5t76.5 238.5q51 26 72 25q15 0 38 -12.5t46.5 -29.5t40 -37.5t21.5 -35.5l-3 -28q-187 -415 -268 -415q-46 0 -164 46z" />
<glyph unicode="&#x123;" horiz-adv-x="1041" d="M51 -384q0 113 105 113q49 0 67 -29q33 -51 44.5 -61t83 -24t100.5 -14q230 0 230 289q0 84 -8 143q-110 -95 -263 -94q-64 0 -143.5 35.5t-120.5 84.5q-79 92 -79 274q0 218 99 479q123 320 300 320q108 0 205 -100q72 -95 143 -187q20 -26 64 -46q54 -26 69 -39 q-5 -64 -33 -225q-26 -141 -26 -225q0 -77 8 -230.5t8 -230.5q0 -159 -31 -236q-36 -97 -136 -157t-207 -60q-113 0 -279 61q-200 72 -200 159zM307 353q0 -251 131 -251q123 0 194 200q57 154 57 305q0 38 -36 64q-15 236 -164 235q-84 0 -141 -238q-41 -182 -41 -315z M366 1241l2 64q87 79 138.5 184.5t76.5 238.5q51 26 72 25q15 0 38 -12.5t46.5 -29.5t40 -37.5t21.5 -35.5l-3 -28q-187 -415 -268 -415q-46 0 -164 46z" />
<glyph unicode="&#x124;" horiz-adv-x="1617" d="M64 722q0 31 33.5 42.5t63.5 21.5q3 33 11 120q8 74 7 118q0 451 49 573q41 100 141 100q61 0 115 -39.5t54 -98.5q0 -31 -21 -77q-28 -61 -31 -71q-69 -215 -69 -512v-59q23 3 121 20q302 61 568 62q8 376 20 486q44 369 177 369q79 0 130.5 -60.5t51.5 -139.5 q0 -23 -36 -51t-41 -41q-67 -125 -61 -494l2 -100q8 3 18 2q38 0 73 -43.5t35 -84.5q0 -31 -49 -43q-38 -8 -77 -15q3 -120 5 -244q5 -156 34 -233q20 -64 20 -84q0 -51 -38.5 -93.5t-89.5 -42.5q-97 0 -128 103q-5 20 -23 179q-5 56 -5 136v104q-3 105 -13 172 q-148 -5 -353 -44q-177 -33 -351 -66q10 -33 10 -277q0 -195 59 -256q8 -13 8 -25q0 -67 -103 -67q-95 0 -148 59q-33 36 -64 533q-49 10 -77 58.5t-28 102.5zM402 1953q0 28 42.5 73t118.5 106q154 123 213 123q33 0 120 -56.5t228 -176.5q21 -33 21 -61q0 -82 -103 -82 q-28 0 -62.5 14t-75.5 47v-3q-82 64 -97 67l-26 10l-5 3q-5 0 -3 -3l-66 -36q-138 -100 -195 -99q-110 0 -110 74zM773 2014q3 0 5 -2l3 2l-5 3zM778 2012h3h-3z" />
<glyph unicode="&#x125;" horiz-adv-x="954" d="M64 136l15 1479q0 8 -2.5 21t-2.5 18q0 92 103 92q49 0 112.5 -45t63.5 -91q0 -56 -24 -166t-24 -167q0 -72 5 -227q56 33 94 33q100 0 218 -49q151 -64 210 -207q44 -108 44 -297v-571q-49 -49 -128 -49q-54 0 -111 67q3 225 3 348q0 568 -166 568q-172 0 -172 -458 q0 -26 3 -74v-74q0 -38 12.5 -116.5t12.5 -116.5q0 -33 -39.5 -60t-72.5 -27q-64 0 -109 52.5t-45 116.5zM97 1923q0 28 42.5 73t118.5 106q154 123 213 123q33 0 120 -56.5t228 -176.5q21 -33 21 -61q0 -82 -103 -82q-28 0 -62.5 14t-75.5 47v-3q-82 64 -97 67l-26 10l-5 3 q-5 0 -3 -3l-66 -36q-138 -100 -195 -99q-110 0 -110 74zM468 1984q3 0 5 -2l3 2l-5 3zM473 1982h3h-3z" />
<glyph unicode="&#x128;" horiz-adv-x="519" d="M-123 1925q0 74 131 133q95 44 161 44q36 0 70.5 -10.5t70.5 -28.5q26 -15 39.5 -20t16.5 -5q18 0 56 23q61 41 100 41q123 0 123 -100q0 -69 -128 -133q-108 -51 -169 -51q-64 0 -138 36q-28 15 -45 20t-24 5q-20 0 -54 -20q-28 -13 -51 -22t-36 -9q-123 0 -123 97z M90 914q0 105 3.5 316t3.5 319q0 59 61.5 112.5t120.5 53.5q46 0 100 -38t54 -82q0 -13 -23 -56q-10 -20 -21 -116q-54 -573 -54 -1006q0 -113 21 -181q18 -59 74 -162q3 -5 3 -15q0 -54 -126 -54h-23q-131 3 -159 210q-36 253 -35 699z" />
<glyph unicode="&#x129;" horiz-adv-x="419" d="M-184 1275q0 74 131 133q95 44 161 44q36 0 70.5 -10.5t70.5 -28.5q26 -15 39.5 -20t16.5 -5q18 0 56 23q61 41 100 41q123 0 123 -100q0 -69 -128 -133q-108 -51 -169 -51q-64 0 -138 36q-28 15 -45 20t-24 5q-20 0 -54 -20q-28 -13 -51 -22t-36 -9q-123 0 -123 97z M64 141v886q72 36 115 35q44 0 101.5 -33t57.5 -69q0 -44 -20.5 -127t-20.5 -126v-515q0 -49 28 -151q-38 -56 -84 -56q-177 0 -177 156z" />
<glyph unicode="&#x12a;" horiz-adv-x="519" d="M-84.5 1857.5q0.5 11.5 0.5 24.5q0 20 2.5 45.5t15.5 38.5q41 5 107.5 11.5t143 13t161 11.5t161.5 5q67 0 85 -24t18 -76q0 -41 -14.5 -65t-42.5 -24t-65 1t-78 3.5t-83.5 4t-77.5 1.5q-74 0 -124 -4t-83.5 -10t-54 -10t-33.5 -4t-23 9t-13 27q-3 10 -2.5 21.5zM90 914 q0 105 3.5 316t3.5 319q0 59 61.5 112.5t120.5 53.5q46 0 100 -38t54 -82q0 -13 -23 -56q-10 -20 -21 -116q-54 -573 -54 -1006q0 -113 21 -181q18 -59 74 -162q3 -5 3 -15q0 -54 -126 -54h-23q-131 3 -159 210q-36 253 -35 699z" />
<glyph unicode="&#x12b;" horiz-adv-x="419" d="M-146.5 1207.5q0.5 11.5 0.5 24.5q0 20 2.5 45.5t15.5 38.5q41 5 107.5 11.5t143 13t161 11.5t161.5 5q67 0 85 -24t18 -76q0 -41 -14.5 -65t-42.5 -24t-65 1t-78 3.5t-83.5 4t-77.5 1.5q-74 0 -124 -4t-83.5 -10t-54 -10t-33.5 -4t-23 9t-13 27q-3 10 -2.5 21.5zM64 141 v886q72 36 115 35q44 0 101.5 -33t57.5 -69q0 -44 -20.5 -127t-20.5 -126v-515q0 -49 28 -151q-38 -56 -84 -56q-177 0 -177 156z" />
<glyph unicode="&#x12c;" horiz-adv-x="519" d="M-69 2017q0 64 90 64q59 0 74 -29.5t28 -57.5q33 -28 133 -28q110 0 146 28q3 5 31 56q15 31 74 31q90 0 90 -64q0 -97 -123 -154q-97 -44 -210 -43q-113 0 -210 43q-123 56 -123 154zM90 914q0 105 3.5 316t3.5 319q0 59 61.5 112.5t120.5 53.5q46 0 100 -38t54 -82 q0 -13 -23 -56q-10 -20 -21 -116q-54 -573 -54 -1006q0 -113 21 -181q18 -59 74 -162q3 -5 3 -15q0 -54 -126 -54h-23q-131 3 -159 210q-36 253 -35 699z" />
<glyph unicode="&#x12d;" horiz-adv-x="419" d="M-131 1365q0 64 90 64q59 0 74 -29.5t28 -57.5q33 -28 133 -28q110 0 146 28q3 5 31 56q15 31 74 31q90 0 90 -64q0 -97 -123 -154q-97 -44 -210 -43q-113 0 -210 43q-123 56 -123 154zM64 141v886q72 36 115 35q44 0 101.5 -33t57.5 -69q0 -44 -20.5 -127t-20.5 -126 v-515q0 -49 28 -151q-38 -56 -84 -56q-177 0 -177 156z" />
<glyph unicode="&#x12e;" horiz-adv-x="519" d="M15 -302q0 141 159 276q38 33 84 33q102 0 103 -84q0 -36 -59 -118q-41 -61 -41 -94q0 -23 12.5 -47.5t28.5 -24.5l15 10q20 13 35.5 22t43.5 9q108 0 108 -90q0 -67 -102 -105h2q-31 -15 -63 -21.5t-62 -6.5q-54 0 -101.5 18t-84.5 50t-57.5 77t-20.5 96zM90 914 q0 105 3.5 316t3.5 319q0 59 61.5 112.5t120.5 53.5q46 0 100 -38t54 -82q0 -13 -23 -56q-10 -20 -21 -116q-54 -573 -54 -1006q0 -113 21 -181q18 -59 74 -162q3 -5 3 -15q0 -54 -126 -54h-23q-131 3 -159 210q-36 253 -35 699z" />
<glyph unicode="&#x12f;" horiz-adv-x="417" d="M-46 -322q0 141 159 276q38 33 84 33q102 0 103 -84q0 -36 -59 -118q-41 -61 -41 -94q0 -23 12.5 -47.5t28.5 -24.5l15 10q20 13 35.5 22t43.5 9q108 0 108 -90q0 -67 -102 -105h2q-31 -15 -63 -21.5t-62 -6.5q-54 0 -101.5 18t-84.5 50t-57.5 77t-20.5 96zM38 596 q0 253 21 425q-3 13 -3 26q0 46 72 46q64 0 128 -25q82 -28 82 -82q0 -46 -20.5 -130.5t-20.5 -131.5v-527q0 -49 28 -153q-38 -59 -84 -59q-161 0 -177 161q-26 300 -26 450zM46 1375q0 56 39.5 92t98.5 36q69 0 123 -45t54 -114q0 -56 -38.5 -92t-94.5 -36 q-67 0 -124.5 46t-57.5 113z" />
<glyph unicode="&#x130;" horiz-adv-x="519" d="M90 914q0 105 3.5 316t3.5 319q0 59 61.5 112.5t120.5 53.5q46 0 100 -38t54 -82q0 -13 -23 -56q-10 -20 -21 -116q-54 -573 -54 -1006q0 -113 21 -181q18 -59 74 -162q3 -5 3 -15q0 -54 -126 -54h-23q-131 3 -159 210q-36 253 -35 699zM108 1925q0 51 54 82 q46 26 100 26t103.5 -28.5t49.5 -79.5q0 -49 -50 -76.5t-103 -27.5q-54 0 -100 25q-54 31 -54 79z" />
<glyph unicode="&#x131;" horiz-adv-x="419" d="M64 141v886q72 36 115 35q44 0 101.5 -33t57.5 -69q0 -44 -20.5 -127t-20.5 -126v-515q0 -49 28 -151q-38 -56 -84 -56q-177 0 -177 156z" />
<glyph unicode="&#x132;" horiz-adv-x="1920" d="M90 914q0 105 3.5 316t3.5 319q0 59 61.5 112.5t120.5 53.5q46 0 100 -38t54 -82q0 -13 -23 -56q-10 -20 -21 -116q-54 -573 -54 -1006q0 -113 21 -181q18 -59 74 -162q3 -5 3 -15q0 -54 -126 -54h-23q-131 3 -159 210q-36 253 -35 699zM546 566q0 67 30 148 q38 100 92 100q84 0 128 -79q38 -64 39 -154q0 -28 -2.5 -83t-2.5 -81q0 -72 67.5 -148.5t139.5 -76.5q261 0 261 699q0 123 -20 522q-31 -8 -162 -74q-118 -61 -143 -62q-51 0 -84.5 43.5t-33.5 95.5q0 84 177 143q128 38 253 77q26 97 116 97q26 0 97 -43q20 3 62.5 13 t65.5 10q59 0 115 -36t56 -92q0 -90 -102 -90q-23 0 -65 5t-66 5q-33 0 -33 -25q0 -36 4 -110.5t4 -112.5q0 -1288 -487 -1288q-195 0 -355 205q-151 192 -151 392z" />
<glyph unicode="&#x133;" horiz-adv-x="970" d="M-3 -461q0 92 105 92q28 0 59 -12q108 -128 259 -128q215 0 215 391q0 13 -18 1091l41 48q87 23 120 23q59 0 120 -61q-56 -156 -56 -241q0 -164 7.5 -495t7.5 -498q0 -187 -97 -322q-108 -151 -287 -151q-95 0 -276 89q-200 95 -200 174zM38 596q0 253 21 425 q-3 13 -3 26q0 46 72 46q64 0 128 -25q82 -28 82 -82q0 -46 -20.5 -130.5t-20.5 -131.5v-527q0 -49 28 -153q-38 -59 -84 -59q-161 0 -177 161q-26 300 -26 450zM46 1375q0 56 39.5 92t98.5 36q69 0 123 -45t54 -114q0 -56 -38.5 -92t-94.5 -36q-67 0 -124.5 46t-57.5 113z M594 1257q0 123 128 123q72 0 128 -46t56 -115q0 -56 -47.5 -93.5t-103.5 -37.5q-28 0 -85 46q-46 38 -71 69q-5 26 -5 54z" />
<glyph unicode="&#x134;" horiz-adv-x="1400" d="M26 566q0 67 30 148q38 100 92 100q84 0 128 -79q38 -64 39 -154q0 -28 -2.5 -83t-2.5 -81q0 -72 67.5 -148.5t139.5 -76.5q261 0 261 699q0 123 -20 522q-31 -8 -162 -74q-118 -61 -143 -62q-51 0 -84.5 43.5t-33.5 95.5q0 84 177 143q128 38 253 77q26 97 116 97 q26 0 97 -43q20 3 62.5 13t65.5 10q59 0 115 -36t56 -92q0 -90 -102 -90q-23 0 -65 5t-66 5q-33 0 -33 -25q0 -36 4 -110.5t4 -112.5q0 -1288 -487 -1288q-195 0 -355 205q-151 192 -151 392zM302 1872q0 41 153.5 162.5t199.5 121.5q51 0 333 -233q13 -21 13 -41 q0 -46 -59 -46q-44 0 -118 56q-87 64 -118 77q-18 5 -51 18q-38 -13 -107 -51q-136 -100 -179 -100q-67 0 -67 36z" />
<glyph unicode="&#x136;" horiz-adv-x="1538" d="M64 1004q0 466 33 647q20 108 118 108q61 0 138 -49t77 -105q0 -38 -23 -51t-41 -23q-18 -20 -41 -356q-15 -261 -20 -399q689 945 865 944q28 0 64 -15q28 -36 54 -74q33 -46 33 -82q0 -33 -24.5 -57.5t-57.5 -24.5q-20 0 -54 15l-7 8q-61 -8 -249.5 -233t-188.5 -294 q0 -148 171 -425q179 -294 315 -295q18 0 68 22t83 22q95 0 95 -82q0 -69 -84 -110q-69 -31 -146 -31q-356 0 -717 666q-215 -248 -215 -338q0 -236 59 -336l7 -71q-56 -64 -112 -64q-84 0 -142 134t-58 949zM446 -520l2 64q87 79 138.5 184.5t76.5 238.5q51 26 72 25 q15 0 38 -12.5t46.5 -29.5t40 -37.5t21.5 -35.5l-3 -28q-187 -415 -268 -415q-46 0 -164 46z" />
<glyph unicode="&#x137;" horiz-adv-x="1072" d="M51 1649q0 49 59 87q51 36 102 36q38 0 83 -29.5t45 -65.5q0 -10 -15 -71.5t-15 -189.5q0 -41 -8 -684q10 10 277 254q220 205 258 204q136 0 131 -166v-26q-110 -64 -284 -202q-220 -172 -221 -228q0 -5 139 -161q131 -148 163 -184q154 -161 287 -220v-82 q-97 -72 -153 -72q-74 0 -215 154q-100 108 -198 217q-56 67 -179 187l-7 -5v-225q0 -20 16.5 -60t16.5 -63q0 -36 -37 -63t-76 -27q-67 0 -110 43.5t-43 110.5v338q0 31 8.5 93.5t8.5 93.5v688q0 156 -23 251q-10 44 -10 67zM182 -520l2 64q87 79 138.5 184.5t76.5 238.5 q51 26 72 25q15 0 38 -12.5t46.5 -29.5t40 -37.5t21.5 -35.5l-3 -28q-187 -415 -268 -415q-46 0 -164 46z" />
<glyph unicode="&#x139;" horiz-adv-x="1175" d="M64 525q0 151 24.5 448t24.5 448q0 28 -5.5 89.5t-5.5 92.5t6 69q51 61 125 61q72 0 110 -92q31 -72 31 -154q0 -174 -33.5 -517t-33.5 -514q0 -302 172 -302q77 0 220 52.5t220 52.5q72 0 110 -64q31 -51 31 -128q-276 -100 -584 -100q-241 0 -338 169q-74 131 -74 389z M304 1917v31q38 46 79.5 88.5t84.5 85.5q133 125 202 126q23 0 47.5 -11.5t45 -31t36 -42.5t20.5 -46l-5 -26q-13 -28 -29.5 -47t-37.5 -27q-13 -5 -56.5 -29.5t-117.5 -70.5q-143 -82 -189 -82q-36 0 -59 20.5t-21 61.5z" />
<glyph unicode="&#x13a;" horiz-adv-x="412" d="M-59 1950v31q38 46 79.5 88.5t84.5 85.5q133 125 202 126q23 0 47.5 -11.5t45 -31t36 -42.5t20.5 -46l-5 -26q-13 -28 -29.5 -47t-37.5 -27q-13 -5 -56.5 -29.5t-117.5 -70.5q-143 -82 -189 -82q-36 0 -59 20.5t-21 61.5zM51 1710q84 56 133 56q56 0 107.5 -37t51.5 -93 q0 -28 -13 -67q-18 -61 -20 -66q-33 -159 -34 -451v-476q8 -323 54 -451q13 -36 13 -56q0 -46 -37 -78t-86 -32q-161 0 -161 422q0 192 4 576t4 576q0 31 -8 90t-8 87z" />
<glyph unicode="&#x13b;" horiz-adv-x="1175" d="M64 525q0 151 24.5 448t24.5 448q0 28 -5.5 89.5t-5.5 92.5t6 69q51 61 125 61q72 0 110 -92q31 -72 31 -154q0 -174 -33.5 -517t-33.5 -514q0 -302 172 -302q77 0 220 52.5t220 52.5q72 0 110 -64q31 -51 31 -128q-276 -100 -584 -100q-241 0 -338 169q-74 131 -74 389z M292 -571l2 64q87 79 138.5 184.5t76.5 238.5q51 26 72 25q15 0 38 -12.5t46.5 -29.5t40 -37.5t21.5 -35.5l-3 -28q-187 -415 -268 -415q-46 0 -164 46z" />
<glyph unicode="&#x13c;" horiz-adv-x="412" d="M-143 -571l2 64q87 79 138.5 184.5t76.5 238.5q51 26 72 25q15 0 38 -12.5t46.5 -29.5t40 -37.5t21.5 -35.5l-3 -28q-187 -415 -268 -415q-46 0 -164 46zM51 1710q84 56 133 56q56 0 107.5 -37t51.5 -93q0 -28 -13 -67q-18 -61 -20 -66q-33 -159 -34 -451v-476 q8 -323 54 -451q13 -36 13 -56q0 -46 -37 -78t-86 -32q-161 0 -161 422q0 192 4 576t4 576q0 31 -8 90t-8 87z" />
<glyph unicode="&#x13d;" horiz-adv-x="1175" d="M64 525q0 151 24.5 448t24.5 448q0 28 -5.5 89.5t-5.5 92.5t6 69q51 61 125 61q72 0 110 -92q31 -72 31 -154q0 -174 -33.5 -517t-33.5 -514q0 -302 172 -302q77 0 220 52.5t220 52.5q72 0 110 -64q31 -51 31 -128q-276 -100 -584 -100q-241 0 -338 169q-74 131 -74 389z M189 2130q0 82 103 82q28 0 62.5 -14t75.5 -48v3q38 -28 61 -44.5t36 -22.5h-8l29 -10h2l8 -2q13 5 30.5 15t38.5 23q138 100 194 100q111 0 111 -74q0 -56 -162 -182q-156 -120 -212 -120q-31 0 -119.5 56t-231.5 177q-18 28 -18 61z" />
<glyph unicode="&#x13e;" horiz-adv-x="412" d="M-174 2163q0 82 103 82q28 0 62.5 -14t75.5 -48v3q38 -28 61 -44.5t36 -22.5h-8l29 -10h2l8 -2q13 5 30.5 15t38.5 23q138 100 194 100q111 0 111 -74q0 -56 -162 -182q-156 -120 -212 -120q-31 0 -119.5 56t-231.5 177q-18 28 -18 61zM51 1710q84 56 133 56 q56 0 107.5 -37t51.5 -93q0 -28 -13 -67q-18 -61 -20 -66q-33 -159 -34 -451v-476q8 -323 54 -451q13 -36 13 -56q0 -46 -37 -78t-86 -32q-161 0 -161 422q0 192 4 576t4 576q0 31 -8 90t-8 87z" />
<glyph unicode="&#x13f;" horiz-adv-x="1175" d="M64 525q0 151 24.5 448t24.5 448q0 28 -5.5 89.5t-5.5 92.5t6 69q51 61 125 61q72 0 110 -92q31 -72 31 -154q0 -174 -33.5 -517t-33.5 -514q0 -302 172 -302q77 0 220 52.5t220 52.5q72 0 110 -64q31 -51 31 -128q-276 -100 -584 -100q-241 0 -338 169q-74 131 -74 389z M492 888q0 51 54 82q46 26 100 26t103.5 -28.5t49.5 -79.5q0 -49 -50 -76.5t-103 -27.5q-54 0 -100 25q-54 31 -54 79z" />
<glyph unicode="&#x140;" horiz-adv-x="780" d="M51 1710q84 56 133 56q56 0 107.5 -37t51.5 -93q0 -28 -13 -67q-18 -61 -20 -66q-33 -159 -34 -451v-476q8 -323 54 -451q13 -36 13 -56q0 -46 -37 -78t-86 -32q-161 0 -161 422q0 192 4 576t4 576q0 31 -8 90t-8 87zM425 885q0 51 54 82q46 26 100 26t103.5 -28.5 t49.5 -79.5q0 -49 -50 -76.5t-103 -27.5q-54 0 -100 25q-54 31 -54 79z" />
<glyph unicode="&#x141;" horiz-adv-x="1267" d="M3 837q0 13 20.5 23t48.5 20.5t56 18t46 12.5q0 15 1.5 30.5t3.5 31.5q13 148 19.5 261t6.5 187q0 10 -1.5 35.5t-4 54t-3.5 54t-1 38.5q0 15 1 31.5t4 37.5q49 61 125 61q31 0 58 -21.5t44.5 -56.5t28 -78.5t10.5 -89.5q0 -169 -31 -478q102 38 170 65t113 43.5t74.5 24 t57.5 7.5q82 0 133 -33t51 -115q0 -23 -20.5 -46t-71.5 -23q-13 0 -31 2.5t-41 2.5q-18 0 -50 -6.5t-85.5 -22t-131.5 -41t-186 -61.5q-10 -113 -14 -199.5t-4 -150.5q0 -302 172 -302q33 0 93 16.5t127 35.5t127 36t93 17q64 0 102.5 -51.5t38.5 -140.5 q-276 -100 -584 -100q-218 0 -315 131.5t-97 426.5v62.5t3 78.5q-38 0 -66.5 16.5t-49 42t-30.5 55t-10 57.5z" />
<glyph unicode="&#x142;" horiz-adv-x="803" d="M10 970q0 8 37 28.5t84.5 42t91 41t56.5 26.5q3 138 4 243.5t1 181.5q0 15 -2.5 39.5t-5 50.5t-5 49t-2.5 38q82 56 133 56q56 0 107.5 -37t51.5 -93q0 -36 -10.5 -66.5t-23.5 -66.5q-23 -108 -30 -282q54 31 79.5 41t58.5 10q90 0 128 -50t38 -101q0 -15 -16.5 -35.5 t-52.5 -20.5q-10 0 -23 1.5t-28 3.5q-36 0 -187 -64v-430q0 -161 15.5 -274t38.5 -177q13 -38 13 -56q0 -46 -37.5 -78t-85.5 -32q-59 0 -92.5 45t-48.5 135.5t-19 227.5t-4 322q0 49 1 100t1 107q-26 -20 -41 -37t-25 -29.5t-20.5 -20.5t-25.5 -8q-36 0 -65.5 20.5 t-48.5 49t-29.5 56.5t-10.5 43z" />
<glyph unicode="&#x143;" horiz-adv-x="1420" d="M64 369q0 44 2.5 129.5t2.5 128.5q0 105 25.5 312.5t25.5 312.5v312q0 5 -3.5 15.5t-3.5 15.5q0 51 69 84q56 28 112 29q131 0 187 -85q15 -28 28 -118q8 -61 16 -125q31 -182 161 -584q156 -474 233 -473q28 0 28 71q0 20 -6.5 66.5t-6.5 71.5l26 694q8 156 54 307 q67 212 179 213q36 0 100 -46q2 -13 2 -23q0 -28 -23 -72q-28 -56 -33 -69q-74 -233 -74 -381l-8 -735q-3 -113 -51 -231q-64 -148 -159 -148q-141 0 -279 235q-100 174 -202 482q-59 200 -120 399q-54 -435 -54 -584q0 -328 39.5 -376.5t39.5 -71.5q0 -49 -51 -85.5 t-102 -36.5q-72 0 -118 151q-36 118 -36 215zM422 1930v31q38 46 79.5 88.5t84.5 85.5q133 125 202 126q23 0 47.5 -11.5t45 -31t36 -42.5t20.5 -46l-5 -26q-13 -28 -29.5 -47t-37.5 -27q-13 -5 -56.5 -29.5t-117.5 -70.5q-143 -82 -189 -82q-36 0 -59 20.5t-21 61.5z" />
<glyph unicode="&#x144;" horiz-adv-x="1090" d="M64 1001q0 41 47.5 78t85.5 37q56 0 115 -64l-7 -102q95 151 233 151q90 0 189.5 -61.5t145.5 -138.5q105 -195 105 -512v-371q-38 -59 -95 -59q-44 0 -143 51v31q0 56 4 166t4 162q0 548 -164 547q-46 0 -105 -71q-182 -220 -182 -530q0 -44 16.5 -129.5t16.5 -129.5 q0 -36 -33 -59t-72 -23q-154 0 -153 195v535q0 20 5 60t5 60q0 31 -9 90t-9 87zM263 1303v31q38 46 79.5 88.5t84.5 85.5q133 125 202 126q23 0 47.5 -11.5t45 -31t36 -42.5t20.5 -46l-5 -26q-13 -28 -29.5 -47t-37.5 -27q-13 -5 -56.5 -29.5t-117.5 -70.5 q-143 -82 -189 -82q-36 0 -59 20.5t-21 61.5z" />
<glyph unicode="&#x145;" horiz-adv-x="1420" d="M64 369q0 44 2.5 129.5t2.5 128.5q0 105 25.5 312.5t25.5 312.5v312q0 5 -3.5 15.5t-3.5 15.5q0 51 69 84q56 28 112 29q131 0 187 -85q15 -28 28 -118q8 -61 16 -125q31 -182 161 -584q156 -474 233 -473q28 0 28 71q0 20 -6.5 66.5t-6.5 71.5l26 694q8 156 54 307 q67 212 179 213q36 0 100 -46q2 -13 2 -23q0 -28 -23 -72q-28 -56 -33 -69q-74 -233 -74 -381l-8 -735q-3 -113 -51 -231q-64 -148 -159 -148q-141 0 -279 235q-100 174 -202 482q-59 200 -120 399q-54 -435 -54 -584q0 -328 39.5 -376.5t39.5 -71.5q0 -49 -51 -85.5 t-102 -36.5q-72 0 -118 151q-36 118 -36 215zM343 -571l2 64q87 79 138.5 184.5t76.5 238.5q51 26 72 25q15 0 38 -12.5t46.5 -29.5t40 -37.5t21.5 -35.5l-3 -28q-187 -415 -268 -415q-46 0 -164 46z" />
<glyph unicode="&#x146;" horiz-adv-x="1090" d="M64 1001q0 41 47.5 78t85.5 37q56 0 115 -64l-7 -102q95 151 233 151q90 0 189.5 -61.5t145.5 -138.5q105 -195 105 -512v-371q-38 -59 -95 -59q-44 0 -143 51v31q0 56 4 166t4 162q0 548 -164 547q-46 0 -105 -71q-182 -220 -182 -530q0 -44 16.5 -129.5t16.5 -129.5 q0 -36 -33 -59t-72 -23q-154 0 -153 195v535q0 20 5 60t5 60q0 31 -9 90t-9 87zM266 -571l2 64q87 79 138.5 184.5t76.5 238.5q51 26 72 25q15 0 38 -12.5t46.5 -29.5t40 -37.5t21.5 -35.5l-3 -28q-187 -415 -268 -415q-46 0 -164 46z" />
<glyph unicode="&#x147;" horiz-adv-x="1420" d="M64 369q0 44 2.5 129.5t2.5 128.5q0 105 25.5 312.5t25.5 312.5v312q0 5 -3.5 15.5t-3.5 15.5q0 51 69 84q56 28 112 29q131 0 187 -85q15 -28 28 -118q8 -61 16 -125q31 -182 161 -584q156 -474 233 -473q28 0 28 71q0 20 -6.5 66.5t-6.5 71.5l26 694q8 156 54 307 q67 212 179 213q36 0 100 -46q2 -13 2 -23q0 -28 -23 -72q-28 -56 -33 -69q-74 -233 -74 -381l-8 -735q-3 -113 -51 -231q-64 -148 -159 -148q-141 0 -279 235q-100 174 -202 482q-59 200 -120 399q-54 -435 -54 -584q0 -328 39.5 -376.5t39.5 -71.5q0 -49 -51 -85.5 t-102 -36.5q-72 0 -118 151q-36 118 -36 215zM307 2143q0 82 103 82q28 0 62.5 -14t75.5 -48v3q38 -28 61 -44.5t36 -22.5h-8l29 -10h2l8 -2q13 5 30.5 15t38.5 23q138 100 194 100q111 0 111 -74q0 -56 -162 -182q-156 -120 -212 -120q-31 0 -119.5 56t-231.5 177 q-18 28 -18 61z" />
<glyph unicode="&#x148;" horiz-adv-x="1090" d="M64 1001q0 41 47.5 78t85.5 37q56 0 115 -64l-7 -102q95 151 233 151q90 0 189.5 -61.5t145.5 -138.5q105 -195 105 -512v-371q-38 -59 -95 -59q-44 0 -143 51v31q0 56 4 166t4 162q0 548 -164 547q-46 0 -105 -71q-182 -220 -182 -530q0 -44 16.5 -129.5t16.5 -129.5 q0 -36 -33 -59t-72 -23q-154 0 -153 195v535q0 20 5 60t5 60q0 31 -9 90t-9 87zM148 1516q0 82 103 82q28 0 62.5 -14t75.5 -48v3q38 -28 61 -44.5t36 -22.5h-8l29 -10h2l8 -2q13 5 30.5 15t38.5 23q138 100 194 100q111 0 111 -74q0 -56 -162 -182q-156 -120 -212 -120 q-31 0 -119.5 56t-231.5 177q-18 28 -18 61z" />
<glyph unicode="&#x149;" horiz-adv-x="1566" d="M9 1030q-19 27 9 63q51 28 96 69t65 105q13 36 9 78.5t-47 70.5q-44 28 -74.5 56t-30.5 79q0 59 52.5 105t121.5 46q74 0 128 -66.5t54 -166.5q0 -108 -20.5 -176.5t-71.5 -132.5q-51 -67 -115.5 -114.5t-115.5 -47.5q-41 5 -60 32zM540 1001q0 41 47.5 78t85.5 37 q56 0 115 -64l-7 -102q95 151 233 151q90 0 189.5 -61.5t145.5 -138.5q105 -195 105 -512v-371q-38 -59 -95 -59q-44 0 -143 51v31q0 56 4 166t4 162q0 548 -164 547q-46 0 -105 -71q-182 -220 -182 -530q0 -44 16.5 -129.5t16.5 -129.5q0 -36 -33 -59t-72 -23 q-154 0 -153 195v535q0 20 5 60t5 60q0 31 -9 90t-9 87z" />
<glyph unicode="&#x14c;" d="M64 742q0 379 182 669q210 340 568 340q315 0 502 -294q161 -254 161 -589q0 -369 -182 -625q-202 -289 -555 -289q-100 0 -215 38q-256 82 -366 284q-95 174 -95 466zM292 671q0 -49 20 -136q44 -197 131 -284q100 -102 292 -103q261 0 394 254q102 200 102 489 q0 532 -343 637q-36 10 -82 11q-143 0 -286 -128q-228 -207 -228 -740zM424.5 1893.5q0.5 11.5 0.5 24.5q0 20 2.5 45.5t15.5 38.5q41 5 107.5 11.5t143 13t161 11.5t161.5 5q67 0 85 -24t18 -76q0 -41 -14.5 -65t-42.5 -24t-65 1t-78 3.5t-83.5 4t-77.5 1.5q-74 0 -124 -4 t-83.5 -10t-54 -10t-33.5 -4t-23 9t-13 27q-3 10 -2.5 21.5z" />
<glyph unicode="&#x14d;" horiz-adv-x="1062" d="M51 445q0 230 115 436q133 243 346 243q67 0 166 -59q287 -172 287 -561q0 -230 -115 -394q-133 -187 -353 -187q-225 0 -341 154q-105 136 -105 368zM160.5 1268.5q0.5 11.5 0.5 24.5q0 20 2.5 45.5t15.5 38.5q41 5 107.5 11.5t143 13t161 11.5t161.5 5q67 0 85 -24 t18 -76q0 -41 -14.5 -65t-42.5 -24t-65 1t-78 3.5t-83.5 4t-77.5 1.5q-74 0 -124 -4t-83.5 -10t-54 -10t-33.5 -4t-23 9t-13 27q-3 10 -2.5 21.5zM294 451q0 -340 203 -341q131 0 194 141q49 107 49 258q0 392 -190 392q-136 0 -204 -166q-51 -125 -52 -284z" />
<glyph unicode="&#x14e;" d="M64 742q0 379 182 669q210 340 568 340q315 0 502 -294q161 -254 161 -589q0 -369 -182 -625q-202 -289 -555 -289q-100 0 -215 38q-256 82 -366 284q-95 174 -95 466zM292 671q0 -49 20 -136q44 -197 131 -284q100 -102 292 -103q261 0 394 254q102 200 102 489 q0 532 -343 637q-36 10 -82 11q-143 0 -286 -128q-228 -207 -228 -740zM415 2076q0 100 130 100q72 0 96.5 -26.5t34.5 -57.5l5 -13q20 -10 82 -10q67 0 97 13l28 43h-2q23 51 110 51q131 0 131 -100q0 -113 -141 -181q-90 -41 -215 -41q-59 0 -113 10t-100 31 q-143 69 -143 181z" />
<glyph unicode="&#x14f;" horiz-adv-x="1062" d="M51 445q0 230 115 436q133 243 346 243q67 0 166 -59q287 -172 287 -561q0 -230 -115 -394q-133 -187 -353 -187q-225 0 -341 154q-105 136 -105 368zM151 1451q0 100 130 100q72 0 96.5 -26.5t34.5 -57.5l5 -13q20 -10 82 -10q67 0 97 13l28 43h-2q23 51 110 51 q131 0 131 -100q0 -113 -141 -181q-90 -41 -215 -41q-59 0 -113 10t-100 31q-143 69 -143 181zM294 451q0 -340 203 -341q131 0 194 141q49 107 49 258q0 392 -190 392q-136 0 -204 -166q-51 -125 -52 -284z" />
<glyph unicode="&#x150;" d="M64 742q0 379 182 669q210 340 568 340q315 0 502 -294q161 -254 161 -589q0 -369 -182 -625q-202 -289 -555 -289q-100 0 -215 38q-256 82 -366 284q-95 174 -95 466zM292 671q0 -49 20 -136q44 -197 131 -284q100 -102 292 -103q261 0 394 254q102 200 102 489 q0 532 -343 637q-36 10 -82 11q-143 0 -286 -128q-228 -207 -228 -740zM459 1977l43 176q23 67 57.5 102.5t80.5 35.5q97 0 157 -87v-25q0 -44 -44 -82q-10 -3 -11.5 -4t-14.5 -12q-102 -184 -181 -184q-56 0 -87 80zM692 1936q23 115 71 204v-2q69 154 164 153 q95 0 154 -87v-25q0 -44 -44 -82q-8 -3 -10.5 -4t-14.5 -12q-13 -18 -35 -47t-58 -73q-92 -108 -140 -107q-56 0 -87 82z" />
<glyph unicode="&#x151;" horiz-adv-x="1062" d="M51 445q0 230 115 436q133 243 346 243q67 0 166 -59q287 -172 287 -561q0 -230 -115 -394q-133 -187 -353 -187q-225 0 -341 154q-105 136 -105 368zM195 1352l43 176q23 67 57.5 102.5t80.5 35.5q97 0 157 -87v-25q0 -44 -44 -82q-10 -3 -11.5 -4t-14.5 -12 q-102 -184 -181 -184q-56 0 -87 80zM294 451q0 -340 203 -341q131 0 194 141q49 107 49 258q0 392 -190 392q-136 0 -204 -166q-51 -125 -52 -284zM428 1311q23 115 71 204v-2q69 154 164 153q95 0 154 -87v-25q0 -44 -44 -82q-8 -3 -10.5 -4t-14.5 -12q-13 -18 -35 -47 t-58 -73q-92 -108 -140 -107q-56 0 -87 82z" />
<glyph unicode="&#x152;" horiz-adv-x="2401" d="M64 742q0 379 182 669q210 340 568 340q207 0 369 -136q18 10 48 16q59 8 346 77q212 51 348 51q169 0 305 -154q-74 -72 -133 -72q-15 0 -47.5 4t-47.5 4q-110 0 -330 -41q-236 -44 -318 -87q-23 -284 -33 -548q72 3 223 36t230 33q77 0 174 -46l26 -94q0 -20 -45 -52.5 t-78 -47.5q-41 28 -85 28q-220 0 -450 -67q0 -33 2 -117q5 -74 6 -118q0 -259 143 -259q87 0 247 60.5t247 60.5q194 -1 271 -134q-33 -77 -87 -76q-10 0 -30.5 3.5t-30.5 3.5q-102 0 -293 -66.5t-293 -66.5q-210 0 -315 169q-187 -161 -443 -161q-95 0 -213 36 q-259 82 -368 286q-95 174 -95 466zM300 776q0 -259 87 -420q113 -207 348 -208q225 0 297 103q54 82 53 320q0 532 26 788q-133 179 -279 180q-146 0 -289 -134q-243 -220 -243 -629z" />
<glyph unicode="&#x153;" horiz-adv-x="1743" d="M64 445q0 230 115 436q133 243 346 243q205 0 338 -195q102 172 263 172q174 0 305 -105q141 -110 141 -279q0 -174 -146 -298.5t-323 -124.5q-8 0 -133 23q28 -161 164 -161q87 0 164 62q26 20 105 110q54 59 89 59q46 0 79.5 -33.5t33.5 -79.5q0 -128 -171 -225 q-148 -82 -290 -82q-197 0 -299 120q-128 -164 -336 -164q-225 0 -340 154q-105 136 -105 368zM307 451q0 -340 202 -341q131 0 195 141q49 107 49 258q0 392 -190 392q-136 0 -205 -166q-51 -125 -51 -284zM922 312v5q-3 -3 0 -5zM978 632q0 -59 50 -96t109 -37 q82 0 143 70.5t61 152.5q0 69 -48.5 117.5t-117.5 48.5q-92 0 -144.5 -78t-52.5 -178z" />
<glyph unicode="&#x154;" horiz-adv-x="1630" d="M64 671q0 95 172 135q10 79 17 218q5 156 13 218q15 82 39 245h-21q-102 -3 -102 90q0 79 61 100q44 13 87 25q51 46 80.5 60.5t93.5 14.5q46 0 46 -41q0 -13 64 -13q300 0 510 -120q259 -146 258 -423q0 -212 -133 -351q-90 -95 -317 -212q182 -115 361 -230 q208 -156 205 -343v-13q-38 -56 -95 -57q-44 0 -74 39q-23 92 -339.5 299.5t-418.5 207.5h-46q-36 -3 -49 -3v-100q0 -51 13 -135q13 -102 28 -126q46 -61 46 -77q0 -46 -35.5 -75.5t-82.5 -29.5q-97 0 -151 70q-51 61 -51 506q-54 0 -112 34q-67 41 -67 87zM471 786 q148 -51 184 -51q31 0 90 18q169 51 276 156q126 120 126 281q0 164 -167 249q-133 69 -312 69q-23 0 -110 -8q3 -92 -49 -317q-28 -136 -38 -397zM524 1961v31q38 46 79.5 88.5t84.5 85.5q133 125 202 126q23 0 47.5 -11.5t45 -31t36 -42.5t20.5 -46l-5 -26 q-13 -28 -29.5 -47t-37.5 -27q-13 -5 -56.5 -29.5t-117.5 -70.5q-143 -82 -189 -82q-36 0 -59 20.5t-21 61.5z" />
<glyph unicode="&#x155;" horiz-adv-x="819" d="M51 963q0 115 138 115q82 0 113 -49q72 79 161 79q61 0 118 -33q38 -20 89.5 -88t51.5 -106q0 -18 -5 -57q-54 -77 -113 -76q-49 0 -87 56q-5 115 -82 115q-46 0 -112 -243q-31 -108 -31 -300q0 -182 18 -220q20 -49 20 -66q0 -44 -39.5 -71t-88.5 -27q-138 0 -138 128 q0 13 6.5 36t6.5 33q0 131 -13 388.5t-13 385.5zM130 1295v31q38 46 79.5 88.5t84.5 85.5q133 125 202 126q23 0 47.5 -11.5t45 -31t36 -42.5t20.5 -46l-5 -26q-13 -28 -29.5 -47t-37.5 -27q-13 -5 -56.5 -29.5t-117.5 -70.5q-143 -82 -189 -82q-36 0 -59 20.5t-21 61.5z " />
<glyph unicode="&#x156;" horiz-adv-x="1630" d="M64 671q0 95 172 135q10 79 17 218q5 156 13 218q15 82 39 245h-21q-102 -3 -102 90q0 79 61 100q44 13 87 25q51 46 80.5 60.5t93.5 14.5q46 0 46 -41q0 -13 64 -13q300 0 510 -120q259 -146 258 -423q0 -212 -133 -351q-90 -95 -317 -212q182 -115 361 -230 q208 -156 205 -343v-13q-38 -56 -95 -57q-44 0 -74 39q-23 92 -339.5 299.5t-418.5 207.5h-46q-36 -3 -49 -3v-100q0 -51 13 -135q13 -102 28 -126q46 -61 46 -77q0 -46 -35.5 -75.5t-82.5 -29.5q-97 0 -151 70q-51 61 -51 506q-54 0 -112 34q-67 41 -67 87zM471 786 q148 -51 184 -51q31 0 90 18q169 51 276 156q126 120 126 281q0 164 -167 249q-133 69 -312 69q-23 0 -110 -8q3 -92 -49 -317q-28 -136 -38 -397zM548 -571l2 64q87 79 138.5 184.5t76.5 238.5q51 26 72 25q15 0 38 -12.5t46.5 -29.5t40 -37.5t21.5 -35.5l-3 -28 q-187 -415 -268 -415q-46 0 -164 46z" />
<glyph unicode="&#x157;" horiz-adv-x="819" d="M-15 -571l2 64q87 79 138.5 184.5t76.5 238.5q51 26 72 25q15 0 38 -12.5t46.5 -29.5t40 -37.5t21.5 -35.5l-3 -28q-187 -415 -268 -415q-46 0 -164 46zM51 963q0 115 138 115q82 0 113 -49q72 79 161 79q61 0 118 -33q38 -20 89.5 -88t51.5 -106q0 -18 -5 -57 q-54 -77 -113 -76q-49 0 -87 56q-5 115 -82 115q-46 0 -112 -243q-31 -108 -31 -300q0 -182 18 -220q20 -49 20 -66q0 -44 -39.5 -71t-88.5 -27q-138 0 -138 128q0 13 6.5 36t6.5 33q0 131 -13 388.5t-13 385.5z" />
<glyph unicode="&#x158;" horiz-adv-x="1630" d="M64 671q0 95 172 135q10 79 17 218q5 156 13 218q15 82 39 245h-21q-102 -3 -102 90q0 79 61 100q44 13 87 25q51 46 80.5 60.5t93.5 14.5q46 0 46 -41q0 -13 64 -13q300 0 510 -120q259 -146 258 -423q0 -212 -133 -351q-90 -95 -317 -212q182 -115 361 -230 q208 -156 205 -343v-13q-38 -56 -95 -57q-44 0 -74 39q-23 92 -339.5 299.5t-418.5 207.5h-46q-36 -3 -49 -3v-100q0 -51 13 -135q13 -102 28 -126q46 -61 46 -77q0 -46 -35.5 -75.5t-82.5 -29.5q-97 0 -151 70q-51 61 -51 506q-54 0 -112 34q-67 41 -67 87zM409 2173 q0 82 103 82q28 0 62.5 -14t75.5 -48v3q38 -28 61 -44.5t36 -22.5h-8l29 -10h2l8 -2q13 5 30.5 15t38.5 23q138 100 194 100q111 0 111 -74q0 -56 -162 -182q-156 -120 -212 -120q-31 0 -119.5 56t-231.5 177q-18 28 -18 61zM471 786q148 -51 184 -51q31 0 90 18 q169 51 276 156q126 120 126 281q0 164 -167 249q-133 69 -312 69q-23 0 -110 -8q3 -92 -49 -317q-28 -136 -38 -397z" />
<glyph unicode="&#x159;" horiz-adv-x="819" d="M15 1508q0 82 103 82q28 0 62.5 -14t75.5 -48v3q38 -28 61 -44.5t36 -22.5h-8l29 -10h2l8 -2q13 5 30.5 15t38.5 23q138 100 194 100q111 0 111 -74q0 -56 -162 -182q-156 -120 -212 -120q-31 0 -119.5 56t-231.5 177q-18 28 -18 61zM51 963q0 115 138 115q82 0 113 -49 q72 79 161 79q61 0 118 -33q38 -20 89.5 -88t51.5 -106q0 -18 -5 -57q-54 -77 -113 -76q-49 0 -87 56q-5 115 -82 115q-46 0 -112 -243q-31 -108 -31 -300q0 -182 18 -220q20 -49 20 -66q0 -44 -39.5 -71t-88.5 -27q-138 0 -138 128q0 13 6.5 36t6.5 33q0 131 -13 388.5 t-13 385.5z" />
<glyph unicode="&#x15a;" horiz-adv-x="1295" d="M64 228q0 46 33.5 79t79.5 33q69 0 128 -56q100 -84 107 -92q90 -51 323 -51q207 0 207 95q0 79 -194 220l-272 174q-174 118 -253 222q-105 138 -105 318q0 225 138 402q148 195 369 194q189 0 319.5 -103.5t166.5 -290.5q8 -72 31 -212q10 -41 10 -62q0 -92 -31 -156 q-38 -87 -120 -87q-46 0 -88.5 42.5t-42.5 88.5q0 33 15.5 98t15.5 99q0 346 -230 345q-128 0 -215 -108.5t-87 -239.5q0 -184 220 -358q202 -136 407 -272q217 -156 217 -299q0 -156 -181 -241q-143 -69 -320 -69q-161 0 -379 72q-269 92 -269 215zM381 1950v31 q38 46 79.5 88.5t84.5 85.5q133 125 202 126q23 0 47.5 -11.5t45 -31t36 -42.5t20.5 -46l-5 -26q-13 -28 -29.5 -47t-37.5 -27q-13 -5 -56.5 -29.5t-117.5 -70.5q-143 -82 -189 -82q-36 0 -59 20.5t-21 61.5z" />
<glyph unicode="&#x15b;" horiz-adv-x="1008" d="M38 172q0 113 162 112q23 0 48 -2q8 -77 123 -123q100 -41 192 -34q74 5 74 54q0 8 -3.5 23.5t-3.5 24.5t-98 39q-110 33 -122 39q-292 174 -292 419q0 148 84 274q95 138 236 139q105 0 239.5 -82t164.5 -177q20 -67 21 -110q0 -46 -13 -77q-15 -38 -31 -77 q-49 -33 -97 -33q-26 0 -86 32t-60 55q0 10 31 67q18 33 18 56q0 154 -121 154q-72 0 -110 -93q-28 -72 -28 -153q0 -102 146 -184q133 -59 269 -121q146 -66 146 -135q0 -120 -103 -210q-113 -97 -302 -98q-82 -3 -176 34q-307 115 -308 187zM225 1323v31q38 46 79.5 88.5 t84.5 85.5q133 125 202 126q23 0 47.5 -11.5t45 -31t36 -42.5t20.5 -46l-5 -26q-13 -28 -29.5 -47t-37.5 -27q-13 -5 -56.5 -29.5t-117.5 -70.5q-143 -82 -189 -82q-36 0 -59 20.5t-21 61.5z" />
<glyph unicode="&#x15c;" horiz-adv-x="1295" d="M64 228q0 46 33.5 79t79.5 33q69 0 128 -56q100 -84 107 -92q90 -51 323 -51q207 0 207 95q0 79 -194 220l-272 174q-174 118 -253 222q-105 138 -105 318q0 225 138 402q148 195 369 194q189 0 319.5 -103.5t166.5 -290.5q8 -72 31 -212q10 -41 10 -62q0 -92 -31 -156 q-38 -87 -120 -87q-46 0 -88.5 42.5t-42.5 88.5q0 33 15.5 98t15.5 99q0 346 -230 345q-128 0 -215 -108.5t-87 -239.5q0 -184 220 -358q202 -136 407 -272q217 -156 217 -299q0 -156 -181 -241q-143 -69 -320 -69q-161 0 -379 72q-269 92 -269 215zM266 1943q0 28 42.5 73 t118.5 106q154 123 213 123q33 0 120 -56.5t228 -176.5q21 -33 21 -61q0 -82 -103 -82q-28 0 -62.5 14t-75.5 47v-3q-82 64 -97 67l-26 10l-5 3q-5 0 -3 -3l-66 -36q-138 -100 -195 -99q-110 0 -110 74zM637 2004q3 0 5 -2l3 2l-5 3zM642 2002h3h-3z" />
<glyph unicode="&#x15d;" horiz-adv-x="1008" d="M38 172q0 113 162 112q23 0 48 -2q8 -77 123 -123q100 -41 192 -34q74 5 74 54q0 8 -3.5 23.5t-3.5 24.5t-98 39q-110 33 -122 39q-292 174 -292 419q0 148 84 274q95 138 236 139q105 0 239.5 -82t164.5 -177q20 -67 21 -110q0 -46 -13 -77q-15 -38 -31 -77 q-49 -33 -97 -33q-26 0 -86 32t-60 55q0 10 31 67q18 33 18 56q0 154 -121 154q-72 0 -110 -93q-28 -72 -28 -153q0 -102 146 -184q133 -59 269 -121q146 -66 146 -135q0 -120 -103 -210q-113 -97 -302 -98q-82 -3 -176 34q-307 115 -308 187zM110 1316q0 28 42.5 73 t118.5 106q154 123 213 123q33 0 120 -56.5t228 -176.5q21 -33 21 -61q0 -82 -103 -82q-28 0 -62.5 14t-75.5 47v-3q-82 64 -97 67l-26 10l-5 3q-5 0 -3 -3l-66 -36q-138 -100 -195 -99q-110 0 -110 74zM481 1377q3 0 5 -2l3 2l-5 3zM486 1375h3h-3z" />
<glyph unicode="&#x15e;" horiz-adv-x="1295" d="M64 228q0 46 33.5 79t79.5 33q69 0 128 -56q100 -84 107 -92q90 -51 323 -51q207 0 207 95q0 79 -194 220l-272 174q-174 118 -253 222q-105 138 -105 318q0 225 138 402q148 195 369 194q189 0 319.5 -103.5t166.5 -290.5q8 -72 31 -212q10 -41 10 -62q0 -92 -31 -156 q-38 -87 -120 -87q-46 0 -88.5 42.5t-42.5 88.5q0 33 15.5 98t15.5 99q0 346 -230 345q-128 0 -215 -108.5t-87 -239.5q0 -184 220 -358q202 -136 407 -272q217 -156 217 -299q0 -156 -181 -241q-143 -69 -320 -69q-161 0 -379 72q-269 92 -269 215zM418 -218q0 46 56 95v-3 l41 36l38 31l241 2q-28 -28 -56 -57.5t-34 -36.5q20 -5 33.5 -6.5t23.5 -6.5h-3q49 -20 74.5 -47t25.5 -71q0 -92 -125 -164q-26 -13 -72 -30.5t-113 -38.5q-113 15 -112 92q0 23 10 40t28 32q5 3 4 3t4 2.5t20.5 10t53.5 25.5l-5 3q-133 28 -133 89z" />
<glyph unicode="&#x15f;" horiz-adv-x="1008" d="M38 172q0 113 162 112q23 0 48 -2q8 -77 123 -123q100 -41 192 -34q74 5 74 54q0 8 -3.5 23.5t-3.5 24.5t-98 39q-110 33 -122 39q-292 174 -292 419q0 148 84 274q95 138 236 139q105 0 239.5 -82t164.5 -177q20 -67 21 -110q0 -46 -13 -77q-15 -38 -31 -77 q-49 -33 -97 -33q-26 0 -86 32t-60 55q0 10 31 67q18 33 18 56q0 154 -121 154q-72 0 -110 -93q-28 -72 -28 -153q0 -102 146 -184q133 -59 269 -121q146 -66 146 -135q0 -120 -103 -210q-113 -97 -302 -98q-82 -3 -176 34q-307 115 -308 187zM261 -210q0 46 56 95v-3l41 36 l38 31l241 2q-28 -28 -56 -57.5t-34 -36.5q20 -5 33.5 -6.5t23.5 -6.5h-3q49 -20 74.5 -47t25.5 -71q0 -92 -125 -164q-26 -13 -72 -30.5t-113 -38.5q-113 15 -112 92q0 23 10 40t28 32q5 3 4 3t4 2.5t20.5 10t53.5 25.5l-5 3q-133 28 -133 89z" />
<glyph unicode="&#x160;" horiz-adv-x="1295" d="M64 228q0 46 33.5 79t79.5 33q69 0 128 -56q100 -84 107 -92q90 -51 323 -51q207 0 207 95q0 79 -194 220l-272 174q-174 118 -253 222q-105 138 -105 318q0 225 138 402q148 195 369 194q189 0 319.5 -103.5t166.5 -290.5q8 -72 31 -212q10 -41 10 -62q0 -92 -31 -156 q-38 -87 -120 -87q-46 0 -88.5 42.5t-42.5 88.5q0 33 15.5 98t15.5 99q0 346 -230 345q-128 0 -215 -108.5t-87 -239.5q0 -184 220 -358q202 -136 407 -272q217 -156 217 -299q0 -156 -181 -241q-143 -69 -320 -69q-161 0 -379 72q-269 92 -269 215zM266 2163q0 82 103 82 q28 0 62.5 -14t75.5 -48v3q38 -28 61 -44.5t36 -22.5h-8l29 -10h2l8 -2q13 5 30.5 15t38.5 23q138 100 194 100q111 0 111 -74q0 -56 -162 -182q-156 -120 -212 -120q-31 0 -119.5 56t-231.5 177q-18 28 -18 61z" />
<glyph unicode="&#x161;" horiz-adv-x="1008" d="M38 172q0 113 162 112q23 0 48 -2q8 -77 123 -123q100 -41 192 -34q74 5 74 54q0 8 -3.5 23.5t-3.5 24.5t-98 39q-110 33 -122 39q-292 174 -292 419q0 148 84 274q95 138 236 139q105 0 239.5 -82t164.5 -177q20 -67 21 -110q0 -46 -13 -77q-15 -38 -31 -77 q-49 -33 -97 -33q-26 0 -86 32t-60 55q0 10 31 67q18 33 18 56q0 154 -121 154q-72 0 -110 -93q-28 -72 -28 -153q0 -102 146 -184q133 -59 269 -121q146 -66 146 -135q0 -120 -103 -210q-113 -97 -302 -98q-82 -3 -176 34q-307 115 -308 187zM110 1536q0 82 103 82 q28 0 62.5 -14t75.5 -48v3q38 -28 61 -44.5t36 -22.5h-8l29 -10h2l8 -2q13 5 30.5 15t38.5 23q138 100 194 100q111 0 111 -74q0 -56 -162 -182q-156 -120 -212 -120q-31 0 -119.5 56t-231.5 177q-18 28 -18 61z" />
<glyph unicode="&#x162;" horiz-adv-x="1338" d="M26 1541q0 44 25 51q38 56 402 98q282 31 456 30q123 0 215 -30q133 -44 133 -134q0 -44 -27 -75.5t-68 -31.5q-23 0 -85.5 21.5t-103.5 21.5h-177q-38 0 -42 -6t-9 -50q-10 -64 -31 -192q-49 -348 -48 -786q0 -297 69 -407v-69q-49 -26 -77 -26q-164 0 -213 159 q-23 77 -23 295q0 253 11 394q3 61 28 294q20 182 20 295l-2 74q-36 -3 -139 -18q-84 -13 -138 -13q-177 0 -176 105zM272 -571l2 64q87 79 138.5 184.5t76.5 238.5q51 26 72 25q15 0 38 -12.5t46.5 -29.5t40 -37.5t21.5 -35.5l-3 -28q-187 -415 -268 -415q-46 0 -164 46z " />
<glyph unicode="&#x163;" horiz-adv-x="760" d="M38 888q0 10 6 23q67 95 148 95h15q10 -3 16 -2q54 0 51 125v187q-15 28 -15 48q0 33 39.5 60.5t75.5 27.5q54 0 102.5 -50t48.5 -107q0 -61 -19.5 -121t-16.5 -124v-11q200 -21 200 -123q0 -69 -213 -97q-5 -56 -5 -256v-169q0 -51 16.5 -151t16.5 -148q0 -41 -41 -73 t-82 -32q-64 0 -107 110q-33 84 -33 164v542q-118 18 -136 23q-67 20 -67 59zM69 -571l2 64q87 79 138.5 184.5t76.5 238.5q51 26 72 25q15 0 38 -12.5t46.5 -29.5t40 -37.5t21.5 -35.5l-3 -28q-187 -415 -268 -415q-46 0 -164 46z" />
<glyph unicode="&#x164;" horiz-adv-x="1338" d="M26 1541q0 44 25 51q38 56 402 98q282 31 456 30q123 0 215 -30q133 -44 133 -134q0 -44 -27 -75.5t-68 -31.5q-23 0 -85.5 21.5t-103.5 21.5h-177q-38 0 -42 -6t-9 -50q-10 -64 -31 -192q-49 -348 -48 -786q0 -297 69 -407v-69q-49 -26 -77 -26q-164 0 -213 159 q-23 77 -23 295q0 253 11 394q3 61 28 294q20 182 20 295l-2 74q-36 -3 -139 -18q-84 -13 -138 -13q-177 0 -176 105zM269 2117q0 82 103 82q28 0 62.5 -14t75.5 -48v3q38 -28 61 -44.5t36 -22.5h-8l29 -10h2l8 -2q13 5 30.5 15t38.5 23q138 100 194 100q111 0 111 -74 q0 -56 -162 -182q-156 -120 -212 -120q-31 0 -119.5 56t-231.5 177q-18 28 -18 61z" />
<glyph unicode="&#x165;" horiz-adv-x="1236" d="M38 888q0 10 6 23q67 95 148 95h15q10 -3 16 -2q54 0 51 125v187q-15 28 -15 48q0 33 39.5 60.5t75.5 27.5q54 0 102.5 -50t48.5 -107q0 -61 -19.5 -121t-16.5 -124v-11q200 -21 200 -123q0 -69 -213 -97q-5 -56 -5 -256v-169q0 -51 16.5 -151t16.5 -148q0 -41 -41 -73 t-82 -32q-64 0 -107 110q-33 84 -33 164v542q-118 18 -136 23q-67 20 -67 59zM769 1030q-19 27 9 63q51 28 96 69t65 105q13 36 9 78.5t-47 70.5q-44 28 -74.5 56t-30.5 79q0 59 52.5 105t121.5 46q74 0 128 -66.5t54 -166.5q0 -108 -20.5 -176.5t-71.5 -132.5 q-51 -67 -115.5 -114.5t-115.5 -47.5q-41 5 -60 32z" />
<glyph unicode="&#x168;" horiz-adv-x="1285" d="M64 750q0 118 15.5 354.5t15.5 354.5q0 20 -15.5 60t-15.5 61q0 64 102 104q79 33 157 34q87 0 87 -54q0 -28 -26 -82t-26 -84q0 -102 -25.5 -310t-25.5 -312v-318q0 -146 57 -258q69 -143 202 -144q256 0 340 471q38 220 39 684q0 169 -52 274q-15 31 -15 48 q0 46 34.5 89.5t80.5 43.5q49 0 104 -35.5t55 -81.5v-709q0 -212 -51 -451q-61 -294 -169 -407q-133 -141 -328 -141q-174 0 -304 105q-143 118 -198 320q-38 143 -38 384zM223 1976q0 74 131 133q95 44 161 44q36 0 70.5 -10.5t70.5 -28.5q26 -15 39.5 -20t16.5 -5 q18 0 56 23q61 41 100 41q123 0 123 -100q0 -69 -128 -133q-108 -51 -169 -51q-64 0 -138 36q-28 15 -45 20t-24 5q-20 0 -54 -20q-28 -13 -51 -22t-36 -9q-123 0 -123 97z" />
<glyph unicode="&#x169;" horiz-adv-x="939" d="M38 466q0 82 6 287q8 182 5 284q77 56 128 56q123 0 123 -120q0 -41 -12 -123t-12 -123v-361q0 -61 34 -128q41 -77 97 -77q110 0 164 141q36 97 36 236v307q0 59 -31 146q64 59 123 59q61 0 111 -38.5t50 -97.5q0 -79 -19 -239t-19 -242q0 -72 6.5 -214t6.5 -211 q0 -59 -100 -59q-102 0 -131 100q-97 -64 -189 -64q-74 0 -169 39.5t-133 95.5q-74 108 -75 346zM64 1305q0 74 131 133q95 44 161 44q36 0 70.5 -10.5t70.5 -28.5q26 -15 39.5 -20t16.5 -5q18 0 56 23q61 41 100 41q123 0 123 -100q0 -69 -128 -133q-108 -51 -169 -51 q-64 0 -138 36q-28 15 -45 20t-24 5q-20 0 -54 -20q-28 -13 -51 -22t-36 -9q-123 0 -123 97z" />
<glyph unicode="&#x16a;" horiz-adv-x="1285" d="M64 750q0 118 15.5 354.5t15.5 354.5q0 20 -15.5 60t-15.5 61q0 64 102 104q79 33 157 34q87 0 87 -54q0 -28 -26 -82t-26 -84q0 -102 -25.5 -310t-25.5 -312v-318q0 -146 57 -258q69 -143 202 -144q256 0 340 471q38 220 39 684q0 169 -52 274q-15 31 -15 48 q0 46 34.5 89.5t80.5 43.5q49 0 104 -35.5t55 -81.5v-709q0 -212 -51 -451q-61 -294 -169 -407q-133 -141 -328 -141q-174 0 -304 105q-143 118 -198 320q-38 143 -38 384zM260.5 1908.5q0.5 11.5 0.5 24.5q0 20 2.5 45.5t15.5 38.5q41 5 107.5 11.5t143 13t161 11.5 t161.5 5q67 0 85 -24t18 -76q0 -41 -14.5 -65t-42.5 -24t-65 1t-78 3.5t-83.5 4t-77.5 1.5q-74 0 -124 -4t-83.5 -10t-54 -10t-33.5 -4t-23 9t-13 27q-3 10 -2.5 21.5z" />
<glyph unicode="&#x16b;" horiz-adv-x="939" d="M38 466q0 82 6 287q8 182 5 284q77 56 128 56q123 0 123 -120q0 -41 -12 -123t-12 -123v-361q0 -61 34 -128q41 -77 97 -77q110 0 164 141q36 97 36 236v307q0 59 -31 146q64 59 123 59q61 0 111 -38.5t50 -97.5q0 -79 -19 -239t-19 -242q0 -72 6.5 -214t6.5 -211 q0 -59 -100 -59q-102 0 -131 100q-97 -64 -189 -64q-74 0 -169 39.5t-133 95.5q-74 108 -75 346zM102.5 1237.5q0.5 11.5 0.5 24.5q0 20 2.5 45.5t15.5 38.5q41 5 107.5 11.5t143 13t161 11.5t161.5 5q67 0 85 -24t18 -76q0 -41 -14.5 -65t-42.5 -24t-65 1t-78 3.5t-83.5 4 t-77.5 1.5q-74 0 -124 -4t-83.5 -10t-54 -10t-33.5 -4t-23 9t-13 27q-3 10 -2.5 21.5z" />
<glyph unicode="&#x16c;" horiz-adv-x="1285" d="M64 750q0 118 15.5 354.5t15.5 354.5q0 20 -15.5 60t-15.5 61q0 64 102 104q79 33 157 34q87 0 87 -54q0 -28 -26 -82t-26 -84q0 -102 -25.5 -310t-25.5 -312v-318q0 -146 57 -258q69 -143 202 -144q256 0 340 471q38 220 39 684q0 169 -52 274q-15 31 -15 48 q0 46 34.5 89.5t80.5 43.5q49 0 104 -35.5t55 -81.5v-709q0 -212 -51 -451q-61 -294 -169 -407q-133 -141 -328 -141q-174 0 -304 105q-143 118 -198 320q-38 143 -38 384zM251 2091q0 100 130 100q72 0 96.5 -26.5t34.5 -57.5l5 -13q20 -10 82 -10q67 0 97 13l28 43h-2 q23 51 110 51q131 0 131 -100q0 -113 -141 -181q-90 -41 -215 -41q-59 0 -113 10t-100 31q-143 69 -143 181z" />
<glyph unicode="&#x16d;" horiz-adv-x="939" d="M38 466q0 82 6 287q8 182 5 284q77 56 128 56q123 0 123 -120q0 -41 -12 -123t-12 -123v-361q0 -61 34 -128q41 -77 97 -77q110 0 164 141q36 97 36 236v307q0 59 -31 146q64 59 123 59q61 0 111 -38.5t50 -97.5q0 -79 -19 -239t-19 -242q0 -72 6.5 -214t6.5 -211 q0 -59 -100 -59q-102 0 -131 100q-97 -64 -189 -64q-74 0 -169 39.5t-133 95.5q-74 108 -75 346zM92 1420q0 100 130 100q72 0 96.5 -26.5t34.5 -57.5l5 -13q20 -10 82 -10q67 0 97 13l28 43h-2q23 51 110 51q131 0 131 -100q0 -113 -141 -181q-90 -41 -215 -41 q-59 0 -113 10t-100 31q-143 69 -143 181z" />
<glyph unicode="&#x16e;" horiz-adv-x="1285" d="M64 750q0 118 15.5 354.5t15.5 354.5q0 20 -15.5 60t-15.5 61q0 64 102 104q79 33 157 34q87 0 87 -54q0 -28 -26 -82t-26 -84q0 -102 -25.5 -310t-25.5 -312v-318q0 -146 57 -258q69 -143 202 -144q256 0 340 471q38 220 39 684q0 169 -52 274q-15 31 -15 48 q0 46 34.5 89.5t80.5 43.5q49 0 104 -35.5t55 -81.5v-709q0 -212 -51 -451q-61 -294 -169 -407q-133 -141 -328 -141q-174 0 -304 105q-143 118 -198 320q-38 143 -38 384zM377 2043q0 82 84 136q67 41 146 41q77 0 146 -41q84 -57 84 -136q0 -41 -20 -73t-52 -55 t-74.5 -34.5t-83.5 -11.5q-82 0 -146 36q-84 54 -84 138zM587 2043q0 -13 20 -13q21 0 21 13t-21 13q-20 0 -20 -13z" />
<glyph unicode="&#x16f;" horiz-adv-x="939" d="M38 466q0 82 6 287q8 182 5 284q77 56 128 56q123 0 123 -120q0 -41 -12 -123t-12 -123v-361q0 -61 34 -128q41 -77 97 -77q110 0 164 141q36 97 36 236v307q0 59 -31 146q64 59 123 59q61 0 111 -38.5t50 -97.5q0 -79 -19 -239t-19 -242q0 -72 6.5 -214t6.5 -211 q0 -59 -100 -59q-102 0 -131 100q-97 -64 -189 -64q-74 0 -169 39.5t-133 95.5q-74 108 -75 346zM218 1372q0 82 84 136q67 41 146 41q77 0 146 -41q84 -57 84 -136q0 -41 -20 -73t-52 -55t-74.5 -34.5t-83.5 -11.5q-82 0 -146 36q-84 54 -84 138zM428 1372q0 -13 20 -13 q21 0 21 13t-21 13q-20 0 -20 -13z" />
<glyph unicode="&#x170;" horiz-adv-x="1285" d="M64 750q0 118 15.5 354.5t15.5 354.5q0 20 -15.5 60t-15.5 61q0 64 102 104q79 33 157 34q87 0 87 -54q0 -28 -26 -82t-26 -84q0 -102 -25.5 -310t-25.5 -312v-318q0 -146 57 -258q69 -143 202 -144q256 0 340 471q38 220 39 684q0 169 -52 274q-15 31 -15 48 q0 46 34.5 89.5t80.5 43.5q49 0 104 -35.5t55 -81.5v-709q0 -212 -51 -451q-61 -294 -169 -407q-133 -141 -328 -141q-174 0 -304 105q-143 118 -198 320q-38 143 -38 384zM295 1992l43 176q23 67 57.5 102.5t80.5 35.5q97 0 157 -87v-25q0 -44 -44 -82q-10 -3 -11.5 -4 t-14.5 -12q-102 -184 -181 -184q-56 0 -87 80zM528 1951q23 115 71 204v-2q69 154 164 153q95 0 154 -87v-25q0 -44 -44 -82q-8 -3 -10.5 -4t-14.5 -12q-13 -18 -35 -47t-58 -73q-92 -108 -140 -107q-56 0 -87 82z" />
<glyph unicode="&#x171;" horiz-adv-x="939" d="M38 466q0 82 6 287q8 182 5 284q77 56 128 56q123 0 123 -120q0 -41 -12 -123t-12 -123v-361q0 -61 34 -128q41 -77 97 -77q110 0 164 141q36 97 36 236v307q0 59 -31 146q64 59 123 59q61 0 111 -38.5t50 -97.5q0 -79 -19 -239t-19 -242q0 -72 6.5 -214t6.5 -211 q0 -59 -100 -59q-102 0 -131 100q-97 -64 -189 -64q-74 0 -169 39.5t-133 95.5q-74 108 -75 346zM136 1321l43 176q23 67 57.5 102.5t80.5 35.5q97 0 157 -87v-25q0 -44 -44 -82q-10 -3 -11.5 -4t-14.5 -12q-102 -184 -181 -184q-56 0 -87 80zM369 1280q23 115 71 204v-2 q69 154 164 153q95 0 154 -87v-25q0 -44 -44 -82q-8 -3 -10.5 -4t-14.5 -12q-13 -18 -35 -47t-58 -73q-92 -108 -140 -107q-56 0 -87 82z" />
<glyph unicode="&#x172;" horiz-adv-x="1285" d="M64 750q0 118 15.5 354.5t15.5 354.5q0 20 -15.5 60t-15.5 61q0 64 102 104q79 33 157 34q87 0 87 -54q0 -28 -26 -82t-26 -84q0 -102 -25.5 -310t-25.5 -312v-318q0 -146 57 -258q69 -143 202 -144q256 0 340 471q38 220 39 684q0 169 -52 274q-15 31 -15 48 q0 46 34.5 89.5t80.5 43.5q49 0 104 -35.5t55 -81.5v-709q0 -212 -51 -451q-61 -294 -169 -407q-133 -141 -328 -141q-174 0 -304 105q-143 118 -198 320q-38 143 -38 384zM361 -366q0 141 159 276q38 33 84 33q102 0 103 -84q0 -36 -59 -118q-41 -61 -41 -94 q0 -23 12.5 -47.5t28.5 -24.5l15 10q20 13 35.5 22t43.5 9q108 0 108 -90q0 -67 -102 -105h2q-31 -15 -63 -21.5t-62 -6.5q-54 0 -101.5 18t-84.5 50t-57.5 77t-20.5 96z" />
<glyph unicode="&#x173;" horiz-adv-x="939" d="M38 466q0 82 6 287q8 182 5 284q77 56 128 56q123 0 123 -120q0 -41 -12 -123t-12 -123v-361q0 -61 34 -128q41 -77 97 -77q110 0 164 141q36 97 36 236v307q0 59 -31 146q64 59 123 59q61 0 111 -38.5t50 -97.5q0 -79 -19 -239t-19 -242q0 -72 6.5 -214t6.5 -211 q0 -59 -100 -59q-102 0 -131 100q-97 -64 -189 -64q-74 0 -169 39.5t-133 95.5q-74 108 -75 346zM202 -358q0 141 159 276q38 33 84 33q102 0 103 -84q0 -36 -59 -118q-41 -61 -41 -94q0 -23 12.5 -47.5t28.5 -24.5l15 10q20 13 35.5 22t43.5 9q108 0 108 -90 q0 -67 -102 -105h2q-31 -15 -63 -21.5t-62 -6.5q-54 0 -101.5 18t-84.5 50t-57.5 77t-20.5 96z" />
<glyph unicode="&#x174;" horiz-adv-x="1738" d="M90 1518q0 197 169 197q151 0 151 -69q0 -31 -19.5 -65.5t-37.5 -67.5q-33 -67 -33 -279q0 -980 151 -981q54 0 131 382q92 451 92 691q0 36 48.5 73t86.5 37q77 0 140 -53.5t70 -130.5q-51 -74 -51 -274q0 -719 136 -719q131 0 202 409q49 284 49 522q0 100 -11.5 149 t-57.5 146q-41 82 -41 123q0 61 28 112q36 64 92 64q79 0 141 -271q46 -212 46 -348q0 -292 -103 -661q-136 -484 -340 -484q-179 0 -261 228q-46 128 -69 379q-61 -289 -98 -386q-95 -264 -230 -264q-100 0 -182 84q-108 110 -161 692q-38 397 -38 765zM458 1961 q0 28 42.5 73t118.5 106q154 123 213 123q33 0 120 -56.5t228 -176.5q21 -33 21 -61q0 -82 -103 -82q-28 0 -62.5 14t-75.5 47v-3q-82 64 -97 67l-26 10l-5 3q-5 0 -3 -3l-66 -36q-138 -100 -195 -99q-110 0 -110 74zM829 2022q3 0 5 -2l3 2l-5 3zM834 2020h3h-3z" />
<glyph unicode="&#x175;" horiz-adv-x="1418" d="M38 742q0 169 13 274q36 56 95 57q51 0 103.5 -33.5t52.5 -79.5q0 -33 -16.5 -98.5t-16.5 -98.5q0 -563 120 -563q125 0 164 312q13 118 13 412q0 97 112 97q125 0 126 -140q0 -13 -4 -36t-4 -33v-290q0 -323 118 -322q100 0 151 235q38 164 38 320q0 133 -12 156 q-3 5 -29 31q-15 20 -15 38q0 46 41 83.5t87 37.5q69 0 110 -123q33 -94 33 -184q0 -230 -84 -477q-110 -323 -292 -322q-172 0 -284 212q-77 -225 -243 -225q-212 0 -310 292q-67 200 -67 468zM307 1280q0 28 42.5 73t118.5 106q154 123 213 123q33 0 120 -56.5t228 -176.5 q21 -33 21 -61q0 -82 -103 -82q-28 0 -62.5 14t-75.5 47v-3q-82 64 -97 67l-26 10l-5 3q-5 0 -3 -3l-66 -36q-138 -100 -195 -99q-110 0 -110 74zM678 1341q3 0 5 -2l3 2l-5 3zM683 1339h3h-3z" />
<glyph unicode="&#x176;" horiz-adv-x="1369" d="M64 1595q0 148 133 148q154 0 154 -176q0 -18 -6.5 -55t-6.5 -58q0 -108 100 -338q105 -243 189 -279q33 49 146 295q123 271 192 389q115 192 192 192q56 0 101 -34.5t53 -88.5q-28 -49 -98.5 -129.5t-95 -124t-308.5 -791.5q-241 -637 -320 -637q-69 0 -120 38 q-59 41 -59 108q0 41 46 102.5t102 217.5q41 118 82 235q-154 123 -271 377q-205 433 -205 609zM276 1961q0 28 42.5 73t118.5 106q154 123 213 123q33 0 120 -56.5t228 -176.5q21 -33 21 -61q0 -82 -103 -82q-28 0 -62.5 14t-75.5 47v-3q-82 64 -97 67l-26 10l-5 3 q-5 0 -3 -3l-66 -36q-138 -100 -195 -99q-110 0 -110 74zM647 2022q3 0 5 -2l3 2l-5 3zM652 2020h3h-3z" />
<glyph unicode="&#x177;" horiz-adv-x="1047" d="M38 -366q0 36 29.5 60t65.5 24q23 0 110 -69t200 -69q143 0 192 105q36 72 36 231q0 59 -3 97q-84 -56 -189 -57q-192 0 -297 139q-95 125 -95 320q0 20 26 645q77 33 123 33q51 0 151 -61q-61 -154 -62 -615q0 -294 149 -294q110 0 169 184q44 133 43 277v312 q0 -3 -8 84q105 51 157 52q54 0 128 -49q-23 -128 -44 -253q-26 -148 -26 -254v-696q0 -189 -108.5 -289t-298.5 -100q-123 0 -271 64q-177 74 -177 179zM161 1280q0 28 42.5 73t118.5 106q154 123 213 123q33 0 120 -56.5t228 -176.5q21 -33 21 -61q0 -82 -103 -82 q-28 0 -62.5 14t-75.5 47v-3q-82 64 -97 67l-26 10l-5 3q-5 0 -3 -3l-66 -36q-138 -100 -195 -99q-110 0 -110 74zM532 1341q3 0 5 -2l3 2l-5 3zM537 1339h3h-3z" />
<glyph unicode="&#x178;" horiz-adv-x="1436" d="M64 1605q0 151 133 151q77 0 123 -69q41 -59 41 -138q0 -15 -11.5 -42t-11.5 -43q0 -108 100 -340q108 -248 189 -282q36 49 146 297q123 271 192 389q113 195 192 195q59 0 102.5 -34.5t51.5 -88.5q-28 -49 -98.5 -130.5t-96.5 -128.5q-166 -287 -325 -681 q-195 -494 -174 -704q-79 -59 -141 -58q-79 0 -128 61q-28 38 -61 136q23 20 69 61q33 36 97 215q44 120 87 243q-154 125 -271 379q-205 438 -205 612zM346 1915q0 46 39.5 76.5t88.5 30.5t88.5 -30.5t39.5 -76.5q0 -44 -40 -74.5t-88 -30.5q-49 0 -88.5 30.5t-39.5 74.5z M730 1915q0 46 39.5 76.5t88.5 30.5t88.5 -30.5t39.5 -76.5q0 -44 -40 -74.5t-88 -30.5q-49 0 -88.5 30.5t-39.5 74.5z" />
<glyph unicode="&#x179;" horiz-adv-x="1623" d="M64 238q0 189 317 481l594 482q317 264 318 391q0 54 -95 54q-166 0 -372 -55t-352 -137l-134 -82q-102 -61 -130 -61q-115 0 -115 169q0 46 33 71q10 8 74 39q576 269 973 269q136 0 223 -70q49 -38 88.5 -109.5t39.5 -130.5q0 -148 -315 -428l-584 -486 q-315 -274 -315 -402q0 -51 118 -51t349.5 28t349.5 28q84 0 169 -41q100 -49 115 -123q-41 -74 -110 -74q-18 0 -55 13t-58 13h-15q-64 -5 -353 -31q-218 -20 -356 -21q-195 0 -277 36q-125 56 -125 228zM537 2043v31q38 46 79.5 88.5t84.5 85.5q133 125 202 126 q23 0 47.5 -11.5t45 -31t36 -42.5t20.5 -46l-5 -26q-13 -28 -29.5 -47t-37.5 -27q-13 -5 -56.5 -29.5t-117.5 -70.5q-143 -82 -189 -82q-36 0 -59 20.5t-21 61.5z" />
<glyph unicode="&#x17a;" horiz-adv-x="983" d="M38 133q0 95 118 251q72 92 243 274q164 169 205 228l-13 2q-128 0 -254.5 -78t-134.5 -78q-49 0 -82 37t-33 86q0 87 264 166q223 64 345 64q205 1 205 -135q0 -56 -20 -92q-13 -23 -54 -64q-151 -151 -300 -302q-207 -220 -243 -320q23 -3 44 -3q59 0 176.5 20.5 t176.5 20.5q164 0 220 -133l-43 -54h-70q-92 3 -266 -26.5t-258 -29.5t-149 41q-77 46 -77 125zM212 1272v31q38 46 79.5 88.5t84.5 85.5q133 125 202 126q23 0 47.5 -11.5t45 -31t36 -42.5t20.5 -46l-5 -26q-13 -28 -29.5 -47t-37.5 -27q-13 -5 -56.5 -29.5t-117.5 -70.5 q-143 -82 -189 -82q-36 0 -59 20.5t-21 61.5z" />
<glyph unicode="&#x17b;" horiz-adv-x="1623" d="M64 238q0 189 317 481l594 482q317 264 318 391q0 54 -95 54q-166 0 -372 -55t-352 -137l-134 -82q-102 -61 -130 -61q-115 0 -115 169q0 46 33 71q10 8 74 39q576 269 973 269q136 0 223 -70q49 -38 88.5 -109.5t39.5 -130.5q0 -148 -315 -428l-584 -486 q-315 -274 -315 -402q0 -51 118 -51t349.5 28t349.5 28q84 0 169 -41q100 -49 115 -123q-41 -74 -110 -74q-18 0 -55 13t-58 13h-15q-64 -5 -353 -31q-218 -20 -356 -21q-195 0 -277 36q-125 56 -125 228zM704 2140q0 51 54 82q46 26 100 26t103.5 -28.5t49.5 -79.5 q0 -49 -50 -76.5t-103 -27.5q-54 0 -100 25q-54 31 -54 79z" />
<glyph unicode="&#x17c;" horiz-adv-x="983" d="M38 133q0 95 118 251q72 92 243 274q164 169 205 228l-13 2q-128 0 -254.5 -78t-134.5 -78q-49 0 -82 37t-33 86q0 87 264 166q223 64 345 64q205 1 205 -135q0 -56 -20 -92q-13 -23 -54 -64q-151 -151 -300 -302q-207 -220 -243 -320q23 -3 44 -3q59 0 176.5 20.5 t176.5 20.5q164 0 220 -133l-43 -54h-70q-92 3 -266 -26.5t-258 -29.5t-149 41q-77 46 -77 125zM369 1344q0 51 54 82q46 26 100 26t103.5 -28.5t49.5 -79.5q0 -49 -50 -76.5t-103 -27.5q-54 0 -100 25q-54 31 -54 79z" />
<glyph unicode="&#x17d;" horiz-adv-x="1623" d="M64 238q0 189 317 481l594 482q317 264 318 391q0 54 -95 54q-166 0 -372 -55t-352 -137l-134 -82q-102 -61 -130 -61q-115 0 -115 169q0 46 33 71q10 8 74 39q576 269 973 269q136 0 223 -70q49 -38 88.5 -109.5t39.5 -130.5q0 -148 -315 -428l-584 -486 q-315 -274 -315 -402q0 -51 118 -51t349.5 28t349.5 28q84 0 169 -41q100 -49 115 -123q-41 -74 -110 -74q-18 0 -55 13t-58 13h-15q-64 -5 -353 -31q-218 -20 -356 -21q-195 0 -277 36q-125 56 -125 228zM422 2255q0 82 103 82q28 0 62.5 -14t75.5 -48v3q38 -28 61 -44.5 t36 -22.5h-8l29 -10h2l8 -2q13 5 30.5 15t38.5 23q138 100 194 100q111 0 111 -74q0 -56 -162 -182q-156 -120 -212 -120q-31 0 -119.5 56t-231.5 177q-18 28 -18 61z" />
<glyph unicode="&#x17e;" horiz-adv-x="983" d="M38 133q0 95 118 251q72 92 243 274q164 169 205 228l-13 2q-128 0 -254.5 -78t-134.5 -78q-49 0 -82 37t-33 86q0 87 264 166q223 64 345 64q205 1 205 -135q0 -56 -20 -92q-13 -23 -54 -64q-151 -151 -300 -302q-207 -220 -243 -320q23 -3 44 -3q59 0 176.5 20.5 t176.5 20.5q164 0 220 -133l-43 -54h-70q-92 3 -266 -26.5t-258 -29.5t-149 41q-77 46 -77 125zM97 1485q0 82 103 82q28 0 62.5 -14t75.5 -48v3q38 -28 61 -44.5t36 -22.5h-8l29 -10h2l8 -2q13 5 30.5 15t38.5 23q138 100 194 100q111 0 111 -74q0 -56 -162 -182 q-156 -120 -212 -120q-31 0 -119.5 56t-231.5 177q-18 28 -18 61z" />
<glyph unicode="&#x18f;" horiz-adv-x="1479" d="M100 1336q0 61 38.5 134.5t111.5 136t175 105t230 42.5q138 0 255 -54t205 -151t145.5 -231.5t83.5 -296.5q3 -26 10.5 -38.5l15 -25t14 -28t6.5 -46.5q0 -33 -14 -52t-17 -66q-5 -207 -75.5 -363t-185.5 -271q-79 -77 -171 -137.5t-200 -60.5q-159 0 -271.5 55.5 t-183 145t-103.5 207t-33 245.5q0 95 28 186t92 162.5t165 116.5t247 45q92 0 193.5 -33.5t216.5 -107.5q3 -3 10 -3q13 0 18 17t5 29q-33 248 -153.5 393t-304.5 145q-189 0 -297 -123q-23 -26 -34.5 -57.5t-25.5 -58.5t-36 -46.5t-65 -19.5q-95 0 -95 105zM348 604 q0 -195 92 -313.5t302 -118.5q84 0 151 42t114.5 113.5t75.5 166.5t38 200q0 44 -37 79.5t-96 60t-133 37t-146 12.5q-113 0 -183 -18t-110 -52.5t-54 -87t-14 -121.5z" />
<glyph unicode="&#x192;" horiz-adv-x="1128" d="M54 -61q0 44 19 70.5t60 26.5q13 0 20.5 -18t18 -38.5t29.5 -38.5t58 -18q31 0 56 47.5t45.5 121.5t36 164t26 171.5t16.5 147t9 93.5q-51 -13 -82 -20.5t-56 -7.5q-33 0 -53.5 16.5t-32.5 41t-15.5 50t-3.5 43.5q0 15 28 29.5t69 26t86 19t78 10.5q23 248 59 401.5 t82 239.5t103.5 115t126.5 29q36 0 74.5 -14t70.5 -39.5t52.5 -62.5t20.5 -83q0 -97 -80 -98q-10 0 -16.5 15.5t-18 33.5t-30.5 33.5t-55 15.5q-74 0 -110 -147.5t-67 -431.5q146 0 223 -19t77 -96q0 -69 -16.5 -87t-68.5 -18q-28 0 -49.5 2.5t-46 6.5t-56.5 8t-83 6 q-8 -95 -19.5 -202.5t-29.5 -215t-44.5 -206t-66.5 -174t-93.5 -120t-128.5 -44.5q-120 0 -171 62.5t-51 152.5z" />
<glyph unicode="&#x1a0;" horiz-adv-x="1640" d="M64 742q0 379 182 669q210 340 568 340q115 0 213.5 -48.5t188.5 -125.5q18 -15 43.5 -30.5t52.5 -28.5t51.5 -20.5t39.5 -7.5q38 0 79 28t41 67q0 20 -23 51t-23 51q0 64 54 64q18 0 37 -18t32 -47.5t22 -62.5t9 -64q0 -82 -49 -146t-123 -82q-28 -5 -42 -11.5 t-14 -24.5q0 -20 11.5 -52t25.5 -82t25.5 -121.5t11.5 -171.5q0 -195 -52.5 -361.5t-149.5 -289t-233 -193t-302 -70.5q-95 0 -183.5 25.5t-165 69t-135.5 102.5t-97 125q-95 166 -95 466zM292 671q0 -59 14 -122t36 -120.5t48.5 -105t52.5 -72.5q100 -102 292 -103 q115 0 207 54t156 151.5t98.5 234.5t34.5 303q0 532 -343 637q-28 10 -82 11q-146 0 -286 -128q-228 -207 -228 -740z" />
<glyph unicode="&#x1a1;" horiz-adv-x="1200" d="M51 445q0 230 115 436q136 243 346 243q31 0 75.5 -14t90.5 -45q33 -23 69 -50t73.5 -48.5t73 -37t66.5 -15.5q38 0 79 28t41 67q0 20 -23 51t-23 51q0 64 54 64q18 0 37 -18t32 -47.5t22 -62.5t9 -64q0 -95 -61.5 -164t-153.5 -69q-46 0 -46 -33q0 -36 19 -83.5 t19 -129.5q0 -125 -34.5 -231.5t-97 -184.5t-148.5 -121.5t-188 -43.5q-215 0 -330.5 137t-115.5 385zM294 451q0 -340 203 -341q115 0 179 111t64 288q0 392 -190 392q-59 0 -106 -36t-80.5 -97t-51.5 -143t-18 -174z" />
<glyph unicode="&#x1a2;" horiz-adv-x="2073" d="M64 742q0 379 182 669q210 340 568 340q138 0 248 -62.5t187 -178.5q44 -36 79.5 -52.5t82.5 -16.5q125 0 184 77v31q0 31 18 60t44.5 52t58.5 38.5t61 15.5q23 0 49.5 -10t50 -28t38.5 -38.5t15 -43.5q0 -13 -3.5 -17t-10 -16.5t-14.5 -43.5t-15 -95q-10 -95 -19 -226.5 t-14.5 -278.5t-9 -302t-6 -294.5t-4 -256t-1.5 -188.5q0 -56 4 -94.5t13 -75.5t28 -77t50 -96q3 -3 2 -15q0 -54 -125 -54h-23q-131 3 -159 210q-5 41 -10 129t-9 201t-6.5 241t-5 252t-4 233t-1.5 183q0 26 1.5 72t1.5 102t1 119t1 122q-23 -20 -58.5 -30.5t-74.5 -10.5 q-28 0 -56 3.5t-54 16.5q72 -199 72 -440q0 -195 -43.5 -361.5t-130.5 -289t-214 -193t-293 -70.5q-95 0 -183.5 25.5t-165 69t-135.5 102.5t-97 125q-95 166 -95 466zM292 671q0 -59 14 -122t36 -120.5t48.5 -105t52.5 -72.5q100 -102 292 -103q115 0 198 54t137 151.5 t79.5 234.5t25.5 303q0 133 -13 239t-45 187t-88 133.5t-141 77.5q-28 10 -82 11q-143 0 -286 -128q-228 -207 -228 -740z" />
<glyph unicode="&#x1a3;" horiz-adv-x="1487" d="M67 445q0 123 35.5 245t97 218t146 156t181.5 60q28 0 73 -15.5t94 -43.5q38 -23 70 -56.5t61.5 -64t60 -51t71.5 -20.5q54 0 85 19t59 76q-8 28 -9 58.5t-1 48.5q79 56 133 57q56 0 107 -37.5t51 -93.5q0 -20 -6 -42t-12 -43q-8 -26 -15 -48q-18 -79 -25.5 -192 t-7.5 -259v-476q8 -323 54 -450q13 -44 12 -57q0 -46 -37 -78t-85 -32q-161 0 -162 423q0 69 1.5 204.5t2.5 290.5t2.5 306t1.5 256q-13 -36 -32 -54t-60 -18q-20 0 -43.5 6.5t-48.5 26.5q30 -115 30 -261q0 -125 -30.5 -231.5t-88 -184.5t-138.5 -121.5t-183 -43.5 q-215 0 -330 137t-115 385zM310 451q0 -340 202 -341q115 0 165 111t50 288q0 200 -33.5 296t-127.5 96q-59 0 -106.5 -36t-80.5 -97t-51 -143t-18 -174z" />
<glyph unicode="&#x1af;" horiz-adv-x="1556" d="M64 750q0 49 5 147.5t10 207t10.5 207.5t5.5 147q0 20 -15.5 60t-15.5 61q0 26 23 51t60 44.5t83 31t93 11.5q87 0 87 -54q0 -13 -8 -34.5t-18 -47.5t-18 -49t-8 -35q0 -44 -7.5 -129.5t-17.5 -181.5t-18 -183.5t-8 -127.5v-318q0 -82 18 -155t51.5 -128t82 -87 t107.5 -32q256 0 340 471q38 218 39 684q0 164 -52 274q-15 31 -15 48q0 46 34.5 89.5t80.5 43.5q23 0 51.5 -10t52.5 -25.5t39.5 -37t15.5 -44.5q0 -46 19 -77t45 -49t51.5 -25.5t38.5 -7.5q38 0 79 28t41 67q0 20 -23 51t-23 51q0 64 54 64q18 0 37 -18t32 -47.5 t21.5 -62.5t8.5 -64q0 -95 -61 -164t-154 -69q-61 0 -86.5 14t-51.5 14q-10 0 -19 -5t-9 -20v-389q0 -118 -18 -250t-48.5 -251t-70.5 -215t-83 -142q-133 -141 -328 -141q-187 0 -318.5 116.5t-183.5 308.5q-38 141 -38 384z" />
<glyph unicode="&#x1b0;" horiz-adv-x="1190" d="M38 466q0 26 1.5 87t4 136.5t4 154t1.5 131.5v62q72 56 128 56q123 0 123 -120q0 -18 -4 -51.5t-8 -71.5t-8 -71.5t-4 -51.5v-361q0 -36 10.5 -71.5t28.5 -65t41 -49t51 -19.5q90 0 145 100t55 277v307q0 56 -31 146q67 59 123 59q49 0 78 -22t53.5 -46.5t49 -46 t65.5 -21.5q38 0 79 28t41 67q0 20 -23 51t-23 51q0 64 54 64q18 0 37 -18t32 -47.5t21.5 -62.5t8.5 -64q0 -95 -61 -164t-154 -69q-20 0 -44.5 4t-39.5 4q-13 0 -19.5 -6.5t-8.5 -27.5q-8 -84 -15.5 -167t-7.5 -124q0 -31 2.5 -90t3.5 -124t4 -124t3 -87q0 -59 -100 -59 q-105 0 -131 100q-95 -64 -189 -64q-36 0 -81 10t-88.5 29.5t-79 43.5t-53.5 52q-74 113 -75 346z" />
<glyph unicode="&#x1b5;" horiz-adv-x="1597" d="M44 238q0 95 76.5 215t240.5 266l61 54q-82 -13 -126.5 -25.5t-77.5 -12.5q-23 0 -51.5 10t-54 28t-42 38.5t-16.5 40.5q0 46 6.5 70.5t31.5 24.5q154 0 293.5 2.5t264.5 7.5q294 233 458 385.5t164 249.5q0 54 -94 54q-79 0 -178 -15.5t-210.5 -48.5t-230.5 -85.5 t-239 -124.5q-105 -67 -131 -61q-115 0 -115 169q0 36 15.5 55t92.5 55q576 269 973 269q67 0 123 -17t99 -53q23 -20 46 -48t41 -61.5t29.5 -66.5t11.5 -64q5 -159 -315 -428l-176 -148q59 5 102.5 6t66.5 1q51 0 104.5 -8.5t96 -26.5t69.5 -41.5t27 -51.5q0 -67 -26 -84.5 t-107 -17.5q-20 0 -28 4t-21 7.5t-40 10t-80.5 10.5t-145.5 8t-236 4q-125 -105 -220 -189.5t-157.5 -151t-94.5 -120.5t-32 -100q0 -51 118 -51q49 0 146 9t203 19t203.5 19t145.5 9q46 0 93.5 -13t87.5 -36t68 -52t36 -63q-44 -74 -110 -74q-18 0 -55.5 13t-57.5 13 l-369 -31q-110 -10 -198 -15.5t-158 -5.5q-120 0 -196.5 14.5t-123 45t-64 80.5t-17.5 124z" />
<glyph unicode="&#x1b6;" horiz-adv-x="1052" d="M36 517q0 41 4 64t19 23q182 0 335 8q108 108 167 174t84 100q-143 0 -269 -77q-128 -77 -133 -77q-49 0 -82 37t-33 86q0 87 264 166q215 64 345 64q205 0 205 -135q0 -28 -2.5 -46t-10 -35t-23 -34.5t-38.5 -40.5l-164 -167q31 3 55 4t37 1q36 0 72 -9t65.5 -24t47 -37 t17.5 -45q0 -61 -17.5 -76.5t-71.5 -15.5q-20 0 -25.5 5t-32.5 11.5t-96 13t-215 8.5q-90 -100 -145 -172.5t-70 -118.5q13 -3 23 -3h21q23 0 73 6.5t103.5 14t103.5 14t73 6.5q164 0 220 -133l-43 -54h-70q-33 0 -106 -9t-155 -19t-156 -19t-107 -9q-87 0 -156.5 44.5 t-69.5 121.5q0 46 29.5 110t88.5 141l39 49q-33 -10 -54 -16.5t-36 -6.5t-34.5 10t-36 25.5t-28 34.5t-11.5 37z" />
<glyph unicode="&#x1c0;" horiz-adv-x="437" d="M64 1710q84 56 133 56q56 0 107.5 -37t51.5 -93q0 -28 -13 -67q-18 -61 -20 -66q-33 -159 -34 -451v-476q8 -323 54 -451q13 -36 13 -56q0 -46 -37 -78t-86 -32q-161 0 -161 422q0 192 3.5 576t3.5 576q0 31 -7.5 90t-7.5 87z" />
<glyph unicode="&#x1c1;" horiz-adv-x="875" d="M64 1710q84 56 133 56q56 0 107.5 -37t51.5 -93q0 -28 -13 -67q-18 -61 -20 -66q-33 -159 -34 -451v-476q8 -323 54 -451q13 -36 13 -56q0 -46 -37 -78t-86 -32q-161 0 -161 422q0 192 3.5 576t3.5 576q0 31 -7.5 90t-7.5 87zM502 1710q84 56 133 56q56 0 107.5 -37 t51.5 -93q0 -28 -13 -67q-18 -61 -20 -66q-33 -159 -34 -451v-476q8 -323 54 -451q13 -36 13 -56q0 -46 -37 -78t-86 -32q-161 0 -161 422q0 192 3.5 576t3.5 576q0 31 -7.5 90t-7.5 87z" />
<glyph unicode="&#x1c3;" horiz-adv-x="688" d="M110 128q0 148 182 148q67 0 136 -25q92 -34 92 -85q0 -195 -223 -194q-41 0 -156 48q-31 56 -31 108zM202 655q0 118 47.5 349.5t47.5 349.5q0 46 -16.5 139.5t-16.5 139.5q0 26 5 44q64 54 156 54q54 0 107 -26q62 -33 62 -82q0 -18 -13 -38q-18 -28 -23 -36 q-59 -146 -87 -371q-13 -79 -38 -384q0 -13 -6.5 -50t-6.5 -58q0 -67 28 -177q-15 -20 -51 -56q-28 -8 -62 -8q-51 0 -94 26q-38 72 -39 184z" />
<glyph unicode="&#x1c4;" horiz-adv-x="3046" d="M64 374q0 205 11.5 614.5t11.5 614.5q0 5 -2.5 17.5t-2.5 20.5q0 46 33 74t80 28q64 0 113.5 -46t37.5 -107q131 192 371 192q292 0 448 -220q133 -195 133 -500q0 -402 -184 -724q-220 -384 -592 -384q-133 0 -230 54q-54 -49 -105 -49q-31 0 -72 33q-51 143 -51 382z M302 381q0 -241 202 -240q182 0 331 187q123 159 169 361q40 182 40 384q0 522 -307 522q-125 0 -248 -128q-108 -113 -147.5 -244.5t-39.5 -290.5v-551zM1487 238q0 189 317 481l594 482q317 264 318 391q0 54 -95 54q-166 0 -372 -55t-352 -137l-134 -82 q-102 -61 -130 -61q-115 0 -115 169q0 46 33 71q10 8 74 39q576 269 973 269q136 0 223 -70q49 -38 88.5 -109.5t39.5 -130.5q0 -148 -315 -428l-584 -486q-315 -274 -315 -402q0 -51 118 -51t349.5 28t349.5 28q84 0 169 -41q100 -49 115 -123q-41 -74 -110 -74 q-18 0 -55 13t-58 13h-15q-64 -5 -353 -31q-218 -20 -356 -21q-195 0 -277 36q-125 56 -125 228zM1869 2235q0 46 59 46q44 0 118 -57q87 -67 115 -76q18 -5 54 -18q38 13 107 51q136 100 179 100q67 0 67 -36q0 -41 -153.5 -162.5t-199.5 -121.5q-51 0 -336 233 q-10 20 -10 41z" />
<glyph unicode="&#x1c5;" horiz-adv-x="2406" d="M64 374q0 205 11.5 614.5t11.5 614.5q0 5 -2.5 17.5t-2.5 20.5q0 46 33 74t80 28q64 0 113.5 -46t37.5 -107q131 192 371 192q292 0 448 -220q133 -195 133 -500q0 -402 -184 -724q-220 -384 -592 -384q-133 0 -230 54q-54 -49 -105 -49q-31 0 -72 33q-51 143 -51 382z M302 381q0 -241 202 -240q182 0 331 187q123 159 169 361q40 182 40 384q0 522 -307 522q-125 0 -248 -128q-108 -113 -147.5 -244.5t-39.5 -290.5v-551zM1461 133q0 95 118 251q72 92 243 274q164 169 205 228l-13 2q-128 0 -254.5 -78t-134.5 -78q-49 0 -82 37t-33 86 q0 87 264 166q223 64 345 64q205 1 205 -135q0 -56 -20 -92q-13 -23 -54 -64q-151 -151 -300 -302q-207 -220 -243 -320q23 -3 44 -3q59 0 176.5 20.5t176.5 20.5q164 0 220 -133l-43 -54h-70q-92 3 -266 -26.5t-258 -29.5t-149 41q-77 46 -77 125zM1544 1465q0 46 59 46 q44 0 118 -57q87 -67 115 -76q18 -5 54 -18q38 13 107 51q136 100 179 100q67 0 67 -36q0 -41 -153.5 -162.5t-199.5 -121.5q-51 0 -336 233q-10 20 -10 41z" />
<glyph unicode="&#x1c6;" horiz-adv-x="2017" d="M38 407q0 225 93 458q118 294 307 295q113 0 230 -100q13 120 13 614q0 46 69 46q82 0 142 -41t60 -123q0 -56 -15 -145q-20 -120 -26 -144q-8 -79 -24.5 -468t-16.5 -430q0 -246 54 -369q-44 -72 -100 -72q-59 0 -105 45t-51 104q-120 -110 -246 -110q-187 0 -289 130 q-95 118 -95 310zM266 384q0 -238 138 -238q143 0 208 212q43 144 43 331q0 87 -38 158q-49 87 -128 87q-115 0 -177 -227q-46 -164 -46 -323zM1072 133q0 95 118 251q72 92 243 274q164 169 205 228l-13 2q-128 0 -254.5 -78t-134.5 -78q-49 0 -82 37t-33 86q0 87 264 166 q223 64 345 64q205 1 205 -135q0 -56 -20 -92q-13 -23 -54 -64q-151 -151 -300 -302q-207 -220 -243 -320q23 -3 44 -3q59 0 176.5 20.5t176.5 20.5q164 0 220 -133l-43 -54h-70q-92 3 -266 -26.5t-258 -29.5t-149 41q-77 46 -77 125zM1155 1465q0 46 59 46q44 0 118 -57 q87 -67 115 -76q18 -5 54 -18q38 13 107 51q136 100 179 100q67 0 67 -36q0 -41 -153.5 -162.5t-199.5 -121.5q-51 0 -336 233q-10 20 -10 41z" />
<glyph unicode="&#x1c7;" horiz-adv-x="2575" d="M64 525q0 151 24.5 448t24.5 448q0 28 -5.5 89.5t-5.5 92.5t6 69q51 61 125 61q72 0 110 -92q31 -72 31 -154q0 -174 -33.5 -517t-33.5 -514q0 -302 172 -302q77 0 220 52.5t220 52.5q72 0 110 -64q31 -51 31 -128q-276 -100 -584 -100q-241 0 -338 169q-74 131 -74 389z M1201 566q0 67 30 148q38 100 92 100q84 0 128 -79q38 -64 39 -154q0 -28 -2.5 -83t-2.5 -81q0 -72 67.5 -148.5t139.5 -76.5q261 0 261 699q0 123 -20 522q-31 -8 -162 -74q-118 -61 -143 -62q-51 0 -84.5 43.5t-33.5 95.5q0 84 177 143q128 38 253 77q26 97 116 97 q26 0 97 -43q20 3 62.5 13t65.5 10q59 0 115 -36t56 -92q0 -90 -102 -90q-23 0 -65 5t-66 5q-33 0 -33 -25q0 -36 4 -110.5t4 -112.5q0 -1288 -487 -1288q-195 0 -355 205q-151 192 -151 392z" />
<glyph unicode="&#x1c8;" horiz-adv-x="1728" d="M64 525q0 151 24.5 448t24.5 448q0 28 -5.5 89.5t-5.5 92.5t6 69q51 61 125 61q72 0 110 -92q31 -72 31 -154q0 -174 -33.5 -517t-33.5 -514q0 -302 172 -302q77 0 220 52.5t220 52.5q72 0 110 -64q31 -51 31 -128q-276 -100 -584 -100q-241 0 -338 169q-74 131 -74 389z M755 -461q0 92 105 92q28 0 59 -12q108 -128 259 -128q215 0 215 391q0 13 -18 1091l41 48q87 23 120 23q59 0 120 -61q-56 -156 -56 -241q0 -164 7.5 -495t7.5 -498q0 -187 -97 -322q-108 -151 -287 -151q-95 0 -276 89q-200 95 -200 174zM1352 1257q0 123 128 123 q72 0 128 -46t56 -115q0 -56 -47.5 -93.5t-103.5 -37.5q-28 0 -85 46q-46 38 -71 69q-5 26 -5 54z" />
<glyph unicode="&#x1c9;" horiz-adv-x="965" d="M-8 -461q0 92 105 92q28 0 59 -12q108 -128 259 -128q215 0 215 391q0 13 -18 1091l41 48q87 23 120 23q59 0 120 -61q-56 -156 -56 -241q0 -164 7.5 -495t7.5 -498q0 -187 -97 -322q-108 -151 -287 -151q-95 0 -276 89q-200 95 -200 174zM51 1710q84 56 133 56 q56 0 107.5 -37t51.5 -93q0 -28 -13 -67q-18 -61 -20 -66q-33 -159 -34 -451v-476q8 -323 54 -451q13 -36 13 -56q0 -46 -37 -78t-86 -32q-161 0 -161 422q0 192 4 576t4 576q0 31 -8 90t-8 87zM589 1257q0 123 128 123q72 0 128 -46t56 -115q0 -56 -47.5 -93.5 t-103.5 -37.5q-28 0 -85 46q-46 38 -71 69q-5 26 -5 54z" />
<glyph unicode="&#x1ca;" horiz-adv-x="2821" d="M64 369q0 44 2.5 129.5t2.5 128.5q0 105 25.5 312.5t25.5 312.5v312q0 5 -3.5 15.5t-3.5 15.5q0 51 69 84q56 28 112 29q131 0 187 -85q15 -28 28 -118q8 -61 16 -125q31 -182 161 -584q156 -474 233 -473q28 0 28 71q0 20 -6.5 66.5t-6.5 71.5l26 694q8 156 54 307 q67 212 179 213q36 0 100 -46q2 -13 2 -23q0 -28 -23 -72q-28 -56 -33 -69q-74 -233 -74 -381l-8 -735q-3 -113 -51 -231q-64 -148 -159 -148q-141 0 -279 235q-100 174 -202 482q-59 200 -120 399q-54 -435 -54 -584q0 -328 39.5 -376.5t39.5 -71.5q0 -49 -51 -85.5 t-102 -36.5q-72 0 -118 151q-36 118 -36 215zM1447 566q0 67 30 148q38 100 92 100q84 0 128 -79q38 -64 39 -154q0 -28 -2.5 -83t-2.5 -81q0 -72 67.5 -148.5t139.5 -76.5q261 0 261 699q0 123 -20 522q-31 -8 -162 -74q-118 -61 -143 -62q-51 0 -84.5 43.5t-33.5 95.5 q0 84 177 143q128 38 253 77q26 97 116 97q26 0 97 -43q20 3 62.5 13t65.5 10q59 0 115 -36t56 -92q0 -90 -102 -90q-23 0 -65 5t-66 5q-33 0 -33 -25q0 -36 4 -110.5t4 -112.5q0 -1288 -487 -1288q-195 0 -355 205q-151 192 -151 392z" />
<glyph unicode="&#x1cb;" horiz-adv-x="1973" d="M64 369q0 44 2.5 129.5t2.5 128.5q0 105 25.5 312.5t25.5 312.5v312q0 5 -3.5 15.5t-3.5 15.5q0 51 69 84q56 28 112 29q131 0 187 -85q15 -28 28 -118q8 -61 16 -125q31 -182 161 -584q156 -474 233 -473q28 0 28 71q0 20 -6.5 66.5t-6.5 71.5l26 694q8 156 54 307 q67 212 179 213q36 0 100 -46q2 -13 2 -23q0 -28 -23 -72q-28 -56 -33 -69q-74 -233 -74 -381l-8 -735q-3 -113 -51 -231q-64 -148 -159 -148q-141 0 -279 235q-100 174 -202 482q-59 200 -120 399q-54 -435 -54 -584q0 -328 39.5 -376.5t39.5 -71.5q0 -49 -51 -85.5 t-102 -36.5q-72 0 -118 151q-36 118 -36 215zM1001 -461q0 92 105 92q28 0 59 -12q108 -128 259 -128q215 0 215 391q0 13 -18 1091l41 48q87 23 120 23q59 0 120 -61q-56 -156 -56 -241q0 -164 7.5 -495t7.5 -498q0 -187 -97 -322q-108 -151 -287 -151q-95 0 -276 89 q-200 95 -200 174zM1598 1257q0 123 128 123q72 0 128 -46t56 -115q0 -56 -47.5 -93.5t-103.5 -37.5q-28 0 -85 46q-46 38 -71 69q-5 26 -5 54z" />
<glyph unicode="&#x1cc;" horiz-adv-x="1643" d="M64 1001q0 41 47.5 78t85.5 37q56 0 115 -64l-7 -102q95 151 233 151q90 0 189.5 -61.5t145.5 -138.5q105 -195 105 -512v-371q-38 -59 -95 -59q-44 0 -143 51v31q0 56 4 166t4 162q0 548 -164 547q-46 0 -105 -71q-182 -220 -182 -530q0 -44 16.5 -129.5t16.5 -129.5 q0 -36 -33 -59t-72 -23q-154 0 -153 195v535q0 20 5 60t5 60q0 31 -9 90t-9 87zM671 -461q0 92 105 92q28 0 59 -12q108 -128 259 -128q215 0 215 391q0 13 -18 1091l41 48q87 23 120 23q59 0 120 -61q-56 -156 -56 -241q0 -164 7.5 -495t7.5 -498q0 -187 -97 -322 q-108 -151 -287 -151q-95 0 -276 89q-200 95 -200 174zM1268 1257q0 123 128 123q72 0 128 -46t56 -115q0 -56 -47.5 -93.5t-103.5 -37.5q-28 0 -85 46q-46 38 -71 69q-5 26 -5 54z" />
<glyph unicode="&#x1cd;" horiz-adv-x="1546" d="M64 102q0 18 46 144q51 182 166 545q343 940 571 940q223 0 343 -497q54 -223 100 -684q67 -15 85 -25q41 -23 41 -72q0 -123 -110 -125q13 -59 56 -159q-3 -56 -46.5 -92t-102.5 -36q-46 0 -107 28q-33 67 -33 159q0 23 2.5 66.5t2.5 63.5q0 -18 -85 -18 q-143 0 -340 -12q-282 -15 -306 -43.5t-32 -274.5q-33 -49 -85 -48q-54 0 -110 44.5t-56 95.5zM402 499q82 18 243 44q146 17 412 7q-113 893 -202 894q-72 0 -251 -420q-128 -302 -202 -525zM507 2107q0 46 59 46q44 0 118 -57q87 -67 115 -76q18 -5 54 -18q38 13 107 51 q136 100 179 100q67 0 67 -36q0 -41 -153.5 -162.5t-199.5 -121.5q-51 0 -336 233q-10 20 -10 41z" />
<glyph unicode="&#x1ce;" horiz-adv-x="1095" d="M64 241q0 120 164 225q148 95 279 95h217v61q3 269 -158 269q-202 0 -202 -190q0 -64 -72 -64q-44 0 -91 40t-47 83q0 143 102 235.5t246 92.5q481 0 481 -653q0 -330 -20 -466q-13 -79 -108 -79q-143 0 -128 143q-128 -61 -266 -61q-133 0 -254 66q-143 79 -143 203z M210 1467q0 46 59 46q44 0 118 -57q87 -67 115 -76q18 -5 54 -18q38 13 107 51q136 100 179 100q67 0 67 -36q0 -41 -153.5 -162.5t-199.5 -121.5q-51 0 -336 233q-10 20 -10 41zM328 243q0 -82 140 -82q87 0 164 49q92 54 92 133q0 51 -76 51q-320 0 -320 -151z" />
<glyph unicode="&#x1cf;" horiz-adv-x="519" d="M-84 2094q0 46 59 46q44 0 118 -57q87 -67 115 -76q18 -5 54 -18q38 13 107 51q136 100 179 100q67 0 67 -36q0 -41 -153.5 -162.5t-199.5 -121.5q-51 0 -336 233q-10 20 -10 41zM90 914q0 105 3.5 316t3.5 319q0 59 61.5 112.5t120.5 53.5q46 0 100 -38t54 -82 q0 -13 -23 -56q-10 -20 -21 -116q-54 -573 -54 -1006q0 -113 21 -181q18 -59 74 -162q3 -5 3 -15q0 -54 -126 -54h-23q-131 3 -159 210q-36 253 -35 699z" />
<glyph unicode="&#x1d0;" horiz-adv-x="501" d="M-105 1442q0 46 59 46q44 0 118 -57q87 -67 115 -76q18 -5 54 -18q38 13 107 51q136 100 179 100q67 0 67 -36q0 -41 -153.5 -162.5t-199.5 -121.5q-51 0 -336 233q-10 20 -10 41zM105 141v886q72 36 115 35q44 0 101.5 -33t57.5 -69q0 -44 -20.5 -127t-20.5 -126v-515 q0 -49 28 -151q-38 -56 -84 -56q-177 0 -177 156z" />
<glyph unicode="&#x1d1;" d="M64 742q0 379 182 669q210 340 568 340q315 0 502 -294q161 -254 161 -589q0 -369 -182 -625q-202 -289 -555 -289q-100 0 -215 38q-256 82 -366 284q-95 174 -95 466zM292 671q0 -49 20 -136q44 -197 131 -284q100 -102 292 -103q261 0 394 254q102 200 102 489 q0 532 -343 637q-36 10 -82 11q-143 0 -286 -128q-228 -207 -228 -740zM422 2128q0 46 59 46q44 0 118 -57q87 -67 115 -76q18 -5 54 -18q38 13 107 51q136 100 179 100q67 0 67 -36q0 -41 -153.5 -162.5t-199.5 -121.5q-51 0 -336 233q-10 20 -10 41z" />
<glyph unicode="&#x1d2;" horiz-adv-x="1062" d="M51 445q0 230 115 436q133 243 346 243q67 0 166 -59q287 -172 287 -561q0 -230 -115 -394q-133 -187 -353 -187q-225 0 -341 154q-105 136 -105 368zM159 1503q0 46 59 46q44 0 118 -57q87 -67 115 -76q18 -5 54 -18q38 13 107 51q136 100 179 100q67 0 67 -36 q0 -41 -153.5 -162.5t-199.5 -121.5q-51 0 -336 233q-10 20 -10 41zM294 451q0 -340 203 -341q131 0 194 141q49 107 49 258q0 392 -190 392q-136 0 -204 -166q-51 -125 -52 -284z" />
<glyph unicode="&#x1d3;" horiz-adv-x="1285" d="M64 750q0 118 15.5 354.5t15.5 354.5q0 20 -15.5 60t-15.5 61q0 64 102 104q79 33 157 34q87 0 87 -54q0 -28 -26 -82t-26 -84q0 -102 -25.5 -310t-25.5 -312v-318q0 -146 57 -258q69 -143 202 -144q256 0 340 471q38 220 39 684q0 169 -52 274q-15 31 -15 48 q0 46 34.5 89.5t80.5 43.5q49 0 104 -35.5t55 -81.5v-709q0 -212 -51 -451q-61 -294 -169 -407q-133 -141 -328 -141q-174 0 -304 105q-143 118 -198 320q-38 143 -38 384zM259 2143q0 46 59 46q44 0 118 -57q87 -67 115 -76q18 -5 54 -18q38 13 107 51q136 100 179 100 q67 0 67 -36q0 -41 -153.5 -162.5t-199.5 -121.5q-51 0 -336 233q-10 20 -10 41z" />
<glyph unicode="&#x1d4;" horiz-adv-x="939" d="M38 466q0 82 6 287q8 182 5 284q77 56 128 56q123 0 123 -120q0 -41 -12 -123t-12 -123v-361q0 -61 34 -128q41 -77 97 -77q110 0 164 141q36 97 36 236v307q0 59 -31 146q64 59 123 59q61 0 111 -38.5t50 -97.5q0 -79 -19 -239t-19 -242q0 -72 6.5 -214t6.5 -211 q0 -59 -100 -59q-102 0 -131 100q-97 -64 -189 -64q-74 0 -169 39.5t-133 95.5q-74 108 -75 346zM100 1472q0 46 59 46q44 0 118 -57q87 -67 115 -76q18 -5 54 -18q38 13 107 51q136 100 179 100q67 0 67 -36q0 -41 -153.5 -162.5t-199.5 -121.5q-51 0 -336 233 q-10 20 -10 41z" />
<glyph unicode="&#x1d5;" horiz-adv-x="1285" d="M64 750q0 118 15.5 354.5t15.5 354.5q0 20 -15.5 60t-15.5 61q0 64 102 104q79 33 157 34q87 0 87 -54q0 -28 -26 -82t-26 -84q0 -102 -25.5 -310t-25.5 -312v-318q0 -146 57 -258q69 -143 202 -144q256 0 340 471q38 220 39 684q0 169 -52 274q-15 31 -15 48 q0 46 34.5 89.5t80.5 43.5q49 0 104 -35.5t55 -81.5v-709q0 -212 -51 -451q-61 -294 -169 -407q-133 -141 -328 -141q-174 0 -304 105q-143 118 -198 320q-38 143 -38 384zM287 2010q0 54 39.5 96t103.5 42q59 0 100 -42t41 -96q0 -59 -41 -100t-100 -41q-64 0 -103.5 41 t-39.5 100zM330 2317q0 61 41 61h471q41 1 41 -66q0 -61 -36 -62h-476q-41 0 -41 67zM643 2010q0 54 39.5 96t103.5 42q59 0 100 -42t41 -96q0 -59 -41 -100t-100 -41q-64 0 -103.5 41t-39.5 100z" />
<glyph unicode="&#x1d6;" horiz-adv-x="939" d="M38 466q0 82 6 287q8 182 5 284q77 56 128 56q123 0 123 -120q0 -41 -12 -123t-12 -123v-361q0 -61 34 -128q41 -77 97 -77q110 0 164 141q36 97 36 236v307q0 59 -31 146q64 59 123 59q61 0 111 -38.5t50 -97.5q0 -79 -19 -239t-19 -242q0 -72 6.5 -214t6.5 -211 q0 -59 -100 -59q-102 0 -131 100q-97 -64 -189 -64q-74 0 -169 39.5t-133 95.5q-74 108 -75 346zM128 1339q0 54 39.5 96t103.5 42q59 0 100 -42t41 -96q0 -59 -41 -100t-100 -41q-64 0 -103.5 41t-39.5 100zM172 1646q0 61 41 61h471q41 1 41 -66q0 -61 -36 -62h-476 q-41 0 -41 67zM484 1339q0 54 39.5 96t103.5 42q59 0 100 -42t41 -96q0 -59 -41 -100t-100 -41q-64 0 -103.5 41t-39.5 100z" />
<glyph unicode="&#x1d7;" horiz-adv-x="1285" d="M64 750q0 118 15.5 354.5t15.5 354.5q0 20 -15.5 60t-15.5 61q0 64 102 104q79 33 157 34q87 0 87 -54q0 -28 -26 -82t-26 -84q0 -102 -25.5 -310t-25.5 -312v-318q0 -146 57 -258q69 -143 202 -144q256 0 340 471q38 220 39 684q0 169 -52 274q-15 31 -15 48 q0 46 34.5 89.5t80.5 43.5q49 0 104 -35.5t55 -81.5v-709q0 -212 -51 -451q-61 -294 -169 -407q-133 -141 -328 -141q-174 0 -304 105q-143 118 -198 320q-38 143 -38 384zM287 2010q0 54 39.5 96t103.5 42q59 0 100 -42t41 -96q0 -59 -41 -100t-100 -41q-64 0 -103.5 41 t-39.5 100zM384 2293v21q69 84 161 171q125 120 182 121q33 0 66.5 -36t41.5 -72q-18 -44 -46.5 -55t-192.5 -111q-141 -82 -179 -82q-36 0 -33 43zM643 2010q0 54 39.5 96t103.5 42q59 0 100 -42t41 -96q0 -59 -41 -100t-100 -41q-64 0 -103.5 41t-39.5 100z" />
<glyph unicode="&#x1d8;" horiz-adv-x="939" d="M38 466q0 82 6 287q8 182 5 284q77 56 128 56q123 0 123 -120q0 -41 -12 -123t-12 -123v-361q0 -61 34 -128q41 -77 97 -77q110 0 164 141q36 97 36 236v307q0 59 -31 146q64 59 123 59q61 0 111 -38.5t50 -97.5q0 -79 -19 -239t-19 -242q0 -72 6.5 -214t6.5 -211 q0 -59 -100 -59q-102 0 -131 100q-97 -64 -189 -64q-74 0 -169 39.5t-133 95.5q-74 108 -75 346zM128 1339q0 54 39.5 96t103.5 42q59 0 100 -42t41 -96q0 -59 -41 -100t-100 -41q-64 0 -103.5 41t-39.5 100zM225 1623v21q69 84 161 171q125 120 182 121q33 0 66.5 -36 t41.5 -72q-18 -44 -46.5 -55t-192.5 -111q-141 -82 -179 -82q-36 0 -33 43zM484 1339q0 54 39.5 96t103.5 42q59 0 100 -42t41 -96q0 -59 -41 -100t-100 -41q-64 0 -103.5 41t-39.5 100z" />
<glyph unicode="&#x1d9;" horiz-adv-x="1285" d="M64 750q0 118 15.5 354.5t15.5 354.5q0 20 -15.5 60t-15.5 61q0 64 102 104q79 33 157 34q87 0 87 -54q0 -28 -26 -82t-26 -84q0 -102 -25.5 -310t-25.5 -312v-318q0 -146 57 -258q69 -143 202 -144q256 0 340 471q38 220 39 684q0 169 -52 274q-15 31 -15 48 q0 46 34.5 89.5t80.5 43.5q49 0 104 -35.5t55 -81.5v-709q0 -212 -51 -451q-61 -294 -169 -407q-133 -141 -328 -141q-174 0 -304 105q-143 118 -198 320q-38 143 -38 384zM259 2525q0 46 59 46q44 0 118 -57q87 -67 115 -76q18 -5 54 -18q38 13 107 51q136 100 179 100 q67 0 67 -36q0 -41 -153.5 -162.5t-199.5 -121.5q-51 0 -336 233q-10 20 -10 41zM287 2010q0 54 39.5 96t103.5 42q59 0 100 -42t41 -96q0 -59 -41 -100t-100 -41q-64 0 -103.5 41t-39.5 100zM643 2010q0 54 39.5 96t103.5 42q59 0 100 -42t41 -96q0 -59 -41 -100t-100 -41 q-64 0 -103.5 41t-39.5 100z" />
<glyph unicode="&#x1da;" horiz-adv-x="939" d="M38 466q0 82 6 287q8 182 5 284q77 56 128 56q123 0 123 -120q0 -41 -12 -123t-12 -123v-361q0 -61 34 -128q41 -77 97 -77q110 0 164 141q36 97 36 236v307q0 59 -31 146q64 59 123 59q61 0 111 -38.5t50 -97.5q0 -79 -19 -239t-19 -242q0 -72 6.5 -214t6.5 -211 q0 -59 -100 -59q-102 0 -131 100q-97 -64 -189 -64q-74 0 -169 39.5t-133 95.5q-74 108 -75 346zM100 1854q0 46 59 46q44 0 118 -57q87 -67 115 -76q18 -5 54 -18q38 13 107 51q136 100 179 100q67 0 67 -36q0 -41 -153.5 -162.5t-199.5 -121.5q-51 0 -336 233 q-10 20 -10 41zM128 1339q0 54 39.5 96t103.5 42q59 0 100 -42t41 -96q0 -59 -41 -100t-100 -41q-64 0 -103.5 41t-39.5 100zM484 1339q0 54 39.5 96t103.5 42q59 0 100 -42t41 -96q0 -59 -41 -100t-100 -41q-64 0 -103.5 41t-39.5 100z" />
<glyph unicode="&#x1db;" horiz-adv-x="1285" d="M64 750q0 118 15.5 354.5t15.5 354.5q0 20 -15.5 60t-15.5 61q0 64 102 104q79 33 157 34q87 0 87 -54q0 -28 -26 -82t-26 -84q0 -102 -25.5 -310t-25.5 -312v-318q0 -146 57 -258q69 -143 202 -144q256 0 340 471q38 220 39 684q0 169 -52 274q-15 31 -15 48 q0 46 34.5 89.5t80.5 43.5q49 0 104 -35.5t55 -81.5v-709q0 -212 -51 -451q-61 -294 -169 -407q-133 -141 -328 -141q-174 0 -304 105q-143 118 -198 320q-38 143 -38 384zM287 2010q0 54 39.5 96t103.5 42q59 0 100 -42t41 -96q0 -59 -41 -100t-100 -41q-64 0 -103.5 41 t-39.5 100zM394 2465q5 36 38.5 74.5t66.5 38.5q56 0 169 -102q84 -77 146 -157q5 -13 5 -23q0 -46 -44 -46q-69 0 -197 108q-44 36 -89 51q-59 18 -87 36zM643 2010q0 54 39.5 96t103.5 42q59 0 100 -42t41 -96q0 -59 -41 -100t-100 -41q-64 0 -103.5 41t-39.5 100z" />
<glyph unicode="&#x1dc;" horiz-adv-x="939" d="M38 466q0 82 6 287q8 182 5 284q77 56 128 56q123 0 123 -120q0 -41 -12 -123t-12 -123v-361q0 -61 34 -128q41 -77 97 -77q110 0 164 141q36 97 36 236v307q0 59 -31 146q64 59 123 59q61 0 111 -38.5t50 -97.5q0 -79 -19 -239t-19 -242q0 -72 6.5 -214t6.5 -211 q0 -59 -100 -59q-102 0 -131 100q-97 -64 -189 -64q-74 0 -169 39.5t-133 95.5q-74 108 -75 346zM128 1339q0 54 39.5 96t103.5 42q59 0 100 -42t41 -96q0 -59 -41 -100t-100 -41q-64 0 -103.5 41t-39.5 100zM236 1794q5 36 38.5 74.5t66.5 38.5q56 0 169 -102 q84 -77 146 -157q5 -13 5 -23q0 -46 -44 -46q-69 0 -197 108q-44 36 -89 51q-59 18 -87 36zM484 1339q0 54 39.5 96t103.5 42q59 0 100 -42t41 -96q0 -59 -41 -100t-100 -41q-64 0 -103.5 41t-39.5 100z" />
<glyph unicode="&#x1de;" horiz-adv-x="1546" d="M64 102q0 18 46 144q51 182 166 545q343 940 571 940q223 0 343 -497q54 -223 100 -684q67 -15 85 -25q41 -23 41 -72q0 -123 -110 -125q13 -59 56 -159q-3 -56 -46.5 -92t-102.5 -36q-46 0 -107 28q-33 67 -33 159q0 23 2.5 66.5t2.5 63.5q0 -18 -85 -18 q-143 0 -340 -12q-282 -15 -306 -43.5t-32 -274.5q-33 -49 -85 -48q-54 0 -110 44.5t-56 95.5zM402 499q82 18 243 44q146 17 412 7q-113 893 -202 894q-72 0 -251 -420q-128 -302 -202 -525zM420 1974q0 54 39.5 96t103.5 42q59 0 100 -42t41 -96q0 -59 -41 -100t-100 -41 q-64 0 -103.5 41t-39.5 100zM463 2281q0 61 41 61h471q41 1 41 -66q0 -61 -36 -62h-476q-41 0 -41 67zM776 1974q0 54 39.5 96t103.5 42q59 0 100 -42t41 -96q0 -59 -41 -100t-100 -41q-64 0 -103.5 41t-39.5 100z" />
<glyph unicode="&#x1df;" horiz-adv-x="1095" d="M64 241q0 120 164 225q148 95 279 95h217v61q3 269 -158 269q-202 0 -202 -190q0 -64 -72 -64q-44 0 -91 40t-47 83q0 143 102 235.5t246 92.5q481 0 481 -653q0 -330 -20 -466q-13 -79 -108 -79q-143 0 -128 143q-128 -61 -266 -61q-133 0 -254 66q-143 79 -143 203z M202 1334q0 54 39.5 96t103.5 42q59 0 100 -42t41 -96q0 -59 -41 -100t-100 -41q-64 0 -103.5 41t-39.5 100zM246 1641q0 61 41 61h471q41 1 41 -66q0 -61 -36 -62h-476q-41 0 -41 67zM328 243q0 -82 140 -82q87 0 164 49q92 54 92 133q0 51 -76 51q-320 0 -320 -151z M558 1334q0 54 39.5 96t103.5 42q59 0 100 -42t41 -96q0 -59 -41 -100t-100 -41q-64 0 -103.5 41t-39.5 100z" />
<glyph unicode="&#x1e0;" horiz-adv-x="1546" d="M64 102q0 18 46 144q51 182 166 545q343 940 571 940q223 0 343 -497q54 -223 100 -684q67 -15 85 -25q41 -23 41 -72q0 -123 -110 -125q13 -59 56 -159q-3 -56 -46.5 -92t-102.5 -36q-46 0 -107 28q-33 67 -33 159q0 23 2.5 66.5t2.5 63.5q0 -18 -85 -18 q-143 0 -340 -12q-282 -15 -306 -43.5t-32 -274.5q-33 -49 -85 -48q-54 0 -110 44.5t-56 95.5zM402 499q82 18 243 44q146 17 412 7q-113 893 -202 894q-72 0 -251 -420q-128 -302 -202 -525zM463 2214q0 61 41 61h471q41 1 41 -66q0 -61 -36 -62h-476q-41 0 -41 67z M586 1940q0 51 54 82q46 26 100 26t103.5 -28.5t49.5 -79.5q0 -49 -50 -76.5t-103 -27.5q-54 0 -100 25q-54 31 -54 79z" />
<glyph unicode="&#x1e1;" horiz-adv-x="1095" d="M64 241q0 120 164 225q148 95 279 95h217v61q3 269 -158 269q-202 0 -202 -190q0 -64 -72 -64q-44 0 -91 40t-47 83q0 143 102 235.5t246 92.5q481 0 481 -653q0 -330 -20 -466q-13 -79 -108 -79q-143 0 -128 143q-128 -61 -266 -61q-133 0 -254 66q-143 79 -143 203z M246 1574q0 61 41 61h471q41 1 41 -66q0 -61 -36 -62h-476q-41 0 -41 67zM328 243q0 -82 140 -82q87 0 164 49q92 54 92 133q0 51 -76 51q-320 0 -320 -151zM369 1297q0 51 54 82q46 26 100 26t103.5 -28.5t49.5 -79.5q0 -49 -50 -76.5t-103 -27.5q-54 0 -100 25 q-54 31 -54 79z" />
<glyph unicode="&#x1e2;" horiz-adv-x="2424" d="M64 102q0 18 67 149q74 184 240 545q141 274 310 535q264 402 384 402q33 0 94.5 -15.5t94.5 -15.5q179 0 610 72q51 10 84 10q169 0 302 -153q-74 -72 -133 -72q-15 0 -47 4t-48 4q-143 0 -322 -21q-228 -23 -305 -64q-18 -205 -31 -560q13 3 182 15.5t200 12.5 q92 0 225 -64v-69q0 -46 -89 -113q-54 54 -70 54q-215 0 -458 -69l-2 -139q113 -26 112 -94q0 -51 -35.5 -88.5t-87.5 -39.5q10 -156 118 -156q102 0 290.5 67.5t288.5 67.5q161 0 215 -92v-23q2 -15 2 -20q0 -74 -89 -75q-10 0 -29.5 4t-29.5 4q-115 0 -333 -69t-335 -69 q-305 0 -331 371q-46 5 -76 5q-143 0 -348 -15q-276 -18 -313 -49q-26 -23 -69 -274q-36 -44 -84 -43q-56 0 -105 43.5t-49 96.5zM461 502q74 15 228 41q159 18 419 10v97q-87 5 -87 105q0 95 93 115q0 46 12 256q8 157 8 254l-2 115q-15 23 -44 23q-118 0 -627 -1016z M883 1953q0 61 41 61h471q41 1 41 -66q0 -61 -36 -62h-476q-41 0 -41 67z" />
<glyph unicode="&#x1e3;" horiz-adv-x="1722" d="M64 246q0 120 164 225q148 95 279 95h217v59q3 266 -158 266q-87 0 -149 -105q-54 -92 -53 -184q0 -64 -72 -64q-44 0 -91 41t-47 84q0 146 97 282q108 143 251 143q92 0 195.5 -39.5t167.5 -103.5q95 159 223 158q141 0 303.5 -125.5t162.5 -260.5q0 -172 -151 -295 q-141 -115 -318 -115q-31 0 -68 15.5t-72 30.5q8 -195 192 -194q102 0 200.5 115t137.5 115q44 0 77 -34.5t33 -78.5q0 -128 -172 -222q-148 -84 -287 -85q-184 0 -302 110q-184 -102 -363 -102q-133 0 -254 67q-143 79 -143 202zM328 248q0 -82 140 -82q84 0 164 49 q92 54 92 133q0 49 -76 49q-320 0 -320 -149zM548 1275q0 61 41 61h471q41 1 41 -66q0 -61 -36 -62h-476q-41 0 -41 67zM975 607q0 -46 46.5 -75.5t97.5 -29.5q79 0 133 62.5t54 144.5q0 64 -37.5 121.5t-98.5 57.5q-69 0 -136 -107q-59 -97 -59 -174z" />
<glyph unicode="&#x1e6;" horiz-adv-x="1410" d="M64 755q0 353 151 640q182 351 502 351q159 0 276 -74q131 -84 162 -231q26 -120 25 -115q0 -338 -153 -338q-46 0 -84.5 31t-38.5 77q0 26 26.5 74.5t26.5 76.5q0 146 -35 199q-46 74 -182 75q-138 0 -256 -172q-97 -143 -128 -299q-31 -166 -31 -308q0 -241 39 -348 q61 -174 248 -228q56 -15 92 -15q92 0 195 77q90 72 138 161q28 54 33 136l-10 7q-182 0 -282 -43q-31 -15 -61 -33q-41 -18 -64 -18q-64 0 -100 53.5t-36 120.5q0 56 59 92q38 20 241 49q184 23 258 23q210 0 210 -259q0 -223 -194.5 -397t-419.5 -174q-325 0 -482 254 q-125 207 -125 555zM325 2123q0 46 59 46q44 0 118 -57q87 -67 115 -76q18 -5 54 -18q38 13 107 51q136 100 179 100q67 0 67 -36q0 -41 -153.5 -162.5t-199.5 -121.5q-51 0 -336 233q-10 20 -10 41z" />
</font>
</defs>
</svg>
